<?xml version="1.0" encoding="utf-8"?>
<!-- Generator: Adobe Illustrator 17.0.0, SVG Export Plug-In . SVG Version: 6.00 Build 0)  -->
<!DOCTYPE svg PUBLIC "-//W3C//DTD SVG 1.1//EN" "http://www.w3.org/Graphics/SVG/1.1/DTD/svg11.dtd">
<svg version="1.1" id="Layer_1" xmlns="http://www.w3.org/2000/svg" xmlns:xlink="http://www.w3.org/1999/xlink" x="0px" y="0px"
	 width="411.711px" height="340.096px" viewBox="0 0 411.711 340.096" enable-background="new 0 0 411.711 340.096"
	 xml:space="preserve">
<g>
	<path fill="#D8D7D6" d="M266.687,165.739c0.016,42.62,0.06,85.239,0.027,127.859c-0.007,8.978-5.409,11.375-11.552,12.188
		c-1.145,0.152-2.328,0.024-3.493,0.024c-32.631,0.001-97.892,0.003-97.892,0.003l-115.695,0.184
		c-4.204-0.284-10.99-4.554-10.973-11.304c0.036-13.815,0-40.089,0-40.089s-0.411-87.946,0-88.673
		c1.773-1.867,4.941-1.553,7.11-0.726c1.482,0.832,1.755,2.739,3.479,3.818c3.243,0.667,6.784,0.624,10.047,0.033
		c1.905-1.075,2.135-3.283,3.916-4.055c2.399-0.961,4.915-0.781,7.398-0.782c59.175-0.015,118.35-0.014,177.525-0.003
		c2.158,0,4.326-0.088,6.442,0.387c0.56,0.132,1.095,0.367,1.582,0.675c1.173,0.908,1.339,2.582,2.878,3.71
		c3.335,0.818,7.017,0.67,10.696,0.072c1.739-0.735,1.342-3.116,2.999-3.913C263.124,164.372,264.979,164.385,266.687,165.739z"/>
	<path fill="#353F49" d="M354.642,288.851c-5.265-6.246-8.744-13.313-8.901-21.58c-0.503-26.491,26.012-40.845,45.908-31.72
		c10.03,4.735,16.693,12.199,19.21,23.21c4.225,18.488-7.838,35.116-23.74,39.025c-11.467,2.819-21.616,0.18-30.516-7.506
		C355.993,289.753,355.298,289.325,354.642,288.851z"/>
	<path fill="#E4E3E3" d="M290.653,333.787c-0.986-2.676-3.324-4.857-2.942-8.034c1.182-0.515,2.285-0.094,3.367,0.325
		c13.82,5.341,29.669-5.635,32.736-19.505c1.101-4.979,0.934-10.154,1.111-15.286c0.331-9.616-0.48-19.192-0.105-28.781
		c0.027-0.688,0.354-1.263,0.848-1.742c5.789,2.427,7.829,7.292,7.918,13.031c0.175,11.325,0.055,22.654,0.056,33.981
		c0.001,4.483-0.005,8.967,0.003,13.451c0.023,13.183-8.211,19.485-20.498,18.821c-1.648-0.089-3.317-0.387-4.941-0.229
		C301.408,340.483,295.46,338.837,290.653,333.787z"/>
	<path fill="#232E38" d="M237.665,25.734c5.454,0.064,10.909,0.107,16.363,0.198c8.272,0.138,12.55,4.39,12.615,12.536
		c0.065,8.104-0.014,48.352,0.155,56.33c-0.133,3.262-0.266,6.523-0.399,9.785c-4.626,2.916-9.336,2.341-14.084,0.346
		c-1.611-2.383-1.257-5.112-1.264-7.743c-0.042-15.973-0.008-31.947-0.032-47.92c-0.003-2.297,0.292-4.655-1.232-7.647
		c-33.542-0.516-67.418,0.104-101.276-0.317c-14.166,0.079-28.349-0.281-43.112,0.236c1.709,14.902-0.32,28.203-8.885,39.912
		c-0.879,1.298-1.837,2.538-2.948,3.651c-1.94,1.84-3.826,3.74-5.681,5.679c-1.115,1.174-2.478,2.049-3.668,3.139
		c-11.588,8.667-24.841,10.535-39.836,8.898c-0.31,15.764-0.204,30.916-0.064,45.586c2.953,2.459,5.719,1.827,8.303,1.835
		c31.765,0.094,63.53-0.077,95.297,0.097c31.406-0.289,62.81-0.038,94.214-0.146c2.618-0.009,5.323,0.42,7.787-0.918
		c1.745-2.248,0.666-5.333,2.374-7.532c4.749-2.105,9.469-2.598,14.124,0.27c0.523,7.896,0.143,15.799,0.176,23.699
		c-1.977,0.061-3.953,0.123-5.929,0.184c-1.271-0.819-1.345-2.697-3.36-3.44c-2.966-0.433-6.398-0.45-9.359,0.006
		c-2.002,0.763-2.067,2.652-3.371,3.441c-19.487-0.038-38.974-0.106-58.461-0.108c-45.142-0.007-90.283,0.018-135.425,0.03
		c-0.177-0.15-0.353-0.299-0.534-0.445c-3.254-4.764-11.754-4.765-14.962,0.006c-0.177,0.149-0.358,0.294-0.538,0.439
		c-1.986-0.018-3.972-0.037-5.958-0.055c-2.088-2.188-1.596-4.966-1.588-7.558c0.061-20.564-0.278-41.129,0.178-61.691
		c0.022-1.018-0.051-1.979-0.469-2.906c-3.568-3.45-7.586-6.394-10.699-10.362C-6.317,54.647,7.975,12.739,43.22,4.139
		c11.723-2.861,23.041-1.305,33.873,3.936c1.485,0.718,2.785,1.832,4.494,2.062c5.792,4.49,11.28,9.281,15.189,15.582
		c0.977,0.075,1.798,0.193,2.618,0.193c45.43,0.008,90.859,0.008,136.289-0.001C236.344,25.91,237.004,25.795,237.665,25.734z"/>
	<path fill="#F4F4F4" d="M337.607,218.768c-9.754,0.876-18.735-1.375-26.801-6.914c-11.21-7.698-18.014-18.054-19.238-31.878
		c-1.683-19.015,5.716-33.543,22.023-43.003c14.743-8.552,34.218-7.348,47.279,2.852c11.594,9.054,18.535,21.026,17.744,36.436
		c-0.043,0.83-0.007,2.945-0.017,3.776c-1.404,0.487-2.311-1.703-2.919-2.642c-3.289-5.073-7.922-8.932-11.856-13.221
		c0.17,0.478-0.168-0.455-0.058-0.129c4.872,14.458,1.089,26.419-10.372,36.141c-7.984,6.773-22.134,8.013-31.258,2.982
		c4.329,4.246,8.839,8.585,13.944,12.259C337.116,216.174,338.163,217.169,337.607,218.768z"/>
	<path fill="#FDC76D" d="M266.417,142.008c-4.581,0.04-9.162,0.08-13.744,0.12c-1.419,1.024-3.059,1.259-4.741,1.27
		c-10.146,0.069-20.292,0.11-30.438-0.025c-1.67-0.022-3.327-0.238-5.423-1.27c-1.518-12.388-1.209-24.794-0.227-37.217
		c2.131-1.553,4.159-1.638,6.147-1.659c9.98-0.107,19.96-0.084,29.94-0.017c1.684,0.011,3.319,0.251,4.764,1.218
		c4.568,0.052,9.137,0.103,13.705,0.155c9.569,0,19.138,0,28.979,0c0,12.693,0,24.694,0,37.425
		C285.55,142.008,275.983,142.008,266.417,142.008z"/>
	<path fill="#F4F4F4" d="M325.667,260.765c0.414,7.633,1.175,15.262,0.888,22.908c-0.127,3.389-0.382,6.674-0.18,10.14
		c0.724,12.457-2.526,23.648-13.996,30.691c-7.916,4.86-16.158,6.538-24.668,1.25c-0.025-17.096-0.072-34.193-0.064-51.29
		c0.004-7.866,7.054-15.94,14.931-16.558c5.442-0.427,10.964-0.29,16.418,0.08C321.319,258.143,323.898,258.759,325.667,260.765z"/>
	<path fill="#E4E3E3" d="M337.607,218.768c-4.246-2.731-15.953-14.479-18.544-17.564c11.901,5.372,23.494,6.097,33.991-2.453
		c12.313-10.03,14.184-22.967,8.953-37.612c5.079,4.911,10.562,9.2,14.336,15.11c0.625,0.978,2.254,3.788,2.254,3.788
		s0.021,1.408,0.041,2.754c-3.004,1.292-5.59-1.742-8.601-0.852c-1.549,1.505-2.01,3.274-1.395,5.273
		c2.168,2.541,5.692,1.624,8.077,3.432c-1.996,9.357-8.471,15.491-15.467,21.155c-3.24,2.623-7.103,4.317-10.971,5.854
		c-1.791,0.712-3.709,1.762-5.638,0.192C342.344,218.513,340.032,219.075,337.607,218.768z"/>
	<path fill="#98C6CB" d="M363.736,209.161c0,0,10.583-8,14.901-24.75c6.734,3.236,13.365,6.406,18.431,9.47
		c0.678,1.074-4.203,7.755-4.643,7.787c-0.503,0.13-11.15-1.378-11.15-1.378c-11.956,17.204-23.04,20.704-43.669,18.477
		C353.673,217.193,363.736,209.161,363.736,209.161z"/>
	<path fill="#F4F4F4" d="M380.627,183.755c0.266,0.484-1.286,7.198-2.37,7.292c-1.05,0.496-11.375-2.115-11.531-2.877
		c-0.219-0.425,1.698-8.238,2.505-8.362C370.278,179.641,380.33,183.005,380.627,183.755z"/>
	<rect x="117.741" y="261.138" fill="#FDFDFD" width="59.897" height="35.625"/>
	<rect x="105.364" y="238.495" fill="#FDFDFD" width="69.752" height="12.998"/>
	<rect x="223.031" y="224.269" fill="#FCFCFC" width="29.466" height="11.144"/>
	<polygon fill="#FDFDFD" points="252.692,221.091 243.903,221.091 243.903,206.65 240.85,206.65 240.85,195.346 252.714,195.346 	
		"/>
	<polygon fill="#FDFDFD" points="252.714,191.533 233.584,191.533 233.584,180.105 252.705,180.105 	"/>
	<polygon fill="#FCFCFC" points="102.732,251.493 86.83,251.493 86.83,238.495 102.676,238.495 	"/>
	<path fill="#464E57" d="M244.574,165.9c0.075-1.471,0.151-2.943,0.243-4.753c5.114,0,10.126,0,15.243,0
		c1.029,1.465,0.397,3.168,0.604,4.746c-0.432,1.571,0.941,3.542-1.056,4.766c-1.073-0.975-1.69-2.429-2.282-2.687
		c-4.736-1.596-9.12,0.507-12.782-2.124L244.574,165.9z"/>
	<path fill="#242F39" d="M50.688,165.821c0,1.475,0,2.951,0,4.712c-5.284,0-10.336,0-15.568,0c-0.858-1.46-0.235-3.145-0.466-4.713
		l0.04-0.043c5.318-2.34,10.635-2.34,15.953,0L50.688,165.821z"/>
	<path fill="#232E38" d="M244.543,165.846c4.755,0,9.511,0,14.147,0c1.531,1.53,0.771,3.249,0.917,4.812c-4.784,0-9.569,0-14.463,0
		C244.179,169.115,244.917,167.397,244.543,165.846z"/>
	<rect x="49.738" y="224.269" fill="#FCFCFC" width="8.998" height="11.37"/>
	<path fill="#F4825F" d="M252.695,104.428c-11.447,0.544-22.9,0.139-34.35,0.263c-1.779,0.019-3.621-0.355-5.582,0.473
		c0,12.083,0,24.117,0,36.964c13.457,0,26.684,0,39.91,0c0,2.984,0,5.967,0,9.619c-35.164,0-70.031,0-104.898,0
		c-1.819-1.859-1.727-4.244-1.73-6.562c-0.036-32.917-0.037-65.835,0.002-98.752c0.003-2.315-0.104-4.707,1.766-6.54
		c34.731,0,69.463,0,104.881,0C252.695,61.631,252.695,83.03,252.695,104.428z"/>
	<path fill="#353F49" d="M147.814,39.894c-0.049,16.311-0.136,32.623-0.138,48.934c-0.002,20.973,0.064,41.947,0.1,62.92
		c-34.789,0-69.577,0-104.735,0c0-16.962,0-33.665,0-50.928c15.188,2.742,29.259,0.48,41.678-8.983
		c0.993,0.532,1.899-0.165,2.853-0.211c0.818-0.04,1.641-0.033,3.292-0.271c-1.536-0.593-2.683-0.685-3.228-1.61
		c1.357-1.954,2.954-3.667,4.994-4.93c1.011-0.799,2.268-0.983,3.479-1.384c0.042-0.973-1.085-0.902-1.392-1.545
		c8.846-12.545,11.81-26.429,8.621-41.992C118.712,39.894,133.263,39.894,147.814,39.894z"/>
	<path fill="#353F49" d="M31.657,17.709c4.23-1.647,7.823-4.655,12.311-5.75c3.948,0.565,7.824,0.344,11.587-1.079
		c7.981,0.411,15.476,2.292,22.158,6.935c8.844,6.145,14.837,14.18,16.973,24.875c-0.573,1.254-0.216,2.229,0.896,2.975
		c0.084,1.335,0.168,2.671,0.251,4.007c-0.132,0.188-0.265,0.376-0.396,0.566c-0.807,0.616-1.865,0.54-2.758,0.997
		c0.575,0.64,1.446,0.454,2.115,0.792c0.429,0.194,0.766,0.494,1.012,0.894c0.113,13.678-5.789,24.387-16.22,32.86
		c-7.644,0.063-15.289-0.018-22.932,0.075c6.131-0.092,12.263-0.053,18.394-0.004c1.016,0.008,1.998,0.151,2.635,1.097
		c-4.023,2.083-7.746,4.814-12.316,5.721c-1.988-0.865-3.706-0.185-5.346,0.935c-0.905-0.002-1.81-0.005-2.715-0.007
		c-4.384-1.102-8.827-1.371-13.319-0.939c-10.237-3.579-18.627-9.627-24.591-18.756c-1.396-2.137-3.133-4.327-2.596-7.235
		c1.494-1.423,3.522-0.823,5.683-1.427c-2.358-0.141-4.271-0.302-5.672,1.445c-2.095-2.048-2.802-4.938-2.967-7.475
		c-0.644-9.903-0.445-19.774,5.605-28.413c1.29-0.104,2.159-0.472,1.232-1.966c3.055-3.315,6.11-6.63,9.165-9.946
		C30.886,19.169,31.692,19.085,31.657,17.709z"/>
	<path fill="#464E58" d="M50.647,165.778c-5.318,0-10.635,0-15.953,0c0.074-1.472-0.307-2.984,0.501-4.682
		c4.8-0.65,9.74-0.108,14.484-0.309C51.224,162.454,50.465,164.194,50.647,165.778z"/>
	<path fill="#FBFBFB" d="M77.682,86.951c-8.115,0.278-16.23,0.327-24.344,0.013c-0.343-0.013-0.917-0.441-0.773-1.008
		c-0.004-0.962,0.612-1.205,1.289-1.207c8.121-0.029,16.243-0.034,24.364-0.038c0.717,0,1.254,0.279,1.367,1.073
		C78.951,86.172,78.316,86.562,77.682,86.951z"/>
	<path fill="#5F656E" d="M87.636,89.745c1.927,0.236,3.959-0.354,5.699,0.485c0.259,0.902,0.358,1.537-0.474,2.398
		c-2.527-0.194-5.434,1.252-8.143-0.792C85.691,91.14,86.663,90.442,87.636,89.745z"/>
	<path fill="#98C6CC" d="M43.985,92.661c4.136-1.983,8.458-0.865,12.71-0.694c0.755,0.03,0.603,1.002,0.61,1.633
		C52.78,94.489,48.419,93.064,43.985,92.661z"/>
	<path fill="#DD7A5C" d="M55.555,10.881c-0.029,0.475-0.058,0.95-0.121,1.98c-3.848-0.309-7.71,1.172-11.465-0.902
		C47.852,11.84,51.602,10.266,55.555,10.881z"/>
	<path fill="#5D636C" d="M94.716,81.886c1.552,0.116,3.204-0.531,4.575,0.514c0.326,0.707,0.338,1.307-0.246,2.139
		c-1.954,0.663-4.21,0.166-6.416,0.277C93.325,83.839,94.021,82.862,94.716,81.886z"/>
	<path fill="#48505A" d="M149.347,30.519c1.219,1.749,0.079,3.64-1.274,4.107c-1.126,0.366-3.147-0.301-3.386-2.172
		C144.582,30.112,147.214,28.742,149.347,30.519z"/>
	<path fill="#CA735A" d="M95.582,45.666c-0.788,0-1.576,0-2.373,0c-0.989-1.897-0.582-2.871,1.477-2.975
		C95.838,43.426,95.613,44.575,95.582,45.666z"/>
	<path fill="#A8DCE1" d="M20.679,28.835c0.771,0.026,1.588-0.088,2.217,0.865c-0.379,2.45-1.674,2.405-3.449,1.1
		C19.858,30.145,20.268,29.49,20.679,28.835z"/>
	<path fill="#A1D2D7" d="M60.02,93.607c-0.038-0.487-0.076-0.974-0.13-1.672c1.924-0.15,3.817-0.902,5.477,0.737
		c-0.905,0.125-1.809,0.251-2.714,0.376c-0.723,0.285-1.532,0.27-2.232,0.638L60.02,93.607z"/>
	<path fill="#E0E2E3" d="M31.657,17.709c0.909,0.074,2.059-0.182,1.849,1.725c-1.247,0.531-2.54,1.6-3.662-0.545
		C30.448,18.496,31.052,18.102,31.657,17.709z"/>
	<path fill="#353F49" d="M95.833,49.673c1.262,1.094,1.266,2.178-0.028,3.25l-0.269-0.245c-0.765-0.998-0.646-1.953,0.14-2.876
		L95.833,49.673z"/>
	<path fill="#353F49" d="M60.42,93.686c0.609-0.686,1.383-0.792,2.232-0.638C62.111,93.972,61.271,93.846,60.42,93.686z"/>
	<path fill="#98D5DB" d="M38.463,223.932c2.005-0.048,2.315,0.814,1.951,2.149c-0.632,0.719-1.359,0.779-2.211,0.356
		C37.427,225.592,37.522,224.778,38.463,223.932z"/>
	<path fill="#9ED8DD" d="M16.826,224.276c2.06-0.735,3.129-0.246,3.641,1.467C17.737,226.821,17.737,226.821,16.826,224.276z"/>
	<path fill="#F4825F" d="M353.625,158.818c8.823,9.283,7.584,25.379-1.038,34.05c-8.972,9.024-25.301,9.451-34.077,1.012
		c-6.374-15.075,0.486-31.087,14.241-35.929C339.787,155.476,346.784,155.714,353.625,158.818z"/>
	<path fill="#EC6D47" d="M353.625,158.818c-0.931,1.699-1.931,0.327-2.911,0.069c-6.518-1.716-13.024-2.049-19.232,1
		c-9.062,4.45-13.933,11.683-13.851,21.964c0.029,3.599-0.491,7.274,1.741,10.54c0.436,0.638-0.232,1.183-0.863,1.49
		c-11.425-9.238-11.21-26.698-1.128-36.557C327.152,147.771,344.158,147.474,353.625,158.818z"/>
	<path fill="#323D46" d="M314.566,275.161c-0.295,2.765-1.706,3.925-3.839,4.42c-2.377-0.442-4.121-1.585-3.971-4.208
		c0.116-2.02,1.412-3.394,3.48-3.569C312.891,271.58,313.969,273.363,314.566,275.161z"/>
	<path fill="#FD9877" d="M184.79,104.418c0-5.879,0-11.348,0-17.053c4.147-1.095,8.29-0.396,12.372-0.527
		c3.958-0.127,7.923-0.027,12.136-0.027c0.681,6.024,0.224,11.621,0.346,17.607C201.342,104.418,193.305,104.418,184.79,104.418z"/>
	<path fill="#FD9877" d="M156.087,86.978c7.906,0,15.375,0,23.203,0c0,5.867,0,11.574,0,17.56c-7.733,0-15.322,0-23.203,0
		C156.087,98.647,156.087,92.825,156.087,86.978z"/>
	<path fill="#FB9473" d="M155.943,131.138c-0.412-1.338-0.459-2.605,0.429-3.461c1.561-1.251,3.185-1.086,4.553-0.807
		c6.552,1.336,13.12-0.853,19.57,0.051c7.256,1.017,14.39-0.51,21.583-0.142c2.834,0.145,5.445,0.551,7.416,2.673
		c-0.36,1.891-1.499,2.348-2.95,2.345c-16.595-0.034-33.191-0.071-49.786-0.134C156.486,131.662,156.215,131.322,155.943,131.138z"
		/>
	<path fill="#FC9675" d="M185.439,79.597c-1.061-1.262-0.722-2.307-0.356-3.569c19.772,0,39.36,0,58.843,0
		c0.889,1.263,0.889,2.308,0,3.569C224.443,79.597,204.855,79.597,185.439,79.597z"/>
	<path fill="#EC704B" d="M218.803,60.566c-0.418-0.738-0.848-1.263-1.021-1.863c-0.229-0.791-0.176-1.628,0.531-2.622
		c8.357,0,16.911,0,25.63,0c1.14,1.49,0.907,2.906-0.68,4.485C235.254,60.566,227.041,60.566,218.803,60.566z"/>
	<path fill="#EC704B" d="M187.804,60.567c-0.415-0.738-0.844-1.264-1.016-1.864c-0.227-0.791-0.177-1.628,0.529-2.622
		c8.358,0,16.911,0,25.628,0c1.144,1.494,0.908,2.909-0.679,4.486C204.256,60.567,196.043,60.567,187.804,60.567z"/>
	<path fill="#EB704B" d="M182.593,57.656c-0.669,1.646-1.635,2.488-2.792,3.015c-7.85,0-15.605,0-23.513,0
		c-0.958-1.706-0.866-3.136,0.584-4.41C166.211,54.909,179.826,55.577,182.593,57.656z"/>
	<path fill="#FB9675" d="M209.819,110.377c-0.907,3.377-2.383,3.452-3.916,3.432c-0.661-0.009-1.322-0.002-1.983-0.002
		c-6.11,0-12.22,0-18.102,0c-1.42-0.997-1.166-2.131-0.724-3.936C193.117,109.945,201.297,109.309,209.819,110.377z"/>
	<path fill="#EA6E49" d="M178.694,109.799c1.152,1.35,0.931,2.313,0.589,3.646c-7.579,0-15.259,0-22.97,0
		c-0.83-1.014-0.818-2.057,0.166-3.646C163.686,109.799,171.195,109.799,178.694,109.799z"/>
	<path fill="#EA6D48" d="M156.18,140.53c-0.592-1.313-0.654-2.254,0.11-3.451c7.42,0,15.013,0,22.612,0
		c0.995,0.999,0.844,2.067,0.173,3.451C171.597,140.53,164.004,140.53,156.18,140.53z"/>
	<path fill="#FB9675" d="M179.15,76.066c0.577,1.394,0.516,2.331-0.001,3.491c-7.607,0-15.193,0-22.738,0
		c-0.98-1.097-0.869-2.15-0.121-3.491C163.766,76.066,171.354,76.066,179.15,76.066z"/>
	<path fill="#FC9776" d="M164.804,122.613c-2.897,0-5.696,0-8.31,0c-1.12-1.215-0.767-2.271-0.422-3.568c3.077,0,6.002,0,8.938,0
		C165.847,120.437,165.912,121.601,164.804,122.613z"/>
	<path fill="#5F656E" d="M85.044,135.497c-0.256-0.964-0.429-1.603,0.676-2.67c5.011,0,10.598,0,16.184,0c5.619,0,11.239,0,16.529,0
		c1.221,0.715,1.184,1.491,0.795,2.67C107.88,135.497,96.418,135.497,85.044,135.497z"/>
	<path fill="#60656E" d="M86.875,119.125c-0.442,1.305-0.536,2.102-0.748,2.135c-7.052,1.083-14.1,0.324-20.984,0.505
		c-0.328-1.291-0.469-1.933,0.237-2.64C72.277,119.125,79.329,119.125,86.875,119.125z"/>
	<path fill="#60656E" d="M111.279,141.121c0.249,0.987,0.388,1.63-0.293,2.332c-6.577,0-13.298,0-19.925,0
		c-0.251-0.979-0.391-1.62,0.316-2.332C97.936,141.121,104.654,141.121,111.279,141.121z"/>
	<path fill="#636871" d="M91.273,128.517c-0.516-0.891-0.605-1.505,0.102-2.417c6.297,0,12.888,0,19.535,0
		c0.806,0.551,0.762,1.304,0.22,2.417C104.688,128.517,98.097,128.517,91.273,128.517z"/>
	<path fill="#636871" d="M65.35,128.488c-0.634-0.768-0.588-1.391-0.153-2.358c6.073,0,12.335,0,18.805,0
		c0.694,0.413,0.641,1.195,0.254,2.358C78.115,128.488,71.853,128.488,65.35,128.488z"/>
	<path fill="#60666E" d="M97.09,89.969c5.375,0,10.504,0,15.604,0c0.922,0.538,0.921,1.314,0.535,2.499c-5.137,0-10.401,0-15.911,0
		C96.661,92.087,96.688,91.301,97.09,89.969z"/>
	<path fill="#5F646D" d="M82.27,133.125c0.285,1.002,0.413,1.632-0.323,2.452c-3.64,0-7.527,0-11.486,0
		c-0.778-0.487-0.789-1.247-0.348-2.461C74.095,132.645,78.236,132.643,82.27,133.125z"/>
	<path fill="#60656E" d="M77.386,143.513c-0.743-0.752-0.636-1.384-0.389-2.322c3.723-0.709,7.535-0.597,11.222-0.068
		c0.392,0.915,0.443,1.531-0.198,2.39C84.687,143.513,81.131,143.513,77.386,143.513z"/>
	<path fill="#5D636C" d="M112.216,81.899c0.312,1.337,0.429,1.971-0.414,2.715c-3.277,0-6.822,0-10.309,0
		c-0.899-0.629-0.835-1.377-0.342-2.439C104.693,81.515,108.374,81.893,112.216,81.899z"/>
	<path fill="#5D636C" d="M119.104,84.756c-0.296-1.295-0.446-1.93,0.389-2.692c2.937,0,6.152,0,9.33,0
		c0.884,0.589,0.854,1.338,0.405,2.398C126.007,85.243,122.654,84.75,119.104,84.756z"/>
	<path fill="#60666E" d="M126.046,89.899c0.54,1.113,0.644,1.722-0.096,2.642c-2.689,0.624-5.713,0.117-8.323,0.182
		c-0.976-0.893-0.858-1.527-0.659-2.417C120.02,89.289,123.158,89.954,126.046,89.899z"/>
	<path fill="#5E636C" d="M65.603,143.699c-0.928-0.918-0.794-1.548-0.589-2.419c2.726-0.822,5.522-0.66,8.205-0.122
		c0.389,0.879,0.435,1.489-0.186,2.359C70.73,144.059,68.158,143.747,65.603,143.699z"/>
	<path fill="#646972" d="M124.307,128.476c-2.998,0-5.693,0-8.281,0c-0.251-0.965-0.381-1.595,0.383-2.466
		c2.264-0.394,4.838-0.21,7.223-0.101C124.708,126.542,124.637,127.325,124.307,128.476z"/>
	<path fill="#5B616A" d="M72.015,113.701c-2.274,0-4.405,0-6.357,0c-1.002-0.731-1.018-1.473-0.451-2.539
		c2.097-0.685,4.384-0.265,6.457-0.235C72.701,111.675,72.695,112.419,72.015,113.701z"/>
	<path fill="#5F646D" d="M61.192,113.471c-1.879,0.673-3.915,0.377-5.72,0.222c-0.886-0.993-0.853-1.703-0.084-2.64
		c1.729,0,3.629,0,5.461,0C61.699,111.703,61.727,112.43,61.192,113.471z"/>
	<path fill="#FCFCFC" d="M36.06,50.044c8.957,0,17.834,0,26.656,0c0.451,1.662-0.115,2.482-1.606,2.489
		c-7.779,0.035-15.558,0.047-23.337,0.029C36.657,52.559,35.885,52.017,36.06,50.044z"/>
	<path fill="#A8DCE1" d="M24.964,29.067c7.799,0,15.483,0,23.075,0c0.672,1.274,0.524,2.396-0.714,2.417
		c-7.095,0.119-14.193,0.093-21.289,0.043C25.05,31.52,24.754,30.678,24.964,29.067z"/>
	<path fill="#DEDFE1" d="M60.275,80.313c-0.67-0.85-0.674-1.474-0.372-2.428c7.723,0,15.553,0,23.288,0
		c0.84,0.883,0.264,1.553,0.223,2.428C75.579,80.313,68.023,80.313,60.275,80.313z"/>
	<path fill="#E9EAEB" d="M67.472,36.053c0.107,0.933,0.258,1.594-0.551,2.384c-7.311,0-14.909,0-22.539,0
		c-0.881-0.515-0.743-1.327-0.515-2.384C51.716,36.053,59.611,36.053,67.472,36.053z"/>
	<path fill="#FCFCFC" d="M47.515,43.114c7.545,0,14.718,0,21.855,0c0.11,0.95,0.217,1.605-0.858,2.452
		c-6.563-0.222-13.597,0.672-20.603-0.563C47.738,44.973,47.713,44.115,47.515,43.114z"/>
	<path fill="#FBFBFB" d="M44.714,42.832c0.245,1.378,0.26,2.3-0.438,2.386c-6.6,0.82-13.23,0.255-19.848,0.271
		c-0.943,0.002-1.332-0.828-1.227-2.435c3.4-0.559,6.97-0.126,10.488-0.204C37.322,42.769,40.958,42.832,44.714,42.832z"/>
	<path fill="#A9DEE3" d="M67.527,52.581c-1.044-0.814-1.012-1.449-0.798-2.44c6.135,0,12.348,0,18.551,0
		c0.634,1.485,0.266,2.407-1.305,2.421C78.346,52.61,72.717,52.581,67.527,52.581z"/>
	<path fill="#FCFCFC" d="M54.946,71.627c-3.879,1.893-21.694,2.066-26.285,0.503c2.584-2.638,5.656-1.134,8.322-1.391
		c2.806-0.271,5.664-0.14,8.49-0.008C48.37,70.867,51.37,70.016,54.946,71.627z"/>
	<path fill="#FCFCFC" d="M38.14,38.486c-4.889,0-9.5,0-14.05,0c-0.828-0.556-1.128-1.249-0.767-2.376
		c4.816-0.694,9.738-0.056,14.274-0.311C38.992,36.58,38.581,37.349,38.14,38.486z"/>
	<path fill="#FBFBFB" d="M29.033,79.12c3.159-1.694,18.139-1.897,22.808-0.762c-1.444,1.869-1.446,1.967-11.223,1.767
		C36.761,80.046,32.791,80.833,29.033,79.12z"/>
	<path fill="#FCFCFC" d="M84.491,42.783c0.121,1.173,0.264,1.826-0.285,2.388c-8.298,1.174-11.688,0.735-13.241-1.935
		C75.568,42.366,80.059,43.041,84.491,42.783z"/>
	<path fill="#F8F8F8" d="M22.333,50.45c4.184-1.037,7.524-0.472,10.704-0.616c0.869,1.648,0.492,2.817-0.954,2.649
		C29.087,52.135,25.524,54.016,22.333,50.45z"/>
	<path fill="#AADEE3" d="M34.708,85.285c4.958-0.606,9.912-0.696,15.839-0.401C46.926,87.59,38.179,87.723,34.708,85.285z"/>
	<path fill="#D3775C" d="M16.809,66.688c0-0.815,0-1.63,0-2.433c4.247-0.821,4.892-0.81,8.635,0.132
		c0.136,0.649,0.238,1.293-0.814,2.283c-2.269,0-5.051,0-7.832,0L16.809,66.688z"/>
	<path fill="#FCFCFC" d="M49.471,18.699c-3.125,1.916-6.276,1.155-9.448,0.305C43.077,16.915,46.255,17.277,49.471,18.699z"/>
	<path fill="#EE805F" d="M37.408,64.847c-2.8,1.483-5.58,1.676-9.38-0.03C31.829,63.28,34.608,63.447,37.408,64.847z"/>
	<path fill="#FCFCFC" d="M95.676,49.802c0.616,0.991,0.219,1.932-0.14,2.876c-1.658,0-3.316,0-4.611,0
		c-1.265-0.68-1.256-1.477-1.069-2.403C91.708,49.343,93.734,50.027,95.676,49.802z"/>
	<path fill="#D1D3D6" d="M148.253,32.586c-0.203,0.541-1.297,0.76-1.623,0.143c-0.36-0.68,0.063-1.356,0.578-1.403
		C148.176,31.237,148.363,32.216,148.253,32.586z"/>
	<rect x="71.638" y="284.828" fill="#F48260" width="81.969" height="49.043"/>
	<rect x="3.051" y="202.965" fill="#90D1D7" width="50.999" height="48.838"/>
</g>
<rect x="61.307" y="224.269" fill="#FCFCFC" width="11.998" height="11.37"/>
<rect x="75.993" y="224.269" fill="#FCFCFC" width="11.998" height="11.37"/>
<rect x="90.678" y="224.269" fill="#FCFCFC" width="11.998" height="11.37"/>
<rect x="105.364" y="224.269" fill="#FCFCFC" width="11.998" height="11.37"/>
<rect x="120.049" y="224.269" fill="#FCFCFC" width="11.998" height="11.37"/>
<rect x="134.735" y="224.269" fill="#FCFCFC" width="11.998" height="11.37"/>
<rect x="149.239" y="224.269" fill="#FCFCFC" width="11.998" height="11.37"/>
<rect x="163.924" y="224.269" fill="#FCFCFC" width="11.998" height="11.37"/>
<rect x="178.61" y="224.269" fill="#FCFCFC" width="11.998" height="11.37"/>
<rect x="193.295" y="224.269" fill="#FCFCFC" width="11.998" height="11.37"/>
<rect x="207.981" y="224.269" fill="#FCFCFC" width="11.998" height="11.37"/>
<rect x="81.186" y="209.72" fill="#FCFCFC" width="11.998" height="11.37"/>
<rect x="95.871" y="209.72" fill="#FCFCFC" width="11.998" height="11.37"/>
<rect x="110.556" y="209.72" fill="#FCFCFC" width="11.998" height="11.37"/>
<rect x="125.242" y="209.72" fill="#FCFCFC" width="11.998" height="11.37"/>
<rect x="139.927" y="209.72" fill="#FCFCFC" width="11.998" height="11.37"/>
<rect x="154.613" y="209.72" fill="#FCFCFC" width="11.998" height="11.37"/>
<rect x="169.117" y="209.72" fill="#FCFCFC" width="11.998" height="11.37"/>
<rect x="183.802" y="209.72" fill="#FCFCFC" width="11.998" height="11.37"/>
<rect x="198.488" y="209.72" fill="#FCFCFC" width="11.998" height="11.37"/>
<rect x="213.173" y="209.72" fill="#FCFCFC" width="11.998" height="11.37"/>
<rect x="227.859" y="209.72" fill="#FCFCFC" width="11.998" height="11.37"/>
<rect x="65.844" y="209.72" fill="#FCFCFC" width="11.998" height="11.37"/>
<rect x="54.049" y="209.72" fill="#FCFCFC" width="8.626" height="11.37"/>
<rect x="78.924" y="195.28" fill="#FCFCFC" width="11.998" height="11.37"/>
<rect x="93.61" y="195.28" fill="#FCFCFC" width="11.998" height="11.37"/>
<rect x="108.295" y="195.28" fill="#FCFCFC" width="11.998" height="11.37"/>
<rect x="122.981" y="195.28" fill="#FCFCFC" width="11.998" height="11.37"/>
<rect x="137.666" y="195.28" fill="#FCFCFC" width="11.998" height="11.37"/>
<rect x="152.352" y="195.28" fill="#FCFCFC" width="11.998" height="11.37"/>
<rect x="166.856" y="195.28" fill="#FCFCFC" width="11.998" height="11.37"/>
<rect x="181.541" y="195.28" fill="#FCFCFC" width="11.998" height="11.37"/>
<rect x="196.227" y="195.28" fill="#FCFCFC" width="11.998" height="11.37"/>
<rect x="210.912" y="195.28" fill="#FCFCFC" width="11.998" height="11.37"/>
<rect x="225.598" y="195.28" fill="#FCFCFC" width="11.998" height="11.37"/>
<rect x="63.583" y="195.28" fill="#FCFCFC" width="11.998" height="11.37"/>
<polygon fill="#FCFCFC" points="41.067,195.28 60.414,195.28 60.414,206.65 54.049,206.65 54.049,202.965 41.067,202.965 "/>
<rect x="71.301" y="180.133" fill="#FCFCFC" width="11.998" height="11.37"/>
<rect x="85.987" y="180.133" fill="#FCFCFC" width="11.998" height="11.37"/>
<rect x="100.672" y="180.133" fill="#FCFCFC" width="11.998" height="11.37"/>
<rect x="115.358" y="180.133" fill="#FCFCFC" width="11.998" height="11.37"/>
<rect x="130.043" y="180.133" fill="#FCFCFC" width="11.998" height="11.37"/>
<rect x="144.729" y="180.133" fill="#FCFCFC" width="11.998" height="11.37"/>
<rect x="159.233" y="180.133" fill="#FCFCFC" width="11.998" height="11.37"/>
<rect x="173.918" y="180.133" fill="#FCFCFC" width="11.998" height="11.37"/>
<rect x="188.604" y="180.133" fill="#FCFCFC" width="11.998" height="11.37"/>
<rect x="203.289" y="180.133" fill="#FCFCFC" width="11.998" height="11.37"/>
<rect x="217.975" y="180.133" fill="#FCFCFC" width="11.998" height="11.37"/>
<rect x="56.147" y="180.133" fill="#FCFCFC" width="11.998" height="11.37"/>
<rect x="41.067" y="180.133" fill="#FCFCFC" width="11.998" height="11.37"/>
<polygon fill="#FCFCFC" points="193.982,251.493 178.08,251.493 178.08,238.495 193.926,238.495 "/>
<rect x="196.456" y="238.495" fill="#FCFCFC" width="11.998" height="12.998"/>
<rect x="72.218" y="238.495" fill="#FCFCFC" width="11.998" height="12.998"/>
<rect x="57.78" y="238.495" fill="#FCFCFC" width="11.998" height="12.998"/>
<path fill="#FDFDFD" d="M223.298,250.371c0,0.552-0.448,1-1,1h-10.313c-0.552,0-1-0.448-1-1v-3.75c0-0.552,0.448-1,1-1h10.313
	c0.552,0,1,0.448,1,1V250.371z"/>
<path fill="#FDFDFD" d="M237.919,250.371c0,0.552-0.448,1-1,1h-10.313c-0.552,0-1-0.448-1-1v-3.75c0-0.552,0.448-1,1-1h10.313
	c0.552,0,1,0.448,1,1V250.371z"/>
<path fill="#FDFDFD" d="M252.392,250.371c0,0.552-0.448,1-1,1H241.08c-0.552,0-1-0.448-1-1v-3.75c0-0.552,0.448-1,1-1h10.313
	c0.552,0,1,0.448,1,1V250.371z"/>
<path fill="#FDFDFD" d="M237.919,242.434c0,0.552-0.448,1-1,1h-10.313c-0.552,0-1-0.448-1-1v-3.75c0-0.552,0.448-1,1-1h10.313
	c0.552,0,1,0.448,1,1V242.434z"/>
<text transform="matrix(1 0 0 1 89.83 316.7447)" fill="#FFFFFF" font-family="'HelveticaNeue-Bold'" font-size="16">HTML</text>
<text transform="matrix(1 0 0 1 12.33 234.6394)" fill="#FFFFFF" font-family="'HelveticaNeue-Bold'" font-size="16">CSS</text>
<text transform="matrix(1 0 0 1 368.7085 272.9727)" fill="#FFFFFF" font-family="'HelveticaNeue-Bold'" font-size="16">JS</text>
<text transform="matrix(1 0 0 1 228.8585 129.235)" fill="#FFFFFF" font-family="'HelveticaNeue-Bold'" font-size="16">jQuery</text>
</svg>
