<?xml version="1.0" encoding="utf-8"?>
<!-- Generator: Adobe Illustrator 16.0.0, SVG Export Plug-In . SVG Version: 6.00 Build 0)  -->
<!DOCTYPE svg PUBLIC "-//W3C//DTD SVG 1.1//EN" "http://www.w3.org/Graphics/SVG/1.1/DTD/svg11.dtd">
<svg version="1.1" id="Layer_1" xmlns="http://www.w3.org/2000/svg" xmlns:xlink="http://www.w3.org/1999/xlink" x="0px" y="0px"
	 width="413.354px" height="357.735px" viewBox="0 0 413.354 357.735" enable-background="new 0 0 413.354 357.735"
	 xml:space="preserve">
<g>
	<path fill="#474F59" d="M379.283,229.611c-1.649-0.007-3.299-0.014-4.949-0.021c-0.26-0.956,0.424-2.391-1.263-2.634
		c-1.114,0.656-0.689,1.742-0.867,2.641c-1.659,0.01-3.319,0.019-4.979,0.028c-0.092-1.868,0.448-3.796-0.522-5.849
		c-1.042,2.042-0.44,3.986-0.588,5.852c-1.143,0.098-2.285,0.196-3.335,0.285c-1.026,1.514-0.592,3.054-0.595,4.508
		c-0.034,14.638-0.015,29.276-0.036,43.915c-0.003,1.823-0.154,3.647-0.236,5.472c-0.261,0.014-0.486-0.068-0.677-0.247
		c0.002-16.296,0.033-32.593-0.037-48.89c-0.008-1.687,0.887-3.705-1.078-5.025c0.087-0.903,0.433-1.841-0.352-2.628
		c-0.789,0.785-0.438,1.725-0.354,2.627c-1.765-0.005-3.53-0.01-5.295-0.015c-0.131-1.926,0.904-4.094-1.11-6.088
		c-1.184,2.259-0.677,4.212-0.632,6.118c-1.751-0.007-3.503-0.014-5.254-0.021c0.028-0.873,0.526-1.836-0.475-2.523
		c-0.703,0.817-0.422,1.765-0.377,2.679l0.051-0.085c-1.902-0.321-3.939,0.525-5.699-0.543c-0.743-1.644,0.294-3.503-0.928-5.267
		c-0.872,1.967,0.137,3.928-0.974,5.667c-1.44,0-2.903,0-4.366,0c-0.31-0.943,0.335-2.387-1.426-2.64
		c-0.896,0.668-0.649,1.691-0.768,2.597c-1.586,0.043-3.171,0.085-4.756,0.128c-0.428-1.788,0.336-3.766-0.808-5.912
		c-0.963,2.176-0.37,4.032-0.625,5.799c-1.814,0.119-3.634,0.368-5.44-0.12c-0.272-0.721-0.531-1.406-0.775-2.055
		c-0.616,0.6-0.069,1.7-1.412,2.307c-1.352-0.372-3.24,0.711-4.719-0.802c-0.945-1.328,0.448-3.071-0.935-4.427
		c-0.507,1.671,0.27,3.423-0.816,5.216c-1.792-0.411-4.188,1.394-5.362-1.975c0.389,2.027-1.103,1.885-2.17,2.224
		c-1.319-0.127-2.64-0.254-3.959-0.381c0.023-13.483,0.047-26.966,0.07-40.449c2.939-0.113,5.879-0.226,8.818-0.338
		c12.341,0.545,24.682,0.525,37.022,0.008c4.913,0,9.825,0,14.948,0c0-13.139,0-25.451,0-37.764c0.256-0.102,0.52-0.138,0.794-0.107
		c0,12.532,0,25.064,0,37.89c12.612,0,24.498,0,36.385,0c4.738,0.811,9.565-0.17,14.589,0.529c0,13.374,0,26.577,0,39.99
		c-1.713,0.786-3.477,0.267-5.05,0.393c-1.452-1.819-0.106-3.85-1.223-5.629c-1.143,1.627-0.057,3.536-0.931,5.198
		c-1.053,0.869-2.48,0.185-3.714,0.562c-0.587-0.065-1.173-0.132-1.76-0.198c-0.283-0.776,0.439-1.859-0.972-2.598
		c-0.056,1.007-0.099,1.801-0.143,2.595c-1.632-0.002-3.264-0.004-4.896-0.006c-0.433-1.86,0.73-4.096-2.115-5.648
		c0,1.885,0,3.769,0,5.653c-1.649,0.006-3.299,0.013-4.948,0.019c-0.23-0.795,0.488-1.85-0.604-2.479
		c-0.624,0.813-0.32,1.674-0.409,2.476c-1.956-0.001-3.913-0.003-5.87-0.005c-0.146-1.866,0.438-3.806-0.562-5.852
		C378.854,225.815,379.412,227.746,379.283,229.611z M301.543,190.033c0,13.094,0,25.632,0,38.054
		c1.339,0.771,2.381,0.869,3.463-0.138c1.325-12.446,2.658-24.957,4.01-37.65C306.652,189.401,304.267,189.753,301.543,190.033z"/>
	<path fill="#474F59" d="M18.257,229.604c-2.038-0.164-4.772,1.299-5.346-2.36c-0.749,0.987-0.612,2.772-2.474,2.6
		c-1.15-0.092-2.3-0.184-3.411-0.272c-1.37-1.607-0.036-3.647-1.079-5.429c-1.171,1.585-0.206,3.394-0.882,5.082
		c-1.579,0.97-3.379,0.223-5.465,0.478c0-13.453,0-26.648,0-40.211c4.708-1.054,9.694,0.08,14.534-0.732
		c12.007,0.275,24.008,0.227,36.363,0.045c0-13.128,0-25.539,0-37.95c0.286-0.03,0.562,0.008,0.828,0.114
		c0,12.441,0,24.881,0,37.779c5.372,0,10.164,0,14.955,0c12.345,0.543,24.691,0.487,37.037,0.031
		c2.938,0.092,5.875,0.184,8.812,0.276c0.021,13.493,0.042,26.985,0.062,40.479c-1.327,0.143-2.653,0.285-3.98,0.428
		c-1.649,0.086-1.979-1.263-2.44-2.185c-0.839,3.171-3.422,1.537-5.304,1.777c-0.483-1.832,0.637-4.049-1.146-6.008
		c-1.539,2.166-0.582,4.246-1.142,6.066c-1.952-0.378-4.876,1.541-5.368-2.344c-0.274,0.766-0.525,1.47-0.816,2.285
		c-1.81,0-3.607,0-5.404,0c-0.313-1.758,0.469-3.699-1.049-6.198c-0.173,2.692-0.288,4.489-0.404,6.286
		c-1.574-0.04-3.149-0.079-4.724-0.118c-0.25-0.943,0.412-2.364-1.245-2.583c-1.111,0.658-0.735,1.748-0.96,2.632
		c-1.584-0.022-3.235,0.576-4.648-0.375c-0.804-1.616,0.346-3.461-0.905-4.949c-0.98,1.674,0.388,3.71-1.236,5.462
		c-1.593,0-3.384,0-5.174,0l0.056,0.088c0.034-0.916,0.303-1.865-0.437-2.741c-0.808,0.776-0.51,1.704-0.424,2.591
		c-1.758-0.001-3.517-0.003-5.275-0.004c-0.006-1.94,0.834-4.038-0.928-6.198c-1.369,2.319-0.803,4.278-0.771,6.177
		c-1.764,0.013-3.527,0.025-5.291,0.038c0.075-0.898,0.38-1.829-0.411-2.653c-0.634,0.836-0.444,1.751-0.335,2.653
		c-1.949,1.331-1.051,3.347-1.059,5.033c-0.071,16.295-0.041,32.59-0.039,48.885c-0.194,0.182-0.424,0.263-0.689,0.243
		c-0.076-13.298-0.157-26.596-0.223-39.894c-0.022-4.474-0.003-8.947-0.003-13.16c-1.285-1.476-2.733-0.854-3.967-1.136
		c-0.139-1.868,0.453-3.811-0.719-6.139c-0.66,2.349-0.36,4.255-0.401,6.128c-1.652-0.009-3.304-0.019-4.956-0.027
		c-0.26-0.958,0.426-2.394-1.341-2.653c-0.949,0.692-0.652,1.742-0.796,2.652c-1.636,0.008-3.272,0.016-4.909,0.022
		c-0.229-1.789,0.394-3.695-1.176-5.384c0,1.797,0,3.594,0,5.391c-1.945,0.001-3.891,0.002-5.835,0.003
		c-0.236-0.795,0.485-1.854-0.612-2.481c-0.623,0.812-0.315,1.675-0.409,2.477c-1.645-0.005-3.29-0.01-4.935-0.015
		c-0.423-1.867,0.747-4.104-1.187-6.046C17.77,225.726,18.568,227.746,18.257,229.604z M110.898,228.287c0-12.949,0-25.604,0-38.548
		c-2.657,0.184-4.938-0.34-7.49,0.513c1.422,12.745,2.831,25.362,4.22,37.811C108.731,228.912,109.67,228.745,110.898,228.287z
		 M19.059,213.845c2.757,0.102,4.933-1.766,5.039-4.324c0.09-2.167-2.554-4.781-4.823-4.769c-2.05,0.011-4.599,2.306-4.782,4.306
		C14.27,211.494,16.421,213.749,19.059,213.845z"/>
	<path fill="#E3E2E2" d="M112.193,229.532c-0.021-13.493-0.042-26.986-0.062-40.479c0.038-12.795,0.075-25.59,0.112-38.385
		c-0.017-6.263-0.034-12.526-0.05-18.79c0.003-13.102,0.007-26.203,0.01-39.304c-0.042-4.955-0.083-9.909-0.124-14.863
		c0.054-7.187,0.11-14.374,0.159-21.561c0.007-0.977,0.061-1.986-0.96-2.588c1.271-1.555,0.998-3.402,1.009-5.206
		c0.039-5.943,0.1-11.887,0.152-17.83c2.952,0.071,5.903,0.143,8.855,0.214c0,18.579,0,37.158,0,55.718
		c57.056,0,113.311,0,169.404,0c0.774-1.371,0.492-2.563,0.601-3.705c2.107,0.116,2.938-1.715,4.272-2.787
		c1.453-1.168,2.296-3.213,4.572-3.21c0.081,0.316,0.187,0.624,0.315,0.924c-0.097,2.024-0.193,4.049-0.289,6.073
		c-2.272-0.022-3.115,2.014-4.564,3.175c-1.33,1.065-2.143,2.899-4.232,2.824c-0.443-3.26-3.01-2.013-4.711-2.015
		c-53.322-0.06-106.646-0.053-159.969-0.032c-1.619,0-3.305-0.353-5.339,0.658c0,21.305,0,42.752,0,64.199
		c0,38.218,0,76.437,0,114.852c56.842,0,113.16,0,169.693,0c0.094-1.745,0.173-3.215,0.251-4.684
		c2.125,0.111,2.961-1.737,4.304-2.821c1.462-1.18,2.325-3.241,4.639-3.178c0.31,1.332-0.702,3.001,1.014,3.975
		c-0.001,1.008-0.003,2.017-0.004,3.024c-2.435-0.242-3.991,0.799-4.798,3.049c1.232,1.556,2.888,0.653,4.197,1.132
		c-1.296,1.131-2.864,0.644-4.308,0.644c-59.907,0.025-119.815,0.025-179.723,0.006c-1.793,0-3.688,0.434-5.314-0.792
		c0.01-2.027,0.02-4.056,0.029-6.084c1.32-0.708,0.946-1.972,0.945-3.064C112.269,248.925,112.226,239.228,112.193,229.532z"/>
	<path fill="#F38360" d="M121.294,30.742c-2.952-0.071-5.903-0.143-8.855-0.214c-0.489-3.906-0.206-7.821-0.115-11.733
		c62.655-0.015,125.311-0.03,187.966-0.046c-0.045,3.932-0.09,7.864-0.135,11.796c-2.964,0.071-5.927,0.143-8.891,0.214
		c-1.161-0.037-2.322-0.104-3.483-0.105c-31.737-0.018-63.474-0.049-95.21-0.035C168.812,30.629,145.053,30.699,121.294,30.742z
		 M121.657,24.032c0.011,0.511,0.022,1.023,0.033,1.534c12.687,0,25.374,0.005,38.061-0.011c0.832-0.001,1.669-0.154,1.938-1.523
		C148.296,24.032,134.977,24.032,121.657,24.032z M256.521,23.013c-5.875,0-11.882,0-17.938,0c-0.129,1.498-0.527,2.661,0.441,3.3
		c6.163,0,12.052,0,18.048,0C257.016,25.004,257.489,24.015,256.521,23.013z M260.699,26.344c5.938,0,11.626,0,17.438,0
		c-0.009-1.421,0.566-2.586-0.546-3.377c-5.814,0-11.512,0-17.07,0C260.017,24.252,259.938,25.19,260.699,26.344z M290.788,22.793
		c-3.24-0.083-6.296-0.522-9.255,0.335c-0.333,1.354-0.604,2.478,0.745,3.456c2.74,0.034,5.66,0.355,8.347-0.131
		C291.435,25.242,291.305,24.302,290.788,22.793z M195.095,24.309c4.371,1.837,8.416,1.706,11.065-0.282
		C202.474,23.651,199.038,23.395,195.095,24.309z M190.987,24.637c-5.549-1.337-8.001-1.161-10.598,0.527
		C184.135,25.696,187.564,25.919,190.987,24.637z"/>
	<path fill="#E2E2E1" d="M300.29,18.749c-62.655,0.016-125.311,0.031-187.966,0.046c-0.183-3.531,0.382-7.099-0.938-10.575
		c-0.414-1.089-0.474-2.607,0.768-3.589l0.19,0.093c0.043,1.278-0.427,2.631,0.527,3.837c5.077,0,10.122,0,15.417,0
		c0-1.481,0-2.629,0-3.778c13.001-0.001,26.002-0.002,39.003-0.003c0.22,1.578-0.547,3.319,1.02,5.033
		c6.122-1.001,12.449-1.188,18.878-0.731c6.333,0.451,12.743-0.183,19.12-0.34c31.303-0.013,62.606-0.025,93.909-0.037
		C300.242,12.053,300.267,15.401,300.29,18.749z M283.62,12.165c-1.183-0.72-2.549-0.388-3.844-0.389
		c-48.66-0.02-97.32-0.017-145.98-0.015c-1,0-2.017-0.085-2.994,0.071c-2.028,0.324-2.797,1.476-2.103,3.561
		c51.854,0,103.57,0,155.213,0C284.195,14.048,284.496,13.07,283.62,12.165z"/>
	<path fill="#90D1D7" d="M167.292,4.78c-13.001,0.001-26.002,0.002-39.003,0.003c-5.314-0.02-10.629-0.04-15.944-0.06l-0.19-0.093
		c0.315-1.438-0.244-2.994,0.712-4.631c62.129,0,124.384,0,186.893,0c1.117,2.797,0.326,5.789,0.459,8.705
		c-31.303,0.012-62.606,0.024-93.909,0.037c-0.202-1.246,0.417-2.674-1.087-3.962C192.76,4.78,180.026,4.78,167.292,4.78z"/>
	<path fill="#232E38" d="M50.352,106.757c0.651-5.805,0.173-11.627,0.273-17.44c0.028-1.662-0.079-3.341,0.12-4.983
		c0.55-4.541,2.891-6.585,7.711-6.678c6.315-0.122,12.632-0.121,18.949-0.172c4.633,0.104,9.266,0.207,13.898,0.311
		c-0.527,5.012,1.678,9.84,1.005,14.862c-7.292,0.062-14.586,0.07-21.876,0.233c-1.303,0.029-2.985-0.883-3.924,0.926
		c-0.079,12.607-0.159,25.215-0.238,37.822c-4.994,0.011-9.989,0.022-14.983,0.034c-1.083-1.635-0.726-3.479-0.746-5.261
		C50.466,119.86,50.413,113.308,50.352,106.757z"/>
	<path fill="#232E38" d="M335.16,77.489c6.149,0.053,12.3,0.082,18.45,0.165c5.803,0.078,8.058,2.283,8.264,8.171
		c0.244,6.975-0.305,13.963,0.308,20.934c-0.056,6.054-0.073,12.108-0.188,18.161c-0.043,2.26,0.506,4.603-0.7,6.749
		c-4.995-0.013-9.99-0.026-14.984-0.039c-0.088-12.599-0.176-25.199-0.263-37.798c-0.922-1.835-2.612-0.905-3.906-0.936
		c-7.29-0.169-14.583-0.177-21.875-0.24c-0.505-5.014,1.688-9.847,1.005-14.874C325.899,77.686,330.529,77.587,335.16,77.489z"/>
	<path fill="#FDD47F" d="M346.309,131.63c4.994,0.013,9.989,0.026,14.984,0.039c5.674,0.014,11.348,0.029,17.022,0.043
		c0.635,0.021,1.27,0.042,1.904,0.062c0.059,1.335,0.117,2.67,0.176,4.005c-0.056,3.001-0.111,6.003-0.167,9.004
		c-21.954-0.02-43.909-0.039-65.863-0.059c-0.673-4.35,1.621-8.496,0.887-12.85l0.146-0.335
		C325.701,131.569,336.005,131.6,346.309,131.63z"/>
	<path fill="#E3E2E2" d="M301.26,53.558c-1.578,1.26-0.896,3.029-0.929,4.573c-0.13,6.208-0.136,12.417-0.188,18.626
		c-2.276-0.003-3.119,2.042-4.572,3.21c-1.334,1.072-2.165,2.903-4.272,2.787c-0.012-17.332-0.022-34.664-0.034-51.995
		c2.964-0.071,5.927-0.143,8.891-0.214c0.039,5.934,0.086,11.868,0.113,17.803C300.277,50.15,300.046,51.989,301.26,53.558z"/>
	<path fill="#F0EFEE" d="M380.22,131.774c0.059,1.335,0.176,4.005,0.176,4.005l-0.167,9.004l11.74,0.034l0.647-11.333v-1.637
		L380.22,131.774z"/>
	<path fill="#EC6D48" d="M391.969,144.816c0.224-0.075-0.141-0.133,0.092-0.172c1.959,0.031,3.927,0.198,5.875,0.068
		c4.651-0.31,8.571-3.377,9.231-7.282c0.27-1.591,0.093-3.258,0.118-4.891c0.648,0.094,2.382,1.31,3.194,2.185
		c1.519,1.713,3.072,2.942,2.853,6.714c-0.299,5.149-3.819,9.154-8.961,9.281c-4.293,0.106-8.592-0.083-12.889-0.14
		C391.447,148.658,392.004,146.737,391.969,144.816z"/>
	<path fill="#CECAC6" d="M391.969,144.816c0.035,1.921-0.486,5.762-0.486,5.762l-11.13,0.115l-0.124-5.911
		C380.229,144.783,388.744,144.816,391.969,144.816z"/>
	<path fill="#FDFDFD" d="M50.645,283.82c0.265,0.02,0.495-0.062,0.689-0.243c1.329,0.056,2.657,0.159,3.986,0.159
		c86.146,0.009,172.292,0.018,258.438,0.001c15.826-0.003,31.651-0.114,47.478-0.176c0.19,0.179,0.416,0.261,0.677,0.247
		c0.046,6.467,0.233,12.938,0.082,19.399c-0.085,3.648-1.247,6.9-5.579,7.634c-2.33-0.05-4.659-0.143-6.989-0.143
		c-73.777-0.008-147.556-0.02-221.333,0c-23.98,0.006-47.96,0.094-71.94,0.145c-4.552-0.856-5.54-4.311-5.604-8.132
		C50.443,296.417,50.6,290.117,50.645,283.82z"/>
	<path fill="#E4E3E3" d="M56.153,310.843c23.98-0.051,47.96-0.139,71.94-0.145c73.778-0.02,147.556-0.008,221.333,0
		c2.33,0,4.659,0.093,6.989,0.143c-1.75,1.463-3.829,0.748-5.742,0.751c-33.767,0.045-67.532,0.028-101.299,0.025
		c-1.139,0-2.278,0-4.197,0c1.47,13.925,2.897,27.458,4.326,40.992c-14.296,0-28.592,0-42.932,0
		c-3.239-3.282-28.368-29.391-28.368-29.391l-11.063-11.642c0,0-72.276,0.068-105.738,0.022
		C59.653,311.598,57.725,312.291,56.153,310.843z"/>
	<path fill="#F1F1F1" d="M262.353,352.729c-4.28-0.118-8.565-0.087-12.849-0.119c-14.296,0-28.592,0-42.932,0
		c-2.104-3.669-36.401-38.144-38.593-40.47c-0.297,0.328-0.113,2.096-0.54,2.567c-0.405,4.616-3.694,31.765-4.571,37.991
		c-4.313,0-8.448-0.071-12.578,0.021c-3.688,0.082-4.064,0.552-4.665,4.791c1.327,0.074,2.653,0.212,3.98,0.213
		c23.137,0.009,46.275,0.024,69.413-0.013c15.975-0.025,31.95-0.13,47.926-0.199C266.354,353.326,265.954,352.829,262.353,352.729z"
		/>
	<path fill="#ADAFB4" d="M18.257,229.604c0.311-1.858-0.487-3.878,0.918-6.046c1.934,1.942,0.764,4.179,1.187,6.046
		C19.66,229.604,18.958,229.604,18.257,229.604z"/>
	<path fill="#E3E4E5" d="M45.332,229.62c0.041-1.873-0.259-3.779,0.401-6.128c1.172,2.328,0.58,4.271,0.719,6.139
		C46.079,229.627,45.705,229.624,45.332,229.62z"/>
	<path fill="#E1E1E2" d="M32.153,229.621c0-1.797,0-3.594,0-5.391c1.57,1.688,0.948,3.595,1.176,5.384
		C32.938,229.616,32.545,229.618,32.153,229.621z"/>
	<path fill="#8B8F94" d="M38.238,229.591c0.144-0.91-0.153-1.96,0.796-2.652c1.768,0.26,1.081,1.695,1.341,2.653
		C39.664,229.591,38.951,229.591,38.238,229.591z"/>
	<path fill="#C9CACD" d="M25.297,229.619c0.094-0.802-0.214-1.665,0.409-2.477c1.097,0.627,0.375,1.687,0.612,2.481
		C25.978,229.622,25.637,229.621,25.297,229.619z"/>
	<path fill="#A8AAAE" d="M392.21,229.608c0-1.885,0-3.769,0-5.653c2.846,1.553,1.683,3.788,2.115,5.648
		C393.62,229.605,392.915,229.606,392.21,229.608z"/>
	<path fill="#EBECED" d="M379.283,229.611c0.129-1.865-0.43-3.796,0.533-5.845c1,2.046,0.417,3.985,0.562,5.852
		C380.014,229.616,379.648,229.613,379.283,229.611z"/>
	<path fill="#898C91" d="M372.204,229.597c0.178-0.898-0.247-1.984,0.867-2.641c1.687,0.243,1.003,1.678,1.263,2.634
		C373.624,229.592,372.914,229.595,372.204,229.597z"/>
	<path fill="#E0E1E3" d="M366.115,229.628c0.147-1.865-0.454-3.81,0.588-5.852c0.971,2.053,0.431,3.98,0.522,5.849
		C366.855,229.626,366.485,229.627,366.115,229.628z"/>
	<path fill="#C1C3C5" d="M399.222,229.609c0.044-0.794,0.087-1.588,0.143-2.595c1.411,0.738,0.688,1.821,0.972,2.598
		C399.965,229.611,399.594,229.61,399.222,229.609z"/>
	<path fill="#C6C7CA" d="M386.249,229.623c0.089-0.802-0.215-1.662,0.409-2.476c1.092,0.63,0.373,1.685,0.604,2.479
		C386.924,229.625,386.587,229.625,386.249,229.623z"/>
	<path fill="#232E38" d="M361.236,283.561c-15.826,0.062-31.651,0.173-47.478,0.176c-86.146,0.017-172.292,0.008-258.438-0.001
		c-1.329,0-2.658-0.104-3.986-0.159c-0.001-16.295-0.032-32.59,0.039-48.885c0.007-1.687-0.89-3.702,1.059-5.033l0.373,0.052
		l0.373-0.052c1.764-0.013,3.527-0.025,5.291-0.038c0.566,0.007,1.133,0.014,1.699,0.021c1.758,0.001,3.517,0.003,5.275,0.004
		c0.283,0.072,0.57,0.122,0.861,0.15l-0.056-0.088c0,12.727,0,25.453,0,38.062c15.503,0,30.281,0,45.058,0
		c1.626,1.226,3.521,0.792,5.314,0.792c59.907,0.02,119.815,0.02,179.723-0.006c1.443,0,3.012,0.487,4.308-0.644l0.327,0.107
		l0.279-0.202c14.882,0,29.765,0,45.066,0c0-12.916,0-25.512,0-38.107l-0.051,0.085c0.288-0.03,0.571-0.082,0.852-0.155
		c1.751,0.007,3.503,0.014,5.254,0.021c0.581-0.01,1.161-0.02,1.742-0.03c1.765,0.005,3.53,0.01,5.295,0.015l0.353,0.044
		l0.354-0.043c1.965,1.32,1.07,3.339,1.078,5.025C361.27,250.968,361.238,267.265,361.236,283.561z"/>
	<path fill="#FDFDFD" d="M346.323,229.71c0,12.596,0,25.191,0,38.107c-15.302,0-30.185,0-45.066,0
		c-0.002-1.362-0.004-2.724-0.006-4.086c0.001-1.008,0.003-2.017,0.004-3.024c1.13-10.257,2.578-20.481,3.09-30.8
		c1.067-0.339,2.559-0.196,2.17-2.224c1.174,3.368,3.57,1.563,5.362,1.975c1.086-1.793,0.31-3.545,0.816-5.216
		c1.383,1.355-0.011,3.099,0.935,4.427c1.479,1.513,3.367,0.43,4.719,0.802c1.343-0.606,0.796-1.707,1.412-2.307
		c0.244,0.648,0.503,1.334,0.775,2.055c1.807,0.488,3.626,0.239,5.44,0.12c0.478,0.038,0.955,0.075,1.433,0.113
		c1.585-0.043,3.17-0.085,4.756-0.128c0.731,0.014,1.463,0.028,2.193,0.043c1.463,0,2.926,0,4.366,0
		c1.11-1.739,0.102-3.7,0.974-5.667c1.222,1.764,0.185,3.623,0.928,5.267C342.384,230.236,344.421,229.389,346.323,229.71z"/>
	<path fill="#E3E2E2" d="M291.373,89.753c2.09,0.075,2.902-1.759,4.232-2.824c1.449-1.161,2.292-3.197,4.564-3.175
		c0.062,2.942,0.126,5.884,0.189,8.827c0.005,13.097,0.01,26.194,0.015,39.292c-0.014,6.266-0.027,12.531-0.041,18.797
		c0.041,12.803,0.082,25.606,0.123,38.409c-0.023,13.483-0.047,26.965-0.07,40.449c-0.048,9.068-0.096,18.137-0.145,27.206
		c-2.313-0.063-3.177,1.998-4.639,3.178c-1.343,1.084-2.179,2.933-4.304,2.821c-0.012-10.329-0.023-20.659-0.035-30.988
		c-0.007-2.006-0.013-4.011-0.02-6.017c-0.01-24.393-0.02-48.785-0.028-73.178C291.269,131.617,291.32,110.686,291.373,89.753z"/>
	<path fill="#FDFDFD" d="M346.297,188.748c-12.341,0.517-24.682,0.538-37.022-0.008c0.409-4.432,0.449-8.938,1.306-13.281
		c1.601-8.119,1.747-16.366,2.735-24.532c10.982-0.024,21.965-0.047,32.947-0.071C346.274,163.486,346.286,176.117,346.297,188.748z
		"/>
	<path fill="#242E38" d="M346.297,188.748c-0.011-12.631-0.022-25.261-0.034-37.892c4.996-0.137,9.992-0.319,14.982,0.128
		c0,12.312,0,24.625,0,37.764C356.122,188.748,351.21,188.748,346.297,188.748z"/>
	<path fill="#CBCAC9" d="M313.315,150.927c-0.988,8.166-1.135,16.413-2.735,24.532c-0.856,4.344-0.896,8.849-1.306,13.281
		c-2.939,0.113-5.879,0.226-8.818,0.338c-0.041-12.803-0.082-25.605-0.123-38.409l0.49,0.038l0.487-0.066
		c3.99,0.128,7.98,0.302,11.966-0.099L313.315,150.927z"/>
	<path fill="#FCB759" d="M361.245,150.984c-4.99-0.447-9.986-0.265-14.982-0.128c-10.982,0.023-21.965,0.047-32.947,0.071
		l-0.039-0.384c-0.331-2.034,1.44-3.72,0.956-5.779l0.133-0.04c21.954,0.02,43.909,0.039,65.863,0.059
		c0.041,1.97,0.082,3.94,0.124,5.911c-6.104,0.061-12.21,0.122-18.313,0.184C361.765,150.846,361.501,150.882,361.245,150.984z"/>
	<path fill="#3A3F47" d="M301.543,190.033c2.724-0.28,5.109-0.632,7.473,0.266c-1.352,12.693-2.685,25.204-4.01,37.65
		c-1.082,1.007-2.124,0.909-3.463,0.138C301.543,215.665,301.543,203.127,301.543,190.033z"/>
	<path fill="#CBCAC9" d="M300.241,256.733c0.049-9.069,0.097-18.138,0.145-27.206c1.319,0.127,2.64,0.254,3.959,0.381
		c-0.512,10.318-1.96,20.543-3.09,30.8C299.539,259.734,300.551,258.065,300.241,256.733z"/>
	<path fill="#A5A9AD" d="M354.12,229.63c-0.581,0.011-1.161,0.021-1.742,0.03c-0.045-1.906-0.552-3.859,0.632-6.118
		C355.024,225.537,353.989,227.705,354.12,229.63z"/>
	<path fill="#898E94" d="M334.356,229.568c-0.73-0.015-1.462-0.029-2.193-0.043c0.118-0.905-0.129-1.929,0.768-2.597
		C334.691,227.181,334.047,228.625,334.356,229.568z"/>
	<path fill="#D2D4D7" d="M327.407,229.653c-0.478-0.038-0.955-0.075-1.433-0.113c0.255-1.767-0.338-3.623,0.625-5.799
		C327.743,225.887,326.979,227.865,327.407,229.653z"/>
	<path fill="#B2B6BA" d="M347.124,229.64c-0.28,0.073-0.563,0.125-0.852,0.155c-0.045-0.914-0.326-1.861,0.377-2.679
		C347.65,227.804,347.152,228.767,347.124,229.64z"/>
	<path fill="#C9CBCE" d="M360.121,229.646l-0.354,0.043l-0.353-0.044c-0.083-0.902-0.435-1.842,0.354-2.627
		C360.554,227.805,360.208,228.743,360.121,229.646z"/>
	<path fill="#FDFDFD" d="M111.306,267.77c-14.777,0-29.555,0-45.058,0c0-12.608,0-25.335,0-38.062c1.791,0,3.581,0,5.174,0
		c1.624-1.752,0.256-3.788,1.236-5.462c1.25,1.488,0.101,3.333,0.905,4.949c1.413,0.951,3.063,0.353,4.648,0.375
		c0.735-0.017,1.47-0.032,2.205-0.049c1.575,0.039,3.149,0.078,4.724,0.118c0.484-0.029,0.969-0.059,1.453-0.088
		c1.797,0,3.594,0,5.404,0c0.291-0.815,0.542-1.52,0.816-2.285c0.492,3.885,3.417,1.966,5.368,2.344
		c0.763-0.02,1.525-0.039,2.288-0.059c1.882-0.24,4.465,1.394,5.304-1.777c0.461,0.922,0.791,2.271,2.44,2.185
		c0.07,6.727,1.204,13.35,1.837,20.019c0.371,3.911,1.414,7.751,1.286,11.708C111.326,263.714,111.316,265.743,111.306,267.77z"/>
	<path fill="#FDFDFD" d="M103.318,188.777c-12.346,0.456-24.692,0.512-37.037-0.031c0.01-12.631,0.021-25.261,0.031-37.891
		c10.982,0.024,21.965,0.049,32.948,0.073c0.021,1.331-0.073,2.675,0.082,3.99c0.884,7.518,1.845,15.027,2.743,22.543
		C102.535,181.229,102.909,185.005,103.318,188.777z"/>
	<path fill="#242E38" d="M66.312,150.855c-0.01,12.63-0.021,25.26-0.031,37.891c-4.791,0-9.583,0-14.955,0
		c0-12.897,0-25.338,0-37.779C56.318,150.526,61.315,150.761,66.312,150.855z"/>
	<path fill="#CBCAC9" d="M103.318,188.777c-0.409-3.772-0.783-7.548-1.233-11.315c-0.898-7.516-1.859-15.025-2.743-22.543
		c-0.155-1.315-0.061-2.659-0.082-3.99l0.037-0.384c3.99,0.033,7.979,0.067,11.969,0.101l0.487,0.062l0.49-0.039
		c-0.038,12.795-0.075,25.59-0.112,38.385C109.193,188.961,106.255,188.869,103.318,188.777z"/>
	<path fill="#FCB759" d="M66.312,150.855c-4.996-0.095-9.993-0.33-14.985,0.112c-0.267-0.106-0.542-0.144-0.828-0.114
		c-6.748-0.057-13.496-0.113-20.243-0.169c-0.003-1.989-0.006-3.979-0.009-5.968l0.15,0.056c22.61-0.016,45.22-0.032,67.83-0.048
		l0.128,0.038c-0.486,2.058,1.272,3.75,0.942,5.783l-0.037,0.384C88.277,150.904,77.294,150.88,66.312,150.855z"/>
	<path fill="#3C424A" d="M110.898,228.287c-1.228,0.458-2.167,0.625-3.271-0.225c-1.389-12.448-2.797-25.066-4.22-37.811
		c2.552-0.853,4.833-0.329,7.49-0.513C110.898,202.683,110.898,215.337,110.898,228.287z"/>
	<path fill="#CDCCCB" d="M111.335,261.686c0.128-3.957-0.916-7.797-1.286-11.708c-0.633-6.669-1.767-13.292-1.837-20.019
		c1.327-0.143,2.654-0.285,3.98-0.428c0.033,9.696,0.076,19.394,0.087,29.09C112.282,259.714,112.656,260.978,111.335,261.686z"/>
	<path fill="#ADB0B5" d="M100.469,229.552c-0.763,0.02-1.525,0.039-2.288,0.059c0.56-1.82-0.397-3.9,1.142-6.066
		C101.105,225.503,99.986,227.72,100.469,229.552z"/>
	<path fill="#AAAEB3" d="M60.168,229.642c-0.566-0.008-1.133-0.015-1.699-0.021c-0.032-1.898-0.598-3.857,0.771-6.177
		C61.002,225.604,60.162,227.702,60.168,229.642z"/>
	<path fill="#8C9197" d="M80.416,229.522c-0.735,0.017-1.47,0.032-2.205,0.049c0.225-0.884-0.151-1.974,0.96-2.632
		C80.828,227.158,80.166,228.579,80.416,229.522z"/>
	<path fill="#D5D7D9" d="M86.593,229.552c-0.484,0.029-0.969,0.059-1.453,0.088c0.116-1.797,0.231-3.594,0.404-6.286
		C87.062,225.853,86.28,227.794,86.593,229.552z"/>
	<path fill="#B5B8BD" d="M66.304,229.796c-0.291-0.028-0.578-0.078-0.861-0.15c-0.085-0.887-0.384-1.814,0.424-2.591
		C66.607,227.931,66.338,228.88,66.304,229.796z"/>
	<path fill="#C4C6C8" d="M53.178,229.659l-0.373,0.052l-0.373-0.052c-0.109-0.902-0.299-1.817,0.335-2.653
		C53.558,227.83,53.253,228.76,53.178,229.659z"/>
	<path fill="#FDFDFD" d="M291.216,152.549c0.009,24.393,0.019,48.786,0.028,73.178c-3.045,2.332-5.788,4.962-8.014,8.103
		c-13.635-0.034-27.27-0.09-40.903-0.027c-0.569,0.002-2.402-1.314-2.063,1.005c0.188,1.146-0.643,1.943-0.995,2.904
		c0.993,1.748,2.671,0.993,4.05,0.999c12.996,0.053,25.992,0.034,38.988,0.035c1.805-0.873,2.83-2.621,4.317-3.847
		c1.447-1.192,2.318-3.245,4.64-3.155c0.012,10.329,0.023,20.659,0.035,30.988c-0.078,1.469-0.157,2.938-0.251,4.684
		c-56.533,0-112.852,0-169.693,0c0-38.415,0-76.633,0-114.852c1.331,0.042,2.662,0.119,3.992,0.119
		c33.808,0.007,67.615,0.022,101.423-0.001C248.252,152.668,269.733,152.596,291.216,152.549z M271.463,251.886
		c-10.568,0-21.137,0-31.673,0c-0.627,1.732-0.651,3.12-0.048,4.741c10.615,0,21.186,0,31.757,0c3.767,0.104,7.54,0.396,11.209-0.15
		c0.556-1.777,0.817-3.188-0.398-4.591C278.732,251.886,275.098,251.886,271.463,251.886z M228.07,251.989
		c0-8.932,0-17.863,0-26.852c-14.789,0-29.148,0-43.543,0c0,9.244,0,18.057,0,26.869c-0.029,1.455-0.404,2.938,0.364,4.556
		c14.243,0,28.496,0,42.732,0C228.406,254.94,228.003,253.441,228.07,251.989z M227.828,190.26c0-9.199,0-17.731,0-26.212
		c-14.616,0-28.83,0-43.066,0c0,8.862,0,17.389,0,26.212C199.266,190.26,213.348,190.26,227.828,190.26z M129.691,189.968
		c6.652,0.943,40.888,0.498,43.369-0.522c0-8.358,0-16.77,0-25.356c-14.584,0-28.92,0-43.369,0
		C129.691,172.871,129.691,181.28,129.691,189.968z M239.467,190.145c14.479,0.282,28.616,0.621,42.709-0.402
		c0.913-8.938,1.389-17.301-0.106-25.716c-14.294,0-28.348,0-42.603,0C239.467,172.607,239.467,180.878,239.467,190.145z
		 M129.728,240.79c6.023-0.014,11.458,0.3,17.159-0.263c0.335-5.291,0.548-10.342-0.118-15.847
		c-5.793,0.31-11.355-0.445-17.041,0.424C129.728,230.338,129.728,235.261,129.728,240.79z M282.663,200.583
		c0.769-3.683-1.24-3.66-3.427-3.655c-12.473,0.028-24.946,0.002-37.421-0.002c-0.824,0-1.675-0.057-2.318,0.716
		c-0.165,0.895-0.545,1.856,0.359,2.941C253.957,200.583,268.191,200.583,282.663,200.583z M172.775,196.961
		c-13.563,0-26.986,0.005-40.409-0.004c-2.53-0.001-3.078,1.234-2.379,3.626c14.366,0,28.581,0,43.064,0
		C173.248,199.493,173.378,198.574,172.775,196.961z M184.922,200.488c14.292,0,28.66,0,42.94,0
		c0.844-3.352-1.043-3.587-3.294-3.578c-12.788,0.048-25.577,0.059-38.365,0.114c-0.454,0.002-0.907,0.33-1.297,0.481
		C184.366,198.503,184.198,199.415,184.922,200.488z M228.78,204.715c-5.805-1.487-40.85-1.252-44.053,0.048
		C188.032,206.047,223.359,206.22,228.78,204.715z M173.383,249.355c-0.892-1.553-1.532-1.639-2.2-1.626
		c-13.73,0.268-27.471-0.525-41.194,0.431c-0.097,0.007-0.212,0.216-0.262,0.353c-0.23,0.625,0.552,0.132-0.543,0.843
		C144.108,249.355,158.495,249.355,173.383,249.355z M129.266,208.109c0.824,1.564,1.467,1.637,2.134,1.627
		c13.731-0.211,27.472,0.498,41.196-0.414c0.101-0.007,0.223-0.21,0.276-0.345c0.246-0.619-0.558-0.14,0.599-0.868
		C158.492,208.109,144.107,208.109,129.266,208.109z M238.777,204.599c4.861,1.544,40.179,1.514,43.771,0.258
		C279.469,203.517,245.382,203.148,238.777,204.599z M184.713,207.776c0.003,0.526,0.007,1.053,0.01,1.58
		c14.303,0,28.606,0,43.025,0c-0.398-1.254-1.168-1.565-2.014-1.566C212.062,207.77,198.388,207.776,184.713,207.776z
		 M238.78,208.583c4.834,1.554,40.142,1.531,43.767,0.271C279.437,207.5,245.513,207.125,238.78,208.583z M130.036,252.091
		c-0.039,0.328-0.077,0.655-0.116,0.983c4.697,1.349,9.605,0.465,14.399,0.634c4.799,0.17,9.612,0.114,14.415-0.015
		c4.73-0.127,9.548,0.615,14.205-0.442c-0.02-0.387-0.039-0.773-0.059-1.16C158.598,252.091,144.317,252.091,130.036,252.091z
		 M282.651,230.207c-8.703-1.347-40.511-0.751-43.82,1.367c14.769,0,28.666,0.009,42.564-0.026
		C282.084,231.545,282.533,230.938,282.651,230.207z M173.917,205.375c-1.272-1.105-1.511-1.494-1.75-1.495
		c-13.425-0.056-26.849-0.091-40.274-0.084c-0.952,0-1.973,0.258-1.878,1.579C144.327,205.375,158.61,205.375,173.917,205.375z
		 M239.697,241.509c-0.011,0.412-0.022,0.825-0.033,1.237c4.727,0,9.452,0.003,14.179,0c4.81-0.003,9.623,0.1,14.428-0.048
		c4.549-0.14,9.204,0.683,13.631-0.846C277.895,240.407,243.438,240.452,239.697,241.509z M239.557,224.929
		c-0.207,1.641-0.139,2.691,1.235,2.702c6.322,0.052,12.646,0.096,18.968-0.029c1.604-0.031,1.678-1.229,0.828-2.673
		C253.726,224.929,246.805,224.929,239.557,224.929z M173.058,227.448c0.178-1.507,0.185-2.607-1.189-2.625
		c-6.288-0.08-12.577-0.1-18.865-0.058c-1.547,0.011-1.919,1-1.257,2.683C158.655,227.448,165.681,227.448,173.058,227.448z
		 M151.708,230.089c5.089,2.276,18.618,1.959,21.776,0C165.815,230.089,158.762,230.089,151.708,230.089z M131.152,244.85
		c-0.061,0.179-0.122,0.356-0.182,0.535c13.813,0,27.625,0,41.438,0c-0.001-0.179-0.003-0.356-0.004-0.535
		C158.654,244.85,144.903,244.85,131.152,244.85z M196.718,212.064c5.019,2.371,16.879,2.012,19.448,0
		C209.453,212.064,203.085,212.064,196.718,212.064z M269.872,212.753c-3.335-1.418-14.555-1.44-18.167-0.037
		C255.174,214.155,266.309,214.177,269.872,212.753z M142.722,212.33c3.724,1.871,14.929,1.777,18.153-0.132
		C154.834,211.788,148.791,211.571,142.722,212.33z M156.626,256.474c-0.003-0.139-0.005-0.277-0.008-0.416
		c-8.49,0-16.98,0-25.471,0c0.002,0.139,0.005,0.277,0.008,0.416C139.646,256.474,148.136,256.474,156.626,256.474z M271.355,245.63
		c0.067-0.18,0.134-0.359,0.201-0.539c-6.804,0-13.607,0-20.41,0c0.003,0.18,0.007,0.359,0.011,0.539
		C257.891,245.63,264.623,245.63,271.355,245.63z M152.213,233.883c-0.07,0.17-0.14,0.339-0.209,0.508c3.812,0,7.625,0,11.438,0
		c-0.006-0.169-0.013-0.338-0.02-0.508C159.686,233.883,155.95,233.883,152.213,233.883z"/>
	<path fill="#FDC76D" d="M291.216,152.549c-21.482,0.047-42.964,0.119-64.446,0.133c-33.808,0.023-67.615,0.008-101.423,0.001
		c-1.331,0-2.662-0.078-3.992-0.119c0-21.447,0-42.894,0-64.199c2.034-1.011,3.72-0.658,5.339-0.658
		c53.323-0.021,106.646-0.028,159.969,0.032c1.701,0.002,4.268-1.245,4.711,2.015C291.32,110.686,291.269,131.617,291.216,152.549z
		 M146.75,100.253c0,13.492,0,26.341,0,39.131c13.266,0,26.142,0,39.017,0c0-13.173,0-26.022,0-39.131
		C172.625,100.253,159.886,100.253,146.75,100.253z M235.293,100.333c-14.453,0-29.143,0-43.882,0
		c-0.308,1.502-0.767,2.772,0.431,4.18c14.256,0,28.692,0,43.098,0C235.667,103.273,236.37,102.129,235.293,100.333z
		 M265.669,112.634c-2.262-1.223-3.95-0.87-5.562-0.871c-21.299-0.024-42.597-0.035-63.895,0.022
		c-1.57,0.004-3.554-0.825-4.845,1.27C196.561,114.191,261.509,113.982,265.669,112.634z M253.553,122.313
		c-1.448-1.851-2.508-1.595-3.458-1.583c-19.402,0.259-38.812-0.555-58.208,0.432c-0.085,0.004-0.192,0.221-0.235,0.355
		c-0.2,0.635,0.57,0.129-0.44,0.795C212.057,122.313,232.447,122.313,253.553,122.313z M265.566,117.489
		c-0.001-0.149-0.002-0.299-0.003-0.448c-24.53,0-49.062,0-73.592,0c0.001,0.149,0.001,0.299,0.002,0.448
		C216.505,117.489,241.035,117.489,265.566,117.489z M265.52,108.552c0-0.174,0-0.348,0-0.522c-24.528,0-49.057,0-73.585,0
		c0,0.174,0,0.349,0,0.522C216.463,108.552,240.991,108.552,265.52,108.552z M134.098,123.455c0-2.596,0-4.832,0-7.606
		c-1.81,1.371-3.176,2.423-3.81,4.146C131.244,121.354,132.167,122.492,134.098,123.455z M278.588,116.169c0,2.67,0,4.861,0,7.713
		c1.604-1.644,3.069-2.431,3.631-4.134C281.414,118.21,280.318,117.076,278.588,116.169z"/>
	<path fill="#FDFDFD" d="M291.265,30.759c0.012,17.332,0.022,34.664,0.034,51.995c-0.108,1.142,0.174,2.334-0.601,3.705
		c-56.094,0-112.348,0-169.404,0c0-18.56,0-37.139,0-55.718c23.759-0.043,47.518-0.112,71.277-0.123
		c31.737-0.014,63.473,0.017,95.21,0.035C288.942,30.655,290.104,30.723,291.265,30.759z M282.149,39.309
		c-0.7-0.596-1.544-0.495-2.37-0.494c-48.797,0.036-97.594,0.069-146.392,0.112c-1.14,0.001-2.362-0.221-3.558,1.096
		c-0.658,3.233-0.522,6.784-0.128,10.227c1.863,0.956,3.552,0.568,5.177,0.575c10.326,0.044,20.651,0.046,30.978,0.036
		c32.808-0.031,65.616-0.073,98.425-0.11c6.061,0.412,12.108,0.199,18.418,0.086C282.692,46.693,283.684,42.969,282.149,39.309z
		 M197.95,59.933c-3.604-0.081-6.965-0.432-10.695,0.305c0.351,3.581-0.594,6.986,0.533,10.137c3.542,0,6.777,0,10.163,0
		C197.95,66.8,197.95,63.567,197.95,59.933z M225.047,70.434c0-3.639,0-6.877,0-10.51c-3.604-0.099-6.961-0.496-10.49,0.294
		c-0.297,3.502-0.3,6.733,0.012,10.216C218.13,70.434,221.365,70.434,225.047,70.434z M170.148,70.501
		c1.508-3.544-0.018-6.865,0.126-10.475c-3.521-0.151-6.721-0.702-9.748,0.291c0,3.508,0,6.745,0,10.184
		C163.764,70.501,166.694,70.501,170.148,70.501z M252.06,70.416c0-3.706,0-6.95,0-10.47c-3.401-0.118-6.475-0.36-9.756,0.218
		c-0.372,3.464-0.389,6.705,0.024,10.251C245.587,70.416,248.657,70.416,252.06,70.416z M238.812,75.971
		c0.001,0.172,0.002,0.345,0.003,0.518c5.532,0,11.063,0,16.596,0c-0.001-0.172-0.002-0.345-0.003-0.518
		C249.875,75.971,244.344,75.971,238.812,75.971z M255.593,74.521c-0.003-0.155-0.006-0.31-0.009-0.464c-5.53,0-11.061,0-16.59,0
		c0.002,0.154,0.006,0.309,0.008,0.464C244.532,74.521,250.062,74.521,255.593,74.521z M173.758,76.5
		c-0.004-0.143-0.009-0.287-0.013-0.43c-5.515,0-11.03,0-16.544,0c0.004,0.144,0.008,0.287,0.012,0.43
		C162.728,76.5,168.243,76.5,173.758,76.5z M173.528,74.512c-5.441-0.75-10.983-0.99-16.527,0
		C162.51,74.512,168.019,74.512,173.528,74.512z M200.718,74.56c-0.049-0.16-0.098-0.32-0.146-0.48c-5.225,0-10.449,0-15.674,0
		c0.006,0.16,0.012,0.32,0.017,0.48C190.182,74.56,195.45,74.56,200.718,74.56z M211.757,74c0.001,0.17,0.002,0.34,0.003,0.51
		c5.372,0,10.745,0,16.117,0c-0.001-0.17-0.002-0.34-0.003-0.51C222.502,74,217.129,74,211.757,74z M211.737,75.994
		c-0.001,0.174-0.001,0.349-0.002,0.523c5.386,0,10.771,0,16.155,0c0.001-0.174,0.001-0.349,0.002-0.523
		C222.508,75.994,217.122,75.994,211.737,75.994z M200.689,76.516c-0.014-0.171-0.028-0.343-0.042-0.515c-5.33,0-10.659,0-15.989,0
		c0,0.172,0,0.344,0.001,0.515C190.003,76.516,195.346,76.516,200.689,76.516z M242.921,78.188c2.632,0.844,5.276,0.687,8.987,0.167
		C248.215,77.472,245.57,77.651,242.921,78.188z M169.432,78.555c-0.018-0.163-0.036-0.327-0.054-0.49c-2.51,0-5.021,0-7.531,0
		c0.008,0.163,0.017,0.327,0.025,0.49C164.393,78.555,166.912,78.555,169.432,78.555z M223.588,78.578
		c-2.485-0.871-5.085-1.162-7.648,0C218.489,78.578,221.038,78.578,223.588,78.578z M196.495,78.535
		c-2.437-0.807-5.037-1.071-7.624,0C191.413,78.535,193.954,78.535,196.495,78.535z"/>
	<path fill="#CBCAC9" d="M66.507,93.816c0.939-1.809,2.622-0.897,3.924-0.926c7.291-0.164,14.584-0.172,21.876-0.233
		c6.632,0.246,13.265,0.432,19.895-0.082c-0.003,13.101-0.007,26.202-0.01,39.304c-4.997-0.085-9.994-0.17-14.991-0.255
		c-0.883-1.501-0.667-3.204-0.954-4.819c-0.871-4.901-0.711-9.883-1.36-14.792c-0.583-4.41-1.586-8.761-1.617-13.247
		c-0.011-1.584,0.554-3.342-1.014-4.95C83.797,93.816,75.152,93.816,66.507,93.816z"/>
	<path fill="#1C252C" d="M300.359,92.581c-0.063-2.942-0.127-5.884-0.189-8.827c0.096-2.024,0.192-4.049,0.289-6.073
		c6.938-0.113,13.876-0.298,20.811,0.103c0.683,5.027-1.51,9.859-1.005,14.874C313.629,92.897,306.992,93.086,300.359,92.581z"/>
	<path fill="#1C252C" d="M112.203,92.575c-6.629,0.514-13.262,0.328-19.895,0.082c0.672-5.022-1.533-9.85-1.005-14.862
		c6.924-0.409,13.85-0.26,20.776-0.083C112.12,82.667,112.161,87.621,112.203,92.575z"/>
	<path fill="#CBA965" d="M97.202,131.624c4.997,0.084,9.994,0.17,14.991,0.255c0.017,6.263,0.034,12.526,0.05,18.79l-0.49,0.039
		l-0.487-0.062c-0.128-1.881,0.521-3.867-0.773-5.884c-4.029,0-8.083,0-12.138,0l-0.128-0.038c-0.37-4.324-1.304-8.604-0.992-12.98
		L97.202,131.624z"/>
	<path fill="#E3E2E2" d="M301.251,263.732c0.002,1.362,0.004,2.724,0.006,4.086l-0.279,0.202l-0.327-0.107
		c-1.31-0.479-2.965,0.424-4.197-1.132C297.26,264.531,298.816,263.49,301.251,263.732z"/>
	<path fill="#FBFBFB" d="M121.657,24.032c13.319,0,26.639,0,40.032,0c-0.269,1.369-1.107,1.522-1.938,1.523
		c-12.687,0.016-25.374,0.011-38.061,0.011C121.679,25.055,121.668,24.543,121.657,24.032z"/>
	<path fill="#FBF2EF" d="M256.521,23.013c0.968,1.001,0.494,1.991,0.552,3.3c-5.996,0-11.885,0-18.048,0
		c-0.969-0.64-0.57-1.802-0.441-3.3C244.64,23.013,250.646,23.013,256.521,23.013z"/>
	<path fill="#FBF2EF" d="M260.699,26.344c-0.761-1.154-0.683-2.091-0.178-3.377c5.559,0,11.256,0,17.07,0
		c1.112,0.791,0.537,1.956,0.546,3.377C272.325,26.344,266.637,26.344,260.699,26.344z"/>
	<path fill="#535259" d="M290.788,22.793c0.517,1.509,0.646,2.449-0.163,3.66c-2.687,0.486-5.606,0.166-8.347,0.131
		c-1.35-0.978-1.078-2.102-0.745-3.456C284.492,22.271,287.548,22.71,290.788,22.793z"/>
	<path fill="#FCFCFC" d="M195.095,24.309c3.943-0.914,7.379-0.658,11.065-0.282C203.511,26.015,199.466,26.146,195.095,24.309z"/>
	<path fill="#FEFDFD" d="M190.987,24.637c-3.423,1.282-6.852,1.059-10.598,0.527C182.986,23.477,185.438,23.3,190.987,24.637z"/>
	<path fill="#FBFBFB" d="M283.62,12.165c0.876,0.905,0.575,1.883,0.292,3.228c-51.644,0-103.359,0-155.213,0
		c-0.694-2.084,0.075-3.237,2.103-3.561c0.977-0.156,1.995-0.071,2.994-0.071c48.66-0.002,97.32-0.005,145.98,0.015
		C281.071,11.776,282.438,11.444,283.62,12.165z"/>
	<path fill="#C9C9C8" d="M167.292,4.78c12.734,0,25.468,0,37.93,0c1.504,1.288,0.885,2.716,1.087,3.962
		c-6.376,0.158-12.787,0.791-19.12,0.34c-6.429-0.458-12.756-0.271-18.878,0.731C166.745,8.099,167.512,6.358,167.292,4.78z"/>
	<path fill="#F4825F" d="M112.345,4.724c5.314,0.02,10.629,0.04,15.944,0.06c0,1.148,0,2.297,0,3.778c-5.295,0-10.34,0-15.417,0
		C111.918,7.354,112.388,6.001,112.345,4.724z"/>
	<path fill="#FDFDFD" d="M66.507,93.816c8.645,0,17.29,0,25.75,0c1.568,1.608,1.003,3.366,1.014,4.95
		c0.031,4.486,1.033,8.837,1.617,13.247c0.649,4.909,0.489,9.89,1.36,14.792c0.287,1.615,0.071,3.318,0.954,4.819l0.032,0.12
		c-10.321-0.035-20.643-0.07-30.964-0.105C66.349,119.031,66.428,106.424,66.507,93.816z"/>
	<path fill="#FDD47F" d="M66.27,131.639c10.321,0.035,20.643,0.07,30.964,0.105c-0.312,4.375,0.622,8.656,0.992,12.98
		c-22.61,0.016-45.22,0.032-67.83,0.048c0.321-4.363-1.101-8.85,0.924-13.093c0.973,0.01,1.945,0.02,2.917,0.029
		c5.683-0.012,11.366-0.024,17.049-0.036C56.281,131.661,61.275,131.65,66.27,131.639z"/>
	<path fill="#FDFDFD" d="M346.309,131.63c-10.304-0.03-20.607-0.061-30.911-0.091c2.034-11.84,2.805-23.818,3.916-35.759
		c0.87-0.35,0.93-1.147,1.055-1.909c8.56-0.013,17.118-0.026,25.678-0.039C346.133,106.432,346.221,119.031,346.309,131.63z"/>
	<path fill="#CBCAC9" d="M319.313,95.78c-1.111,11.941-1.882,23.919-3.916,35.759l-0.146,0.335c-4.959,0-9.919-0.001-14.878-0.001
		c-0.005-13.097-0.01-26.194-0.015-39.292c6.633,0.505,13.27,0.316,19.905,0.076c7.292,0.063,14.585,0.071,21.875,0.24
		c1.294,0.03,2.984-0.899,3.906,0.936c-8.56,0.013-17.118,0.025-25.678,0.039C319.205,94.058,319.279,94.93,319.313,95.78z"/>
	<path fill="#CBA965" d="M300.374,131.873c4.959,0,9.919,0.001,14.878,0.001c0.734,4.354-1.56,8.5-0.887,12.85l-0.133,0.04
		c-4.182,0.147-8.396-0.408-12.472,0.329c-0.806,1.986-0.389,3.785-0.45,5.549l-0.487,0.066l-0.49-0.038
		C300.347,144.404,300.36,138.138,300.374,131.873z"/>
	<path fill="#F2825F" d="M407.285,132.539c-0.025,1.633,0.151,3.3-0.118,4.891c-0.66,3.904-4.58,6.972-9.231,7.282
		c-1.948,0.13-4.008,0.136-5.967,0.104c0.033-3.777,0.151-7.727,0.202-11.504c0.004-0.304,0.177-0.606,0.445-1.465
		C397.398,132.07,402.355,130.84,407.285,132.539z"/>
	<path fill="#F3F3F3" d="M239.269,237.711c0.353-0.961,1.183-1.758,0.995-2.904c12.774-0.027,25.549-0.028,38.324-0.119
		c1.554-0.012,3.35,0.764,4.643-0.858c2.226-3.141,4.969-5.771,8.014-8.103c0.007,2.006,0.013,4.011,0.02,6.017
		c-2.321-0.09-3.192,1.963-4.64,3.155c-1.487,1.226-2.513,2.974-4.317,3.847c-1.007-1.716-2.677-0.995-4.063-1
		C265.252,237.695,252.261,237.713,239.269,237.711z"/>
	<path fill="#C99147" d="M301.311,150.641c0.062-1.764-0.355-3.562,0.45-5.549c4.075-0.736,8.29-0.182,12.472-0.329
		c0.484,2.059-1.287,3.745-0.956,5.779C309.291,150.943,305.301,150.769,301.311,150.641z"/>
	<path fill="#CB9247" d="M98.354,144.762c4.055,0,8.109,0,12.138,0c1.294,2.017,0.646,4.002,0.773,5.884
		c-3.99-0.034-7.979-0.067-11.969-0.101C99.626,148.512,97.868,146.82,98.354,144.762z"/>
	<path fill="#CBCAC9" d="M184.527,252.006c0-8.812,0-17.625,0-26.869c14.395,0,28.754,0,43.543,0c0,8.988,0,17.92,0,26.852
		C213.556,251.664,199.042,251.618,184.527,252.006z M203.604,236.219c-0.411,1.577-0.499,3.238-0.037,4.999
		c2.085-0.496,3.617-1.263,4.37-3.069c-0.423-0.839-1.101-1.252-1.887-1.553C205.313,236.313,204.651,235.708,203.604,236.219z"/>
	<path fill="#FDC76D" d="M227.828,190.26c-14.48,0-28.562,0-43.066,0c0-8.823,0-17.35,0-26.212c14.236,0,28.45,0,43.066,0
		C227.828,172.529,227.828,181.062,227.828,190.26z"/>
	<path fill="#FDC76D" d="M129.691,189.968c0-8.688,0-17.097,0-25.878c14.449,0,28.784,0,43.369,0c0,8.586,0,16.998,0,25.356
		C170.579,190.465,136.343,190.911,129.691,189.968z"/>
	<path fill="#F48260" d="M239.467,190.145c0-9.267,0-17.538,0-26.118c14.255,0,28.309,0,42.603,0
		c1.495,8.415,1.02,16.778,0.106,25.716C268.083,190.766,253.945,190.427,239.467,190.145z"/>
	<path fill="#F48361" d="M129.728,240.79c0-5.528,0-10.451,0-15.686c5.686-0.869,11.248-0.114,17.041-0.424
		c0.666,5.505,0.454,10.556,0.118,15.847C141.186,241.089,135.751,240.776,129.728,240.79z"/>
	<path fill="#49515A" d="M184.527,252.006c14.514-0.389,29.028-0.343,43.543-0.018c-0.067,1.452,0.336,2.951-0.446,4.573
		c-14.236,0-28.489,0-42.732,0C184.123,254.945,184.498,253.461,184.527,252.006z"/>
	<path fill="#535A63" d="M282.663,200.583c-14.472,0-28.706,0-42.807,0c-0.904-1.084-0.524-2.046-0.359-2.941
		c0.644-0.773,1.494-0.716,2.318-0.716c12.475,0.004,24.948,0.03,37.421,0.002C281.423,196.922,283.432,196.899,282.663,200.583z"/>
	<path fill="#535A64" d="M172.775,196.961c0.604,1.613,0.473,2.532,0.276,3.622c-14.483,0-28.698,0-43.064,0
		c-0.699-2.392-0.151-3.627,2.379-3.626C145.789,196.967,159.212,196.961,172.775,196.961z"/>
	<path fill="#545B64" d="M184.922,200.488c-0.724-1.074-0.556-1.985-0.015-2.983c0.39-0.151,0.843-0.479,1.297-0.481
		c12.788-0.055,25.577-0.066,38.365-0.114c2.251-0.009,4.138,0.227,3.294,3.578C213.582,200.488,199.213,200.488,184.922,200.488z"
		/>
	<path fill="#49515A" d="M271.499,256.627c-10.571,0-21.142,0-31.757,0c-0.604-1.621-0.579-3.009,0.048-4.741
		c10.536,0,21.104,0,31.673,0C271.475,253.466,271.487,255.047,271.499,256.627z"/>
	<path fill="#DEDDDD" d="M228.78,204.715c-5.421,1.505-40.749,1.332-44.053,0.048C187.93,203.463,222.976,203.229,228.78,204.715z"
		/>
	<path fill="#DEDDDC" d="M173.383,249.355c-14.889,0-29.275,0-44.199,0c1.095-0.711,0.313-0.218,0.543-0.843
		c0.05-0.137,0.165-0.346,0.262-0.353c13.723-0.956,27.464-0.163,41.194-0.431C171.852,247.716,172.491,247.802,173.383,249.355z"/>
	<path fill="#DDDDDC" d="M129.266,208.109c14.842,0,29.227,0,44.205,0c-1.157,0.729-0.354,0.249-0.599,0.868
		c-0.053,0.135-0.175,0.338-0.276,0.345c-13.724,0.912-27.464,0.203-41.196,0.414C130.733,209.746,130.09,209.673,129.266,208.109z"
		/>
	<path fill="#DEDDDC" d="M238.777,204.599c6.604-1.451,40.691-1.082,43.771,0.258C278.956,206.113,243.639,206.143,238.777,204.599z
		"/>
	<path fill="#DDDDDC" d="M184.713,207.776c13.674,0,27.348-0.006,41.022,0.014c0.846,0.001,1.615,0.312,2.014,1.566
		c-14.419,0-28.722,0-43.025,0C184.72,208.829,184.717,208.302,184.713,207.776z"/>
	<path fill="#DDDDDC" d="M238.78,208.583c6.732-1.458,40.656-1.083,43.767,0.271C278.922,210.114,243.614,210.136,238.78,208.583z"
		/>
	<path fill="#E1E0DF" d="M130.036,252.091c14.281,0,28.562,0,42.844,0c0.02,0.387,0.04,0.773,0.059,1.16
		c-4.656,1.058-9.475,0.315-14.205,0.442c-4.802,0.129-9.615,0.185-14.415,0.015c-4.794-0.169-9.702,0.715-14.399-0.634
		C129.958,252.747,129.997,252.419,130.036,252.091z"/>
	<path fill="#DDDDDC" d="M282.651,230.207c-0.118,0.731-0.567,1.339-1.256,1.341c-13.898,0.035-27.796,0.026-42.564,0.026
		C242.141,229.456,273.948,228.86,282.651,230.207z"/>
	<path fill="#DEDDDC" d="M173.917,205.375c-15.306,0-29.589,0-43.903,0c-0.094-1.321,0.927-1.579,1.878-1.579
		c13.425-0.007,26.849,0.028,40.274,0.084C172.406,203.881,172.644,204.27,173.917,205.375z"/>
	<path fill="#DDDDDC" d="M239.697,241.509c3.74-1.058,38.197-1.103,42.204,0.344c-4.427,1.528-9.082,0.706-13.631,0.846
		c-4.805,0.147-9.618,0.045-14.428,0.048c-4.727,0.003-9.452,0-14.179,0C239.675,242.334,239.687,241.921,239.697,241.509z"/>
	<path fill="#CDCCCB" d="M239.557,224.929c7.248,0,14.169,0,21.031,0c0.85,1.443,0.776,2.642-0.828,2.673
		c-6.321,0.125-12.646,0.081-18.968,0.029C239.418,227.621,239.35,226.57,239.557,224.929z"/>
	<path fill="#CDCCCB" d="M173.058,227.448c-7.377,0-14.403,0-21.312,0c-0.662-1.683-0.29-2.672,1.257-2.683
		c6.288-0.042,12.578-0.022,18.865,0.058C173.243,224.84,173.236,225.941,173.058,227.448z"/>
	<path fill="#F9C773" d="M271.499,256.627c-0.012-1.58-0.024-3.161-0.036-4.741c3.635,0,7.27,0,10.847,0
		c1.216,1.402,0.954,2.813,0.398,4.591C279.039,257.024,275.266,256.732,271.499,256.627z"/>
	<path fill="#DDDDDC" d="M151.708,230.089c7.054,0,14.107,0,21.776,0C170.327,232.048,156.797,232.366,151.708,230.089z"/>
	<path fill="#CAC9C8" d="M283.23,233.83c-1.293,1.622-3.089,0.847-4.643,0.858c-12.775,0.091-25.55,0.092-38.324,0.119
		c-0.339-2.319,1.494-1.003,2.063-1.005C255.961,233.74,269.596,233.795,283.23,233.83z"/>
	<path fill="#CAC9C8" d="M131.152,244.85c13.751,0,27.501,0,41.252,0c0.001,0.179,0.003,0.356,0.004,0.535
		c-13.813,0-27.625,0-41.438,0C131.031,245.207,131.092,245.029,131.152,244.85z"/>
	<path fill="#D0CFCE" d="M239.269,237.711c12.992,0.002,25.983-0.017,38.975,0.034c1.387,0.005,3.057-0.716,4.063,1
		c-12.996-0.001-25.992,0.018-38.988-0.035C241.939,238.705,240.262,239.459,239.269,237.711z"/>
	<path fill="#DEDDDC" d="M196.718,212.064c6.368,0,12.735,0,19.448,0C213.597,214.076,201.737,214.435,196.718,212.064z"/>
	<path fill="#DDDCDC" d="M269.872,212.753c-3.563,1.424-14.698,1.401-18.167-0.037C255.317,211.313,266.537,211.335,269.872,212.753
		z"/>
	<path fill="#DDDCDC" d="M142.722,212.33c6.069-0.759,12.112-0.542,18.153-0.132C157.651,214.107,146.446,214.201,142.722,212.33z"
		/>
	<path fill="#CAC9C8" d="M156.626,256.474c-8.49,0-16.98,0-25.471,0c-0.002-0.139-0.005-0.277-0.008-0.416c8.49,0,16.98,0,25.471,0
		C156.621,256.197,156.623,256.335,156.626,256.474z"/>
	<path fill="#CCCBCA" d="M271.355,245.63c-6.732,0-13.465,0-20.198,0c-0.004-0.18-0.008-0.359-0.011-0.539c6.803,0,13.606,0,20.41,0
		C271.489,245.271,271.423,245.451,271.355,245.63z"/>
	<path fill="#CAC9C8" d="M152.213,233.883c3.736,0,7.472,0,11.208,0c0.007,0.17,0.014,0.339,0.02,0.508c-3.812,0-7.625,0-11.438,0
		C152.074,234.222,152.144,234.053,152.213,233.883z"/>
	<path fill="#FDFDFD" d="M146.75,100.253c13.135,0,25.874,0,39.017,0c0,13.109,0,25.958,0,39.131c-12.875,0-25.751,0-39.017,0
		C146.75,126.595,146.75,113.745,146.75,100.253z"/>
	<path fill="#56585A" d="M235.293,100.333c1.077,1.796,0.374,2.941-0.354,4.18c-14.405,0-28.842,0-43.098,0
		c-1.198-1.408-0.739-2.678-0.431-4.18C206.15,100.333,220.84,100.333,235.293,100.333z"/>
	<path fill="#FCE7C3" d="M265.669,112.634c-4.16,1.348-69.108,1.557-74.302,0.421c1.291-2.095,3.275-1.266,4.845-1.27
		c21.298-0.058,42.596-0.047,63.895-0.022C261.719,111.765,263.407,111.412,265.669,112.634z"/>
	<path fill="#FBE6C3" d="M253.553,122.313c-21.105,0-41.496,0-62.342,0c1.01-0.666,0.24-0.16,0.44-0.795
		c0.043-0.135,0.149-0.352,0.235-0.355c19.396-0.987,38.806-0.172,58.208-0.432C251.045,120.718,252.104,120.462,253.553,122.313z"
		/>
	<path fill="#FBFBFB" d="M265.566,117.489c-24.531,0-49.062,0-73.593,0c0-0.149-0.001-0.299-0.002-0.448c24.53,0,49.062,0,73.592,0
		C265.564,117.19,265.565,117.34,265.566,117.489z"/>
	<path fill="#FCFCFB" d="M265.52,108.552c-24.528,0-49.057,0-73.585,0c0-0.174,0-0.348,0-0.522c24.528,0,49.057,0,73.585,0
		C265.52,108.204,265.52,108.378,265.52,108.552z"/>
	<path fill="#FEF9F2" d="M134.098,123.455c-1.931-0.962-2.854-2.1-3.81-3.46c0.634-1.723,2-2.775,3.81-4.146
		C134.098,118.623,134.098,120.858,134.098,123.455z"/>
	<path fill="#F5F2EB" d="M278.588,116.169c1.73,0.907,2.826,2.041,3.631,3.579c-0.562,1.703-2.026,2.49-3.631,4.134
		C278.588,121.031,278.588,118.839,278.588,116.169z"/>
	<path fill="#FDC76E" d="M264.281,50.75c-32.809,0.038-65.617,0.08-98.425,0.11c-10.326,0.01-20.652,0.008-30.978-0.036
		c-1.625-0.007-3.314,0.38-5.177-0.575c-0.394-3.443-0.53-6.993,0.128-10.227c1.196-1.316,2.418-1.095,3.558-1.096
		c48.797-0.043,97.595-0.076,146.392-0.112c0.826,0,1.67-0.102,2.37,0.494c-5.769,0-11.536,0-17.868,0
		C264.281,43.54,264.281,47.145,264.281,50.75z M260.75,42.995c-14.103,0-28.154,0-42.386,0c0.031,1.767-0.652,3.237,0.602,4.55
		c13.94,0,27.87,0,41.788,0C261.436,45.891,261.48,44.498,260.75,42.995z M160.665,45.557c-0.037-0.178-0.074-0.355-0.111-0.533
		c-3.509,0-7.019,0-10.528,0c0.008,0.178,0.016,0.355,0.023,0.533C153.587,45.557,157.126,45.557,160.665,45.557z M176.43,45.553
		c-3.415-0.837-6.993-1.245-10.545,0C169.4,45.553,172.915,45.553,176.43,45.553z M134.253,44.833
		c-0.081,0.187-0.162,0.373-0.242,0.56c3.518,0,7.036,0,10.553,0c-0.007-0.187-0.015-0.374-0.022-0.56
		C141.113,44.833,137.683,44.833,134.253,44.833z M181.899,44.88c0.029,0.178,0.058,0.356,0.086,0.535c3.208,0,6.415,0,9.622,0
		c-0.007-0.178-0.015-0.356-0.022-0.535C188.356,44.88,185.127,44.88,181.899,44.88z"/>
	<path fill="#4B535D" d="M264.281,50.75c0-3.605,0-7.211,0-11.441c6.332,0,12.1,0,17.868,0c1.534,3.66,0.543,7.384,0.55,11.528
		C276.39,50.95,270.342,51.162,264.281,50.75z"/>
	<path fill="#F08565" d="M197.95,59.933c0,3.634,0,6.867,0,10.441c-3.385,0-6.621,0-10.163,0c-1.127-3.151-0.182-6.556-0.533-10.137
		C190.985,59.501,194.347,59.853,197.95,59.933z"/>
	<path fill="#F48766" d="M225.047,70.434c-3.682,0-6.917,0-10.479,0c-0.312-3.483-0.309-6.714-0.012-10.216
		c3.529-0.79,6.887-0.393,10.49-0.294C225.047,63.557,225.047,66.795,225.047,70.434z"/>
	<path fill="#F58462" d="M170.148,70.501c-3.454,0-6.384,0-9.622,0c0-3.439,0-6.676,0-10.184c3.027-0.993,6.227-0.442,9.748-0.291
		C170.131,63.636,171.656,66.957,170.148,70.501z"/>
	<path fill="#F48462" d="M252.06,70.416c-3.402,0-6.473,0-9.731,0c-0.413-3.547-0.396-6.787-0.024-10.251
		c3.281-0.579,6.354-0.336,9.756-0.218C252.06,63.465,252.06,66.71,252.06,70.416z"/>
	<path fill="#8D9197" d="M238.812,75.971c5.532,0,11.063,0,16.596,0c0.001,0.172,0.002,0.345,0.003,0.518
		c-5.532,0-11.063,0-16.596,0C238.813,76.316,238.812,76.143,238.812,75.971z"/>
	<path fill="#8F9399" d="M255.593,74.521c-5.53,0-11.061,0-16.591,0c-0.002-0.155-0.006-0.31-0.008-0.464c5.529,0,11.06,0,16.59,0
		C255.587,74.212,255.59,74.367,255.593,74.521z"/>
	<path fill="#8D9197" d="M173.758,76.5c-5.515,0-11.03,0-16.545,0c-0.004-0.143-0.008-0.287-0.012-0.43c5.515,0,11.03,0,16.544,0
		C173.75,76.214,173.754,76.357,173.758,76.5z"/>
	<path fill="#8F9499" d="M173.528,74.512c-5.509,0-11.019,0-16.527,0C162.545,73.522,168.087,73.762,173.528,74.512z"/>
	<path fill="#8D9298" d="M200.718,74.56c-5.268,0-10.536,0-15.804,0c-0.005-0.16-0.011-0.32-0.017-0.48c5.225,0,10.45,0,15.674,0
		C200.62,74.239,200.669,74.399,200.718,74.56z"/>
	<path fill="#8C9197" d="M211.757,74c5.372,0,10.745,0,16.117,0c0.001,0.17,0.002,0.34,0.003,0.51c-5.372,0-10.745,0-16.117,0
		C211.759,74.339,211.758,74.169,211.757,74z"/>
	<path fill="#8A8F95" d="M211.737,75.994c5.385,0,10.771,0,16.155,0c-0.001,0.174-0.001,0.349-0.002,0.523
		c-5.385,0-10.77,0-16.155,0C211.736,76.343,211.736,76.168,211.737,75.994z"/>
	<path fill="#8B9096" d="M200.689,76.516c-5.343,0-10.687,0-16.029,0c0-0.171,0-0.343-0.001-0.515c5.33,0,10.659,0,15.989,0
		C200.662,76.173,200.676,76.345,200.689,76.516z"/>
	<path fill="#91969B" d="M242.921,78.188c2.649-0.538,5.294-0.717,8.987,0.167C248.197,78.875,245.553,79.032,242.921,78.188z"/>
	<path fill="#91969B" d="M169.432,78.555c-2.52,0-5.04,0-7.56,0c-0.009-0.163-0.017-0.327-0.025-0.49c2.51,0,5.021,0,7.531,0
		C169.396,78.228,169.415,78.392,169.432,78.555z"/>
	<path fill="#8C9196" d="M223.588,78.578c-2.55,0-5.099,0-7.648,0C218.503,77.416,221.103,77.707,223.588,78.578z"/>
	<path fill="#8F949A" d="M196.495,78.535c-2.541,0-5.083,0-7.624,0C191.458,77.463,194.058,77.728,196.495,78.535z"/>
	<path fill="#E3E2E2" d="M319.313,95.78c-0.034-0.85-0.108-1.722,1.055-1.909C320.243,94.633,320.184,95.43,319.313,95.78z"/>
	<path fill="#F9F9F9" d="M203.604,236.219c1.047-0.512,1.709,0.094,2.446,0.377c0.786,0.301,1.464,0.714,1.887,1.553
		c-0.753,1.807-2.284,2.573-4.37,3.069C203.106,239.458,203.193,237.796,203.604,236.219z"/>
	<path fill="#FBFBFB" d="M260.75,42.995c0.73,1.503,0.686,2.896,0.004,4.55c-13.918,0-27.848,0-41.788,0
		c-1.254-1.313-0.57-2.783-0.602-4.55C232.596,42.995,246.647,42.995,260.75,42.995z"/>
	<path fill="#F9F9F9" d="M160.665,45.557c-3.539,0-7.077,0-10.616,0c-0.008-0.178-0.016-0.355-0.023-0.533c3.509,0,7.019,0,10.528,0
		C160.59,45.201,160.627,45.379,160.665,45.557z"/>
	<path fill="#F9F8F7" d="M176.43,45.553c-3.515,0-7.03,0-10.545,0C169.437,44.308,173.016,44.716,176.43,45.553z"/>
	<path fill="#FCFBF9" d="M134.253,44.833c3.43,0,6.859,0,10.289,0c0.007,0.187,0.015,0.373,0.022,0.56c-3.518,0-7.036,0-10.553,0
		C134.092,45.206,134.173,45.02,134.253,44.833z"/>
	<path fill="#FDFDFD" d="M181.899,44.88c3.229,0,6.457,0,9.686,0c0.007,0.178,0.015,0.356,0.022,0.535c-3.208,0-6.415,0-9.622,0
		C181.957,45.236,181.928,45.058,181.899,44.88z"/>
	<polygon fill="#38424B" points="11.203,137.34 11.318,144.817 0,141.206 	"/>
</g>
<g>
	<path fill="none" d="M13.953,136.566c2.098-0.367,4.099-0.89,5.981-1.683L13.953,136.566z"/>
	<path fill="#EFEFEF" d="M11.203,137.34c0.096,6.331,0.076,4.941,0.076,4.941s13.122,1.686,18.967,2.436l0.15,0.056
		c0.321-4.363-1.101-8.85,0.924-13.093l-11.386,3.204C18.051,135.676,10.896,137.291,11.203,137.34z"/>
</g>
<g>
	<path fill="none" d="M22.656,148.33c-1.402-0.59-2.867-0.993-4.349-1.347L22.656,148.33z"/>
	<path fill="#CBCAC9" d="M30.246,144.716c-5.845-0.75-18.967-2.436-18.967-2.436s0.001,0.201,0.039,2.537l6.989,2.166
		c1.481,0.354,2.947,0.757,4.349,1.347l7.599,2.354C30.251,148.695,30.249,146.706,30.246,144.716z"/>
</g>
</svg>
