<?xml version="1.0" encoding="utf-8"?>
<!-- Generator: Adobe Illustrator 17.0.0, SVG Export Plug-In . SVG Version: 6.00 Build 0)  -->
<!DOCTYPE svg PUBLIC "-//W3C//DTD SVG 1.1//EN" "http://www.w3.org/Graphics/SVG/1.1/DTD/svg11.dtd">
<svg version="1.1" id="Layer_1" xmlns="http://www.w3.org/2000/svg" xmlns:xlink="http://www.w3.org/1999/xlink" x="0px" y="0px"
	 width="413.353px" height="357.735px" viewBox="0 0 413.353 357.735" enable-background="new 0 0 413.353 357.735"
	 xml:space="preserve">
<g>
	<path fill="#474F59" d="M379.284,229.611c-1.65-0.007-3.299-0.013-4.949-0.02c-0.26-0.957,0.423-2.391-1.263-2.634
		c-1.114,0.656-0.69,1.742-0.867,2.641c-1.66,0.01-3.319,0.019-4.979,0.029c-0.092-1.868,0.448-3.796-0.522-5.848
		c-1.042,2.041-0.44,3.986-0.587,5.852c-1.143,0.098-2.286,0.195-3.335,0.285c-1.026,1.514-0.592,3.054-0.595,4.507
		c-0.034,14.638-0.014,29.277-0.035,43.915c-0.003,1.824-0.154,3.648-0.237,5.472c-0.26,0.013-0.486-0.069-0.677-0.247
		c0.002-16.297,0.033-32.594-0.037-48.89c-0.007-1.686,0.887-3.705-1.078-5.025c0.087-0.903,0.433-1.841-0.351-2.628
		c-0.789,0.786-0.437,1.724-0.354,2.627c-1.765-0.005-3.53-0.009-5.295-0.014c-0.13-1.926,0.905-4.094-1.11-6.088
		c-1.184,2.258-0.677,4.211-0.632,6.118c-1.751-0.007-3.503-0.013-5.254-0.02c0.028-0.874,0.527-1.836-0.474-2.524
		c-0.703,0.818-0.422,1.765-0.376,2.679l0.051-0.085c-1.903-0.321-3.94,0.525-5.7-0.543c-0.743-1.644,0.294-3.504-0.927-5.266
		c-0.873,1.966,0.136,3.927-0.974,5.667c-1.44,0-2.903,0-4.365,0c-0.31-0.944,0.334-2.387-1.426-2.64
		c-0.896,0.668-0.65,1.691-0.768,2.596c-1.585,0.043-3.171,0.086-4.756,0.128c-0.428-1.788,0.336-3.765-0.808-5.912
		c-0.962,2.175-0.37,4.032-0.624,5.799c-1.815,0.119-3.634,0.368-5.441-0.12c-0.272-0.72-0.53-1.407-0.775-2.054
		c-0.616,0.6-0.069,1.7-1.412,2.306c-1.352-0.372-3.24,0.711-4.719-0.802c-0.946-1.328,0.449-3.071-0.934-4.426
		c-0.507,1.671,0.269,3.423-0.816,5.215c-1.792-0.411-4.189,1.394-5.363-1.974c0.388,2.027-1.102,1.885-2.17,2.224
		c-1.32-0.127-2.639-0.254-3.959-0.382c0.023-13.483,0.047-26.965,0.07-40.448c2.939-0.113,5.879-0.225,8.819-0.338
		c12.341,0.545,24.682,0.525,37.023,0.008c4.913,0,9.825,0,14.948,0c0-13.139,0-25.451,0-37.763c0.256-0.102,0.52-0.138,0.794-0.107
		c0,12.532,0,25.064,0,37.89c12.613,0,24.499,0,36.385,0c4.739,0.811,9.565-0.171,14.589,0.529c0,13.374,0,26.577,0,39.991
		c-1.713,0.786-3.476,0.266-5.049,0.393c-1.452-1.82-0.107-3.85-1.223-5.63c-1.142,1.628-0.057,3.536-0.931,5.199
		c-1.052,0.869-2.48,0.184-3.714,0.563c-0.586-0.066-1.173-0.132-1.759-0.199c-0.284-0.776,0.439-1.859-0.972-2.598
		c-0.056,1.007-0.099,1.801-0.143,2.595c-1.632-0.002-3.264-0.004-4.896-0.006c-0.434-1.86,0.73-4.096-2.115-5.648
		c0,1.884,0,3.769,0,5.653c-1.65,0.006-3.299,0.012-4.948,0.019c-0.231-0.795,0.488-1.85-0.604-2.479
		c-0.624,0.813-0.32,1.674-0.409,2.476c-1.957-0.002-3.914-0.003-5.87-0.005c-0.146-1.867,0.437-3.806-0.562-5.851
		C378.854,225.815,379.412,227.746,379.284,229.611z M301.543,190.033c0,13.094,0,25.632,0,38.053
		c1.34,0.772,2.381,0.87,3.463-0.138c1.326-12.445,2.658-24.956,4.01-37.649C306.653,189.401,304.266,189.753,301.543,190.033z"/>
	<path fill="#474F59" d="M18.257,229.604c-2.038-0.164-4.772,1.299-5.347-2.36c-0.749,0.987-0.612,2.772-2.474,2.6
		c-1.15-0.092-2.3-0.184-3.411-0.273c-1.37-1.608-0.035-3.648-1.079-5.428c-1.171,1.585-0.205,3.393-0.882,5.082
		c-1.578,0.97-3.379,0.223-5.465,0.478c0-13.454,0-26.648,0-40.212c4.708-1.054,9.694,0.08,14.534-0.732
		c12.007,0.275,24.008,0.227,36.363,0.045c0-13.128,0-25.539,0-37.95c0.285-0.03,0.562,0.008,0.828,0.114
		c0,12.441,0,24.881,0,37.779c5.372,0,10.163,0,14.954,0c12.345,0.543,24.691,0.487,37.037,0.031
		c2.938,0.092,5.875,0.184,8.813,0.276c0.021,13.493,0.042,26.985,0.062,40.478c-1.327,0.143-2.653,0.285-3.98,0.428
		c-1.649,0.086-1.979-1.263-2.44-2.185c-0.839,3.171-3.422,1.537-5.304,1.778c-0.483-1.832,0.637-4.05-1.146-6.008
		c-1.539,2.166-0.582,4.247-1.142,6.067c-1.951-0.379-4.876,1.541-5.368-2.344c-0.273,0.766-0.525,1.47-0.816,2.285
		c-1.809,0-3.606,0-5.404,0c-0.313-1.758,0.469-3.699-1.049-6.197c-0.173,2.692-0.288,4.489-0.404,6.286
		c-1.575-0.039-3.149-0.079-4.724-0.118c-0.25-0.944,0.412-2.364-1.245-2.582c-1.111,0.658-0.735,1.747-0.96,2.631
		c-1.585-0.022-3.235,0.576-4.648-0.374c-0.804-1.617,0.346-3.462-0.905-4.949c-0.98,1.674,0.388,3.71-1.236,5.462
		c-1.593,0-3.384,0-5.175,0l0.056,0.088c0.035-0.915,0.303-1.864-0.436-2.741c-0.809,0.777-0.51,1.704-0.424,2.591
		c-1.758-0.001-3.517-0.003-5.275-0.004c-0.006-1.94,0.835-4.038-0.927-6.198c-1.369,2.32-0.803,4.279-0.771,6.176
		c-1.764,0.013-3.528,0.025-5.291,0.038c0.075-0.898,0.38-1.829-0.411-2.653c-0.634,0.836-0.444,1.751-0.335,2.654
		c-1.949,1.331-1.051,3.346-1.059,5.033c-0.071,16.295-0.041,32.59-0.039,48.885c-0.194,0.182-0.424,0.263-0.689,0.243
		c-0.076-13.298-0.158-26.595-0.223-39.893c-0.022-4.473-0.003-8.947-0.003-13.16c-1.285-1.475-2.733-0.855-3.967-1.135
		c-0.139-1.868,0.453-3.811-0.719-6.139c-0.66,2.348-0.36,4.255-0.401,6.128c-1.652-0.009-3.304-0.019-4.956-0.028
		c-0.26-0.958,0.426-2.393-1.341-2.653c-0.949,0.693-0.653,1.742-0.797,2.653c-1.636,0.007-3.272,0.015-4.909,0.022
		c-0.229-1.79,0.394-3.696-1.177-5.384c0,1.797,0,3.594,0,5.391c-1.945,0.001-3.89,0.003-5.835,0.004
		c-0.236-0.796,0.485-1.855-0.611-2.482c-0.623,0.812-0.315,1.675-0.409,2.477c-1.645-0.005-3.29-0.009-4.935-0.014
		c-0.422-1.867,0.748-4.104-1.186-6.046C17.769,225.726,18.568,227.745,18.257,229.604z M110.898,228.286
		c0-12.949,0-25.604,0-38.547c-2.657,0.184-4.938-0.34-7.49,0.513c1.422,12.744,2.83,25.362,4.219,37.81
		C108.731,228.911,109.671,228.744,110.898,228.286z M19.059,213.845c2.757,0.101,4.933-1.766,5.039-4.324
		c0.09-2.168-2.554-4.781-4.823-4.769c-2.05,0.011-4.599,2.306-4.782,4.305C14.27,211.493,16.421,213.749,19.059,213.845z"/>
	<path fill="#E3E2E2" d="M112.193,229.532c-0.021-13.493-0.042-26.985-0.062-40.478c0.037-12.795,0.075-25.59,0.112-38.385
		c-0.017-6.263-0.033-12.526-0.05-18.79c0.003-13.101,0.007-26.202,0.01-39.304c-0.041-4.954-0.082-9.909-0.123-14.863
		c0.054-7.187,0.11-14.374,0.159-21.56c0.007-0.976,0.061-1.986-0.96-2.588c1.271-1.555,0.997-3.402,1.009-5.205
		c0.039-5.943,0.1-11.887,0.152-17.83c2.952,0.071,5.903,0.142,8.855,0.213c0,18.579,0,37.158,0,55.718
		c57.056,0,113.311,0,169.405,0c0.774-1.371,0.492-2.563,0.6-3.705c2.107,0.116,2.939-1.715,4.272-2.787
		c1.453-1.168,2.296-3.213,4.572-3.21c0.082,0.316,0.187,0.624,0.316,0.924c-0.097,2.024-0.193,4.049-0.29,6.073
		c-2.272-0.022-3.115,2.014-4.564,3.175c-1.33,1.065-2.142,2.899-4.232,2.824c-0.443-3.26-3.01-2.013-4.71-2.015
		c-53.323-0.06-106.646-0.053-159.969-0.032c-1.619,0.001-3.305-0.353-5.339,0.658c0,21.305,0,42.752,0,64.199
		c0,38.218,0,76.437,0,114.852c56.842,0,113.16,0,169.694,0c0.094-1.746,0.172-3.215,0.251-4.684
		c2.125,0.112,2.961-1.737,4.304-2.821c1.462-1.18,2.325-3.241,4.639-3.178c0.309,1.332-0.703,3.001,1.013,3.974
		c-0.001,1.008-0.002,2.017-0.004,3.025c-2.434-0.242-3.991,0.799-4.798,3.049c1.233,1.555,2.888,0.653,4.197,1.131
		c-1.295,1.131-2.864,0.643-4.307,0.644c-59.908,0.025-119.815,0.025-179.723,0.006c-1.793-0.001-3.688,0.433-5.314-0.792
		c0.01-2.028,0.019-4.056,0.029-6.084c1.321-0.709,0.946-1.971,0.945-3.064C112.268,248.925,112.226,239.228,112.193,229.532z"/>
	<path fill="#F38360" d="M121.294,30.741c-2.952-0.071-5.903-0.142-8.855-0.213c-0.489-3.907-0.205-7.821-0.115-11.733
		c62.655-0.015,125.311-0.031,187.966-0.046c-0.045,3.932-0.09,7.864-0.135,11.796c-2.963,0.071-5.927,0.143-8.89,0.214
		c-1.161-0.036-2.323-0.104-3.484-0.105c-31.737-0.018-63.473-0.049-95.21-0.035C168.812,30.629,145.053,30.699,121.294,30.741z
		 M121.657,24.032c0.011,0.511,0.022,1.023,0.033,1.534c12.687,0,25.374,0.005,38.061-0.011c0.831-0.001,1.669-0.154,1.938-1.523
		C148.296,24.032,134.977,24.032,121.657,24.032z M256.521,23.013c-5.874,0-11.882,0-17.938,0c-0.128,1.498-0.527,2.661,0.442,3.3
		c6.163,0,12.052,0,18.049,0C257.015,25.004,257.49,24.015,256.521,23.013z M260.699,26.344c5.938,0,11.626,0,17.439,0
		c-0.009-1.421,0.566-2.586-0.546-3.377c-5.815,0-11.513,0-17.071,0C260.016,24.253,259.939,25.19,260.699,26.344z M290.789,22.793
		c-3.24-0.083-6.296-0.522-9.255,0.335c-0.333,1.354-0.604,2.478,0.745,3.456c2.741,0.034,5.66,0.355,8.347-0.131
		C291.435,25.242,291.305,24.302,290.789,22.793z M195.095,24.309c4.371,1.838,8.416,1.706,11.065-0.282
		C202.474,23.651,199.038,23.395,195.095,24.309z M190.987,24.637c-5.549-1.337-8.001-1.16-10.598,0.527
		C184.135,25.696,187.564,25.919,190.987,24.637z"/>
	<path fill="#E2E2E1" d="M300.29,18.749c-62.655,0.015-125.311,0.031-187.966,0.046c-0.183-3.531,0.382-7.099-0.938-10.575
		c-0.414-1.089-0.474-2.607,0.768-3.589l0.191,0.092c0.043,1.278-0.427,2.631,0.527,3.837c5.077,0,10.121,0,15.417,0
		c0-1.481,0-2.629,0-3.778c13.001-0.001,26.002-0.002,39.003-0.003c0.22,1.578-0.547,3.319,1.02,5.033
		c6.122-1.002,12.449-1.189,18.878-0.731c6.333,0.451,12.743-0.183,19.12-0.341c31.303-0.012,62.606-0.025,93.909-0.037
		C300.243,12.053,300.266,15.401,300.29,18.749z M283.62,12.165c-1.183-0.72-2.549-0.388-3.844-0.388
		c-48.66-0.02-97.321-0.017-145.981-0.015c-0.999,0-2.017-0.085-2.994,0.071c-2.028,0.324-2.797,1.476-2.103,3.561
		c51.854,0,103.569,0,155.213,0C284.195,14.048,284.496,13.07,283.62,12.165z"/>
	<path fill="#90D1D7" d="M167.292,4.78c-13.001,0.001-26.002,0.002-39.003,0.003c-5.315-0.02-10.629-0.04-15.944-0.06l-0.191-0.092
		c0.315-1.438-0.244-2.994,0.712-4.631c62.129,0,124.384,0,186.893,0c1.117,2.797,0.327,5.789,0.459,8.705
		c-31.303,0.012-62.606,0.025-93.909,0.037c-0.202-1.246,0.417-2.674-1.087-3.962C192.76,4.78,180.026,4.78,167.292,4.78z"/>
	<path fill="#232E38" d="M50.352,106.757c0.651-5.805,0.173-11.627,0.273-17.44c0.028-1.662-0.079-3.341,0.12-4.983
		c0.55-4.541,2.891-6.586,7.711-6.678c6.315-0.121,12.632-0.12,18.949-0.172c4.633,0.104,9.266,0.207,13.899,0.311
		c-0.528,5.012,1.678,9.84,1.005,14.862c-7.292,0.061-14.586,0.069-21.876,0.233c-1.303,0.029-2.985-0.883-3.924,0.926
		c-0.079,12.607-0.159,25.215-0.238,37.823c-4.994,0.011-9.989,0.022-14.983,0.034c-1.083-1.635-0.726-3.479-0.746-5.261
		C50.466,119.86,50.413,113.308,50.352,106.757z"/>
	<path fill="#232E38" d="M335.16,77.489c6.15,0.053,12.301,0.082,18.451,0.165c5.803,0.078,8.058,2.283,8.264,8.171
		c0.244,6.975-0.304,13.963,0.308,20.934c-0.056,6.054-0.073,12.108-0.189,18.161c-0.043,2.26,0.506,4.603-0.7,6.749
		c-4.995-0.013-9.99-0.026-14.984-0.039c-0.088-12.599-0.175-25.199-0.263-37.798c-0.921-1.835-2.612-0.905-3.906-0.935
		c-7.289-0.169-14.582-0.177-21.874-0.24c-0.505-5.015,1.687-9.847,1.005-14.874C325.9,77.686,330.53,77.588,335.16,77.489z"/>
	<path fill="#FDD47F" d="M346.309,131.63c4.995,0.013,9.99,0.026,14.984,0.039c5.674,0.014,11.348,0.029,17.022,0.043
		c0.635,0.021,1.27,0.042,1.905,0.062c0.059,1.335,0.117,2.67,0.176,4.005c-0.056,3.001-0.112,6.003-0.168,9.004
		c-21.954-0.02-43.909-0.039-65.863-0.059c-0.673-4.35,1.621-8.495,0.887-12.85l0.145-0.335
		C325.701,131.57,336.005,131.6,346.309,131.63z"/>
	<path fill="#E3E2E2" d="M301.26,53.558c-1.578,1.26-0.896,3.029-0.928,4.573c-0.13,6.207-0.136,12.417-0.188,18.626
		c-2.276-0.003-3.119,2.042-4.572,3.21c-1.334,1.072-2.165,2.903-4.272,2.787c-0.011-17.332-0.023-34.664-0.034-51.995
		c2.963-0.071,5.927-0.143,8.89-0.214c0.039,5.934,0.086,11.868,0.114,17.802C300.277,50.15,300.046,51.989,301.26,53.558z"/>
	<path fill="#F0EFEE" d="M380.22,131.774c0.059,1.335,0.176,4.005,0.176,4.005l-0.168,9.004l11.74,0.034l0.647-11.333v-1.637
		L380.22,131.774z"/>
	<path fill="#EC6D48" d="M391.969,144.817c0.223-0.076-0.14-0.133,0.092-0.173c1.959,0.032,3.927,0.198,5.875,0.068
		c4.651-0.31,8.571-3.378,9.231-7.282c0.269-1.591,0.092-3.258,0.118-4.891c0.649,0.094,2.381,1.309,3.194,2.184
		c1.519,1.713,3.073,2.942,2.853,6.715c-0.299,5.149-3.819,9.154-8.962,9.281c-4.292,0.106-8.592-0.082-12.888-0.14
		C391.448,148.658,392.004,146.737,391.969,144.817z"/>
	<path fill="#CECAC6" d="M391.969,144.817c0.035,1.921-0.486,5.762-0.486,5.762l-11.13,0.115l-0.124-5.91
		C380.228,144.783,388.744,144.817,391.969,144.817z"/>
	<path fill="#FDFDFD" d="M50.645,283.819c0.265,0.02,0.495-0.061,0.689-0.243c1.329,0.055,2.657,0.16,3.986,0.16
		c86.146,0.008,172.293,0.018,258.439,0.001c15.826-0.003,31.651-0.114,47.477-0.176c0.191,0.178,0.417,0.26,0.677,0.247
		c0.046,6.467,0.234,12.937,0.082,19.399c-0.085,3.648-1.248,6.901-5.579,7.633c-2.33-0.05-4.659-0.142-6.989-0.142
		c-73.778-0.008-147.556-0.019-221.333,0c-23.98,0.006-47.96,0.094-71.94,0.145c-4.552-0.857-5.54-4.31-5.604-8.132
		C50.444,296.416,50.6,290.117,50.645,283.819z"/>
	<path fill="#E4E3E3" d="M56.153,310.843c23.98-0.051,47.96-0.138,71.94-0.145c73.778-0.019,147.556-0.008,221.333,0
		c2.33,0,4.659,0.093,6.989,0.142c-1.75,1.463-3.829,0.749-5.742,0.752c-33.766,0.044-67.532,0.028-101.299,0.025
		c-1.139,0-2.278,0-4.197,0c1.47,13.925,2.898,27.458,4.326,40.992c-14.296,0-28.592,0-42.932,0
		c-3.238-3.282-28.368-29.39-28.368-29.39l-11.064-11.641c0,0-72.276,0.068-105.738,0.022
		C59.653,311.598,57.725,312.291,56.153,310.843z"/>
	<path fill="#F1F1F1" d="M262.353,352.729c-4.281-0.118-8.566-0.086-12.849-0.119c-14.296,0-28.592,0-42.932,0
		c-2.104-3.668-36.401-38.143-38.593-40.469c-0.297,0.328-0.113,2.095-0.54,2.567c-0.405,4.617-3.694,31.764-4.571,37.991
		c-4.313,0-8.447-0.071-12.578,0.021c-3.688,0.082-4.064,0.552-4.665,4.791c1.327,0.074,2.653,0.212,3.98,0.213
		c23.137,0.009,46.275,0.025,69.412-0.012c15.975-0.026,31.951-0.13,47.926-0.199C266.354,353.326,265.954,352.829,262.353,352.729z
		"/>
	<path fill="#ADAFB4" d="M18.257,229.604c0.311-1.859-0.488-3.878,0.918-6.046c1.934,1.942,0.764,4.179,1.186,6.046
		C19.66,229.604,18.959,229.604,18.257,229.604z"/>
	<path fill="#E3E4E5" d="M45.332,229.62c0.041-1.873-0.259-3.78,0.401-6.128c1.172,2.327,0.58,4.271,0.719,6.139
		C46.078,229.627,45.705,229.623,45.332,229.62z"/>
	<path fill="#E1E1E2" d="M32.153,229.62c0-1.797,0-3.594,0-5.391c1.571,1.689,0.948,3.595,1.177,5.384
		C32.938,229.616,32.545,229.618,32.153,229.62z"/>
	<path fill="#8B8F94" d="M38.238,229.592c0.144-0.91-0.153-1.96,0.797-2.653c1.767,0.26,1.081,1.695,1.341,2.653
		C39.663,229.592,38.951,229.592,38.238,229.592z"/>
	<path fill="#C9CACD" d="M25.297,229.619c0.094-0.802-0.214-1.665,0.409-2.477c1.097,0.627,0.375,1.687,0.611,2.482
		C25.978,229.622,25.637,229.62,25.297,229.619z"/>
	<path fill="#A8AAAE" d="M392.21,229.608c0-1.884,0-3.769,0-5.653c2.846,1.553,1.682,3.788,2.115,5.648
		C393.621,229.605,392.915,229.606,392.21,229.608z"/>
	<path fill="#EBECED" d="M379.284,229.611c0.128-1.865-0.43-3.796,0.533-5.844c1,2.045,0.417,3.985,0.562,5.851
		C380.014,229.616,379.649,229.613,379.284,229.611z"/>
	<path fill="#898C91" d="M372.204,229.597c0.177-0.898-0.247-1.984,0.867-2.641c1.686,0.244,1.003,1.678,1.263,2.634
		C373.624,229.593,372.914,229.595,372.204,229.597z"/>
	<path fill="#E0E1E3" d="M366.116,229.629c0.147-1.866-0.455-3.81,0.587-5.852c0.97,2.053,0.43,3.98,0.522,5.848
		C366.855,229.627,366.486,229.628,366.116,229.629z"/>
	<path fill="#C1C3C5" d="M399.222,229.609c0.044-0.794,0.087-1.588,0.143-2.595c1.41,0.739,0.688,1.821,0.972,2.598
		C399.965,229.611,399.593,229.61,399.222,229.609z"/>
	<path fill="#C6C7CA" d="M386.249,229.623c0.089-0.802-0.216-1.662,0.409-2.476c1.092,0.63,0.373,1.684,0.604,2.479
		C386.924,229.625,386.587,229.624,386.249,229.623z"/>
	<path fill="#232E38" d="M361.236,283.561c-15.826,0.061-31.651,0.172-47.477,0.176c-86.146,0.017-172.293,0.008-258.439-0.001
		c-1.329,0-2.657-0.104-3.986-0.16c-0.002-16.295-0.032-32.59,0.039-48.885c0.007-1.687-0.89-3.702,1.059-5.033l0.373,0.051
		l0.373-0.052c1.764-0.013,3.527-0.025,5.291-0.038c0.566,0.007,1.133,0.015,1.699,0.022c1.758,0.001,3.517,0.003,5.275,0.004
		c0.283,0.072,0.57,0.122,0.861,0.15l-0.056-0.088c0,12.727,0,25.453,0,38.062c15.503,0,30.281,0,45.059,0
		c1.626,1.225,3.521,0.792,5.314,0.792c59.908,0.019,119.815,0.019,179.723-0.006c1.443-0.001,3.012,0.487,4.307-0.644l0.327,0.107
		l0.279-0.202c14.882,0,29.764,0,45.067,0c0-12.916,0-25.512,0-38.107l-0.051,0.085c0.287-0.031,0.571-0.083,0.851-0.155
		c1.751,0.007,3.503,0.013,5.254,0.02c0.581-0.01,1.161-0.02,1.742-0.03c1.765,0.005,3.53,0.009,5.295,0.014l0.353,0.044
		l0.353-0.042c1.965,1.32,1.071,3.339,1.078,5.025C361.269,250.968,361.238,267.265,361.236,283.561z"/>
	<path fill="#FDFDFD" d="M346.324,229.711c0,12.596,0,25.191,0,38.107c-15.303,0-30.185,0-45.067,0
		c-0.002-1.362-0.004-2.724-0.005-4.086c0.001-1.008,0.002-2.017,0.004-3.025c1.13-10.256,2.578-20.481,3.09-30.799
		c1.068-0.339,2.558-0.196,2.17-2.224c1.174,3.368,3.571,1.563,5.363,1.974c1.086-1.793,0.309-3.545,0.816-5.215
		c1.383,1.355-0.011,3.098,0.934,4.426c1.479,1.513,3.367,0.43,4.719,0.802c1.343-0.606,0.796-1.707,1.412-2.306
		c0.244,0.648,0.503,1.334,0.775,2.054c1.807,0.488,3.626,0.239,5.441,0.12c0.477,0.038,0.955,0.076,1.432,0.114
		c1.585-0.043,3.171-0.086,4.756-0.128c0.731,0.014,1.463,0.029,2.194,0.043c1.462,0,2.925,0,4.365,0
		c1.111-1.74,0.102-3.7,0.974-5.667c1.222,1.763,0.184,3.622,0.927,5.266C342.384,230.236,344.421,229.389,346.324,229.711z"/>
	<path fill="#E3E2E2" d="M291.373,89.754c2.09,0.074,2.903-1.759,4.232-2.824c1.449-1.161,2.292-3.197,4.564-3.175
		c0.063,2.942,0.126,5.884,0.19,8.826c0.005,13.097,0.01,26.194,0.015,39.292c-0.013,6.266-0.027,12.531-0.04,18.797
		c0.041,12.803,0.082,25.606,0.123,38.409c-0.023,13.483-0.047,26.965-0.07,40.448c-0.048,9.069-0.096,18.137-0.144,27.206
		c-2.314-0.063-3.177,1.998-4.639,3.178c-1.343,1.084-2.178,2.933-4.304,2.821c-0.012-10.329-0.023-20.659-0.035-30.988
		c-0.007-2.005-0.013-4.011-0.02-6.017c-0.009-24.393-0.019-48.785-0.028-73.178C291.268,131.617,291.321,110.685,291.373,89.754z"
		/>
	<path fill="#FDFDFD" d="M346.297,188.748c-12.341,0.517-24.682,0.538-37.023-0.008c0.409-4.432,0.449-8.938,1.305-13.282
		c1.601-8.119,1.747-16.365,2.736-24.532c10.982-0.024,21.965-0.047,32.947-0.071C346.274,163.486,346.286,176.117,346.297,188.748z
		"/>
	<path fill="#242E38" d="M346.297,188.748c-0.012-12.631-0.023-25.261-0.034-37.892c4.996-0.137,9.992-0.319,14.982,0.128
		c0,12.312,0,24.624,0,37.763C356.122,188.748,351.21,188.748,346.297,188.748z"/>
	<path fill="#CBCAC9" d="M313.316,150.927c-0.988,8.166-1.135,16.413-2.736,24.532c-0.856,4.344-0.897,8.849-1.305,13.282
		c-2.94,0.113-5.879,0.226-8.819,0.338c-0.041-12.803-0.082-25.606-0.123-38.409l0.49,0.037l0.487-0.066
		c3.99,0.128,7.98,0.301,11.966-0.099L313.316,150.927z"/>
	<path fill="#FCB759" d="M361.245,150.984c-4.99-0.447-9.986-0.265-14.982-0.128c-10.982,0.024-21.965,0.047-32.947,0.071
		l-0.039-0.384c-0.331-2.034,1.44-3.72,0.955-5.779l0.133-0.039c21.954,0.02,43.909,0.039,65.863,0.059
		c0.041,1.97,0.083,3.94,0.124,5.91c-6.105,0.061-12.209,0.122-18.314,0.184C361.765,150.846,361.501,150.882,361.245,150.984z"/>
	<path fill="#3A3F47" d="M301.543,190.033c2.724-0.28,5.11-0.632,7.473,0.266c-1.352,12.693-2.685,25.204-4.01,37.649
		c-1.081,1.008-2.123,0.91-3.463,0.138C301.543,215.664,301.543,203.127,301.543,190.033z"/>
	<path fill="#CBCAC9" d="M300.242,256.733c0.048-9.069,0.096-18.137,0.144-27.206c1.32,0.127,2.639,0.254,3.959,0.382
		c-0.512,10.318-1.96,20.543-3.09,30.799C299.539,259.734,300.55,258.065,300.242,256.733z"/>
	<path fill="#A5A9AD" d="M354.12,229.631c-0.581,0.01-1.161,0.02-1.742,0.03c-0.045-1.906-0.551-3.86,0.632-6.118
		C355.025,225.537,353.99,227.705,354.12,229.631z"/>
	<path fill="#898E94" d="M334.357,229.568c-0.731-0.014-1.463-0.029-2.194-0.043c0.118-0.905-0.129-1.928,0.768-2.596
		C334.691,227.181,334.047,228.624,334.357,229.568z"/>
	<path fill="#D2D4D7" d="M327.407,229.653c-0.477-0.038-0.955-0.076-1.432-0.114c0.254-1.766-0.338-3.623,0.624-5.799
		C327.743,225.888,326.979,227.865,327.407,229.653z"/>
	<path fill="#B2B6BA" d="M347.124,229.641c-0.28,0.073-0.563,0.124-0.851,0.155c-0.046-0.914-0.327-1.862,0.376-2.679
		C347.651,227.804,347.152,228.767,347.124,229.641z"/>
	<path fill="#C9CBCE" d="M360.121,229.646l-0.353,0.042l-0.353-0.044c-0.083-0.902-0.435-1.841,0.354-2.627
		C360.554,227.805,360.208,228.743,360.121,229.646z"/>
	<path fill="#FDFDFD" d="M111.306,267.77c-14.778,0-29.555,0-45.059,0c0-12.608,0-25.335,0-38.062c1.791,0,3.581,0,5.175,0
		c1.624-1.751,0.256-3.788,1.236-5.462c1.251,1.488,0.101,3.333,0.905,4.949c1.413,0.95,3.063,0.352,4.648,0.374
		c0.735-0.016,1.47-0.032,2.205-0.049c1.575,0.039,3.149,0.079,4.724,0.118c0.484-0.029,0.969-0.059,1.453-0.088
		c1.797,0,3.594,0,5.404,0c0.291-0.815,0.542-1.519,0.816-2.285c0.492,3.885,3.417,1.966,5.368,2.344
		c0.763-0.02,1.525-0.039,2.288-0.059c1.882-0.241,4.465,1.393,5.304-1.778c0.461,0.922,0.791,2.271,2.44,2.185
		c0.07,6.726,1.204,13.349,1.836,20.018c0.371,3.911,1.414,7.751,1.286,11.708C111.326,263.714,111.316,265.742,111.306,267.77z"/>
	<path fill="#FDFDFD" d="M103.318,188.777c-12.346,0.456-24.692,0.512-37.037-0.031c0.01-12.63,0.02-25.261,0.031-37.891
		c10.983,0.024,21.966,0.049,32.948,0.074c0.021,1.331-0.073,2.675,0.081,3.99c0.884,7.518,1.845,15.027,2.743,22.543
		C102.535,181.229,102.909,185.005,103.318,188.777z"/>
	<path fill="#242E38" d="M66.311,150.855c-0.01,12.63-0.02,25.261-0.031,37.891c-4.791,0-9.582,0-14.954,0
		c0-12.897,0-25.338,0-37.779C56.318,150.526,61.315,150.761,66.311,150.855z"/>
	<path fill="#CBCAC9" d="M103.318,188.777c-0.409-3.772-0.783-7.548-1.233-11.315c-0.899-7.516-1.859-15.025-2.743-22.543
		c-0.155-1.315-0.061-2.659-0.081-3.99l0.037-0.384c3.99,0.034,7.979,0.067,11.969,0.101l0.487,0.061l0.49-0.038
		c-0.037,12.795-0.075,25.59-0.112,38.385C109.193,188.962,106.255,188.869,103.318,188.777z"/>
	<path fill="#FCB759" d="M66.311,150.855c-4.996-0.095-9.993-0.329-14.985,0.113c-0.267-0.106-0.543-0.144-0.828-0.114
		c-6.748-0.056-13.496-0.113-20.243-0.169c-0.003-1.989-0.006-3.979-0.009-5.968l0.15,0.056c22.61-0.016,45.22-0.032,67.83-0.048
		l0.128,0.038c-0.486,2.058,1.273,3.75,0.943,5.783l-0.037,0.384C88.277,150.904,77.294,150.88,66.311,150.855z"/>
	<path fill="#3C424A" d="M110.898,228.286c-1.227,0.458-2.167,0.625-3.27-0.225c-1.389-12.448-2.797-25.066-4.219-37.81
		c2.552-0.853,4.833-0.329,7.49-0.513C110.898,202.683,110.898,215.337,110.898,228.286z"/>
	<path fill="#CDCCCB" d="M111.335,261.686c0.128-3.957-0.915-7.797-1.286-11.708c-0.633-6.669-1.766-13.292-1.836-20.018
		c1.327-0.143,2.653-0.286,3.98-0.428c0.033,9.697,0.076,19.394,0.087,29.09C112.282,259.715,112.656,260.978,111.335,261.686z"/>
	<path fill="#ADB0B5" d="M100.469,229.553c-0.763,0.02-1.525,0.039-2.288,0.059c0.56-1.82-0.397-3.901,1.142-6.067
		C101.105,225.503,99.986,227.72,100.469,229.553z"/>
	<path fill="#AAAEB3" d="M60.168,229.642c-0.566-0.007-1.133-0.015-1.699-0.022c-0.032-1.898-0.598-3.857,0.771-6.176
		C61.002,225.604,60.162,227.702,60.168,229.642z"/>
	<path fill="#8C9197" d="M80.416,229.522c-0.735,0.016-1.47,0.032-2.205,0.049c0.224-0.884-0.152-1.973,0.96-2.631
		C80.828,227.158,80.166,228.578,80.416,229.522z"/>
	<path fill="#D5D7D9" d="M86.593,229.552c-0.484,0.029-0.969,0.059-1.453,0.088c0.115-1.797,0.231-3.593,0.404-6.286
		C87.062,225.853,86.28,227.794,86.593,229.552z"/>
	<path fill="#B5B8BD" d="M66.304,229.796c-0.291-0.028-0.578-0.078-0.861-0.15c-0.085-0.887-0.384-1.814,0.424-2.591
		C66.607,227.932,66.338,228.881,66.304,229.796z"/>
	<path fill="#C4C6C8" d="M53.178,229.658l-0.373,0.052l-0.373-0.051c-0.109-0.903-0.3-1.818,0.335-2.654
		C53.558,227.829,53.253,228.76,53.178,229.658z"/>
	<path fill="#FDFDFD" d="M291.216,152.549c0.009,24.393,0.019,48.785,0.028,73.178c-3.045,2.332-5.788,4.962-8.014,8.103
		c-13.634-0.034-27.269-0.09-40.902-0.028c-0.57,0.003-2.403-1.314-2.064,1.006c0.188,1.146-0.643,1.943-0.994,2.904
		c0.993,1.748,2.671,0.994,4.05,0.999c12.996,0.053,25.992,0.034,38.988,0.035c1.805-0.873,2.83-2.621,4.318-3.847
		c1.447-1.192,2.318-3.246,4.639-3.156c0.012,10.329,0.023,20.659,0.035,30.988c-0.079,1.469-0.157,2.938-0.251,4.684
		c-56.534,0-112.852,0-169.694,0c0-38.415,0-76.634,0-114.852c1.331,0.042,2.662,0.119,3.993,0.119
		c33.807,0.007,67.615,0.022,101.423-0.001C248.252,152.668,269.734,152.596,291.216,152.549z M271.463,251.886
		c-10.568,0-21.137,0-31.673,0c-0.627,1.733-0.651,3.121-0.048,4.741c10.614,0,21.186,0,31.757,0
		c3.766,0.104,7.54,0.397,11.209-0.15c0.555-1.778,0.817-3.189-0.399-4.591C278.733,251.886,275.098,251.886,271.463,251.886z
		 M228.07,251.989c0-8.932,0-17.863,0-26.851c-14.789,0-29.148,0-43.543,0c0,9.244,0,18.057,0,26.869
		c-0.03,1.455-0.404,2.939,0.364,4.556c14.243,0,28.496,0,42.732,0C228.406,254.94,228.003,253.441,228.07,251.989z M227.829,190.26
		c0-9.199,0-17.731,0-26.212c-14.616,0-28.831,0-43.066,0c0,8.862,0,17.389,0,26.212C199.266,190.26,213.348,190.26,227.829,190.26z
		 M129.692,189.968c6.652,0.943,40.888,0.498,43.369-0.522c0-8.358,0-16.77,0-25.356c-14.585,0-28.92,0-43.369,0
		C129.692,172.871,129.692,181.281,129.692,189.968z M239.466,190.145c14.479,0.282,28.616,0.621,42.71-0.402
		c0.913-8.938,1.389-17.301-0.107-25.716c-14.294,0-28.348,0-42.603,0C239.466,172.607,239.466,180.878,239.466,190.145z
		 M129.728,240.79c6.023-0.014,11.458,0.299,17.159-0.263c0.336-5.291,0.548-10.341-0.118-15.846
		c-5.793,0.309-11.355-0.445-17.041,0.423C129.728,230.339,129.728,235.261,129.728,240.79z M282.663,200.583
		c0.768-3.683-1.24-3.661-3.426-3.656c-12.474,0.028-24.947,0.002-37.421-0.001c-0.825,0-1.675-0.057-2.319,0.716
		c-0.165,0.895-0.545,1.857,0.36,2.941C253.957,200.583,268.192,200.583,282.663,200.583z M172.775,196.962
		c-13.563,0-26.986,0.005-40.409-0.004c-2.53-0.002-3.078,1.234-2.379,3.626c14.366,0,28.581,0,43.064,0
		C173.248,199.493,173.379,198.574,172.775,196.962z M184.922,200.488c14.291,0,28.66,0,42.941,0
		c0.843-3.351-1.044-3.587-3.294-3.578c-12.788,0.048-25.577,0.059-38.365,0.114c-0.454,0.002-0.907,0.33-1.297,0.481
		C184.366,198.503,184.198,199.414,184.922,200.488z M228.781,204.716c-5.805-1.487-40.85-1.253-44.053,0.048
		C188.032,206.047,223.359,206.22,228.781,204.716z M173.383,249.355c-0.892-1.553-1.531-1.639-2.2-1.626
		c-13.73,0.267-27.471-0.526-41.194,0.43c-0.097,0.007-0.212,0.217-0.262,0.352c-0.23,0.626,0.553,0.133-0.543,0.844
		C144.108,249.355,158.495,249.355,173.383,249.355z M129.266,208.109c0.824,1.564,1.467,1.637,2.134,1.627
		c13.731-0.211,27.472,0.498,41.196-0.414c0.101-0.007,0.223-0.21,0.277-0.344c0.246-0.619-0.558-0.14,0.599-0.869
		C158.492,208.109,144.107,208.109,129.266,208.109z M238.778,204.598c4.86,1.544,40.178,1.514,43.77,0.259
		C279.469,203.517,245.382,203.148,238.778,204.598z M184.714,207.776c0.003,0.527,0.007,1.053,0.01,1.58
		c14.303,0,28.606,0,43.025,0c-0.398-1.254-1.168-1.565-2.014-1.566C212.062,207.77,198.388,207.776,184.714,207.776z
		 M238.78,208.583c4.834,1.553,40.142,1.531,43.766,0.272C279.436,207.5,245.513,207.125,238.78,208.583z M130.036,252.092
		c-0.039,0.328-0.077,0.655-0.116,0.983c4.697,1.349,9.605,0.465,14.399,0.635c4.799,0.169,9.612,0.114,14.414-0.015
		c4.73-0.127,9.549,0.615,14.205-0.442c-0.02-0.387-0.039-0.774-0.059-1.16C158.598,252.092,144.317,252.092,130.036,252.092z
		 M282.652,230.206c-8.703-1.346-40.511-0.75-43.821,1.367c14.768,0,28.666,0.009,42.564-0.027
		C282.084,231.545,282.533,230.938,282.652,230.206z M173.917,205.375c-1.273-1.106-1.511-1.494-1.751-1.495
		c-13.424-0.056-26.849-0.091-40.274-0.084c-0.952,0.001-1.973,0.258-1.879,1.579C144.327,205.375,158.61,205.375,173.917,205.375z
		 M239.698,241.509c-0.011,0.413-0.023,0.825-0.034,1.238c4.726,0,9.452,0.002,14.179-0.001c4.81-0.003,9.623,0.1,14.428-0.048
		c4.548-0.14,9.203,0.683,13.631-0.845C277.894,240.407,243.438,240.452,239.698,241.509z M239.557,224.929
		c-0.207,1.641-0.139,2.692,1.235,2.703c6.322,0.051,12.647,0.095,18.968-0.029c1.605-0.032,1.678-1.229,0.828-2.673
		C253.725,224.929,246.805,224.929,239.557,224.929z M173.058,227.448c0.178-1.507,0.185-2.607-1.189-2.625
		c-6.288-0.08-12.577-0.1-18.865-0.058c-1.547,0.01-1.919,1-1.257,2.683C158.655,227.448,165.681,227.448,173.058,227.448z
		 M151.709,230.09c5.089,2.276,18.618,1.959,21.775,0C165.815,230.09,158.762,230.09,151.709,230.09z M131.153,244.851
		c-0.061,0.178-0.122,0.356-0.183,0.534c13.813,0,27.626,0,41.439,0c-0.001-0.178-0.003-0.356-0.005-0.534
		C158.654,244.851,144.903,244.851,131.153,244.851z M196.718,212.064c5.019,2.371,16.879,2.012,19.448,0
		C209.454,212.064,203.086,212.064,196.718,212.064z M269.872,212.754c-3.336-1.418-14.555-1.441-18.167-0.037
		C255.174,214.155,266.308,214.178,269.872,212.754z M142.722,212.329c3.724,1.871,14.929,1.777,18.153-0.131
		C154.835,211.787,148.791,211.57,142.722,212.329z M156.626,256.474c-0.003-0.139-0.005-0.277-0.008-0.416
		c-8.49,0-16.981,0-25.471,0c0.003,0.139,0.006,0.277,0.008,0.416C139.645,256.474,148.136,256.474,156.626,256.474z
		 M271.356,245.63c0.067-0.18,0.134-0.359,0.201-0.539c-6.803,0-13.607,0-20.411,0c0.004,0.18,0.008,0.36,0.012,0.539
		C257.89,245.63,264.623,245.63,271.356,245.63z M152.214,233.884c-0.07,0.169-0.14,0.339-0.21,0.508c3.813,0,7.626,0,11.438,0
		c-0.007-0.169-0.014-0.339-0.02-0.508C159.686,233.884,155.95,233.884,152.214,233.884z"/>
	<path fill="#FDC76D" d="M291.216,152.549c-21.482,0.046-42.964,0.119-64.446,0.133c-33.808,0.023-67.615,0.007-101.423,0.001
		c-1.331,0-2.662-0.078-3.993-0.119c0-21.447,0-42.894,0-64.199c2.034-1.011,3.72-0.657,5.339-0.658
		c53.323-0.021,106.646-0.028,159.969,0.032c1.701,0.002,4.267-1.245,4.71,2.015C291.321,110.685,291.268,131.617,291.216,152.549z
		 M146.751,100.254c0,13.491,0,26.341,0,39.131c13.266,0,26.141,0,39.017,0c0-13.173,0-26.022,0-39.131
		C172.625,100.254,159.886,100.254,146.751,100.254z M235.293,100.333c-14.453,0-29.143,0-43.882,0
		c-0.308,1.502-0.767,2.772,0.431,4.18c14.256,0,28.692,0,43.098,0C235.667,103.273,236.37,102.129,235.293,100.333z
		 M265.669,112.634c-2.261-1.223-3.95-0.87-5.561-0.871c-21.299-0.024-42.597-0.035-63.895,0.022
		c-1.57,0.004-3.554-0.825-4.845,1.27C196.561,114.191,261.509,113.982,265.669,112.634z M253.553,122.314
		c-1.448-1.851-2.508-1.595-3.458-1.583c-19.402,0.259-38.812-0.555-58.208,0.431c-0.086,0.004-0.192,0.221-0.235,0.355
		c-0.201,0.636,0.57,0.129-0.441,0.796C212.057,122.314,232.447,122.314,253.553,122.314z M265.566,117.489
		c-0.001-0.149-0.001-0.299-0.002-0.448c-24.531,0-49.061,0-73.592,0c0.001,0.149,0.001,0.299,0.002,0.448
		C216.505,117.489,241.035,117.489,265.566,117.489z M265.52,108.552c0-0.174,0-0.348,0-0.522c-24.528,0-49.057,0-73.585,0
		c0,0.174,0,0.348,0,0.522C216.463,108.552,240.991,108.552,265.52,108.552z M134.098,123.455c0-2.596,0-4.831,0-7.606
		c-1.81,1.37-3.176,2.423-3.81,4.146C131.244,121.355,132.168,122.492,134.098,123.455z M278.588,116.17c0,2.67,0,4.861,0,7.713
		c1.605-1.644,3.069-2.432,3.63-4.134C281.415,118.21,280.318,117.076,278.588,116.17z"/>
	<path fill="#FDFDFD" d="M291.265,30.759c0.011,17.332,0.023,34.664,0.034,51.995c-0.108,1.142,0.173,2.334-0.6,3.705
		c-56.094,0-112.349,0-169.405,0c0-18.56,0-37.139,0-55.718c23.759-0.043,47.518-0.112,71.277-0.122
		c31.737-0.014,63.473,0.017,95.21,0.035C288.942,30.655,290.104,30.723,291.265,30.759z M282.149,39.309
		c-0.7-0.595-1.543-0.494-2.37-0.494c-48.797,0.036-97.594,0.069-146.392,0.112c-1.14,0.001-2.362-0.221-3.558,1.096
		c-0.658,3.233-0.522,6.784-0.128,10.227c1.863,0.956,3.552,0.568,5.177,0.575c10.326,0.044,20.652,0.046,30.977,0.036
		c32.808-0.031,65.617-0.073,98.425-0.111c6.06,0.412,12.108,0.2,18.417,0.087C282.692,46.694,283.684,42.969,282.149,39.309z
		 M197.95,59.933c-3.603-0.081-6.965-0.432-10.695,0.305c0.351,3.581-0.595,6.986,0.532,10.137c3.541,0,6.778,0,10.163,0
		C197.95,66.8,197.95,63.567,197.95,59.933z M225.047,70.434c0-3.639,0-6.877,0-10.51c-3.603-0.099-6.96-0.496-10.49,0.294
		c-0.296,3.502-0.299,6.733,0.012,10.216C218.13,70.434,221.365,70.434,225.047,70.434z M170.148,70.501
		c1.508-3.545-0.018-6.865,0.126-10.475c-3.521-0.151-6.72-0.702-9.747,0.291c0,3.508,0,6.745,0,10.184
		C163.764,70.501,166.695,70.501,170.148,70.501z M252.059,70.416c0-3.705,0-6.95,0-10.47c-3.401-0.118-6.474-0.361-9.755,0.218
		c-0.372,3.465-0.389,6.705,0.024,10.252C245.587,70.416,248.657,70.416,252.059,70.416z M238.811,75.971
		c0.001,0.173,0.002,0.345,0.003,0.518c5.532,0,11.064,0,16.596,0c-0.001-0.173-0.002-0.345-0.003-0.518
		C249.875,75.971,244.343,75.971,238.811,75.971z M255.593,74.521c-0.003-0.155-0.006-0.309-0.009-0.464c-5.53,0-11.06,0-16.59,0
		c0.003,0.155,0.006,0.309,0.009,0.464C244.533,74.521,250.063,74.521,255.593,74.521z M173.758,76.501
		c-0.004-0.143-0.009-0.287-0.013-0.43c-5.515,0-11.03,0-16.545,0c0.004,0.144,0.008,0.287,0.012,0.43
		C162.728,76.501,168.243,76.501,173.758,76.501z M173.528,74.512c-5.441-0.75-10.983-0.99-16.527,0
		C162.51,74.512,168.019,74.512,173.528,74.512z M200.718,74.56c-0.049-0.16-0.097-0.32-0.146-0.481c-5.225,0-10.45,0-15.675,0
		c0.006,0.16,0.012,0.32,0.017,0.481C190.182,74.56,195.45,74.56,200.718,74.56z M211.757,73.999c0.001,0.17,0.002,0.34,0.003,0.51
		c5.372,0,10.745,0,16.117,0c-0.001-0.17-0.002-0.34-0.003-0.51C222.502,73.999,217.129,73.999,211.757,73.999z M211.737,75.994
		c0,0.174-0.001,0.349-0.001,0.523c5.385,0,10.77,0,16.155,0c0.001-0.174,0.001-0.349,0.001-0.523
		C222.507,75.994,217.122,75.994,211.737,75.994z M200.69,76.516c-0.014-0.172-0.028-0.343-0.042-0.515c-5.329,0-10.659,0-15.988,0
		c0,0.172,0,0.343,0.001,0.515C190.003,76.516,195.346,76.516,200.69,76.516z M242.921,78.189c2.632,0.844,5.277,0.687,8.987,0.167
		C248.215,77.472,245.57,77.651,242.921,78.189z M169.432,78.555c-0.018-0.163-0.036-0.327-0.054-0.49c-2.511,0-5.021,0-7.532,0
		c0.008,0.163,0.017,0.327,0.025,0.49C164.392,78.555,166.912,78.555,169.432,78.555z M223.587,78.577
		c-2.485-0.871-5.085-1.162-7.648,0C218.489,78.577,221.038,78.577,223.587,78.577z M196.495,78.535
		c-2.437-0.807-5.037-1.072-7.624,0C191.413,78.535,193.954,78.535,196.495,78.535z"/>
	<path fill="#CBCAC9" d="M66.508,93.816c0.939-1.809,2.622-0.897,3.924-0.926c7.29-0.164,14.584-0.172,21.876-0.233
		c6.633,0.246,13.265,0.432,19.895-0.082c-0.003,13.101-0.007,26.202-0.01,39.304c-4.997-0.085-9.994-0.17-14.991-0.255
		c-0.883-1.501-0.667-3.204-0.954-4.819c-0.871-4.902-0.71-9.883-1.36-14.792c-0.584-4.41-1.586-8.761-1.617-13.247
		c-0.011-1.584,0.554-3.342-1.014-4.951C83.797,93.816,75.152,93.816,66.508,93.816z"/>
	<path fill="#1C252C" d="M300.359,92.581c-0.063-2.942-0.126-5.884-0.19-8.826c0.096-2.024,0.193-4.049,0.29-6.073
		c6.938-0.113,13.875-0.298,20.811,0.103c0.682,5.027-1.51,9.859-1.005,14.874C313.629,92.897,306.993,93.086,300.359,92.581z"/>
	<path fill="#1C252C" d="M112.203,92.575c-6.63,0.514-13.262,0.328-19.895,0.082c0.673-5.022-1.533-9.85-1.005-14.862
		c6.924-0.409,13.85-0.26,20.776-0.083C112.12,82.666,112.161,87.621,112.203,92.575z"/>
	<path fill="#CBA965" d="M97.202,131.624c4.997,0.085,9.994,0.17,14.991,0.255c0.017,6.263,0.034,12.526,0.05,18.79l-0.49,0.038
		l-0.487-0.061c-0.128-1.881,0.521-3.867-0.773-5.884c-4.029,0-8.084,0-12.138,0l-0.128-0.038c-0.37-4.324-1.304-8.604-0.992-12.98
		L97.202,131.624z"/>
	<path fill="#E3E2E2" d="M301.251,263.732c0.002,1.362,0.004,2.724,0.005,4.086l-0.279,0.202l-0.327-0.107
		c-1.309-0.478-2.964,0.424-4.197-1.131C297.26,264.531,298.817,263.49,301.251,263.732z"/>
	<path fill="#FBFBFB" d="M121.657,24.032c13.319,0,26.639,0,40.032,0c-0.269,1.369-1.107,1.522-1.938,1.523
		c-12.687,0.016-25.374,0.011-38.061,0.011C121.679,25.055,121.668,24.543,121.657,24.032z"/>
	<path fill="#FBF2EF" d="M256.521,23.013c0.968,1.002,0.494,1.991,0.552,3.3c-5.996,0-11.886,0-18.049,0
		c-0.969-0.64-0.57-1.802-0.442-3.3C244.639,23.013,250.647,23.013,256.521,23.013z"/>
	<path fill="#FBF2EF" d="M260.699,26.344c-0.761-1.153-0.683-2.091-0.178-3.377c5.558,0,11.256,0,17.071,0
		c1.112,0.791,0.537,1.956,0.546,3.377C272.325,26.344,266.637,26.344,260.699,26.344z"/>
	<path fill="#535259" d="M290.789,22.793c0.517,1.509,0.646,2.449-0.163,3.66c-2.687,0.486-5.606,0.165-8.347,0.131
		c-1.349-0.978-1.078-2.102-0.745-3.456C284.492,22.271,287.548,22.71,290.789,22.793z"/>
	<path fill="#FCFCFC" d="M195.095,24.309c3.943-0.914,7.379-0.658,11.065-0.282C203.511,26.015,199.466,26.147,195.095,24.309z"/>
	<path fill="#FEFDFD" d="M190.987,24.637c-3.423,1.282-6.852,1.059-10.598,0.527C182.986,23.477,185.438,23.3,190.987,24.637z"/>
	<path fill="#FBFBFB" d="M283.62,12.165c0.875,0.906,0.575,1.884,0.292,3.228c-51.644,0-103.36,0-155.213,0
		c-0.695-2.084,0.075-3.237,2.103-3.561c0.977-0.156,1.995-0.071,2.994-0.071c48.66-0.002,97.32-0.005,145.981,0.015
		C281.072,11.777,282.437,11.444,283.62,12.165z"/>
	<path fill="#C9C9C8" d="M167.292,4.78c12.734,0,25.468,0,37.93,0c1.504,1.288,0.885,2.716,1.087,3.962
		c-6.376,0.158-12.786,0.791-19.12,0.341c-6.429-0.458-12.756-0.271-18.878,0.731C166.745,8.099,167.512,6.358,167.292,4.78z"/>
	<path fill="#F4825F" d="M112.345,4.723c5.315,0.02,10.629,0.04,15.944,0.06c0,1.148,0,2.297,0,3.778c-5.296,0-10.34,0-15.417,0
		C111.918,7.354,112.388,6.001,112.345,4.723z"/>
	<path fill="#FDFDFD" d="M66.508,93.816c8.645,0,17.289,0,25.749,0c1.568,1.608,1.003,3.366,1.014,4.951
		c0.031,4.486,1.033,8.837,1.617,13.247c0.65,4.909,0.489,9.89,1.36,14.792c0.287,1.615,0.071,3.318,0.954,4.819l0.032,0.12
		c-10.321-0.035-20.643-0.07-30.964-0.105C66.349,119.031,66.428,106.424,66.508,93.816z"/>
	<path fill="#FDD47F" d="M66.27,131.639c10.321,0.035,20.643,0.07,30.964,0.105c-0.312,4.376,0.622,8.656,0.992,12.98
		c-22.61,0.016-45.22,0.032-67.83,0.048c0.321-4.363-1.1-8.85,0.924-13.093c0.972,0.01,1.945,0.019,2.917,0.029
		c5.683-0.012,11.367-0.024,17.05-0.036C56.281,131.661,61.275,131.65,66.27,131.639z"/>
	<path fill="#FDFDFD" d="M346.309,131.63c-10.304-0.03-20.608-0.061-30.911-0.091c2.035-11.84,2.805-23.818,3.916-35.759
		c0.87-0.35,0.931-1.147,1.056-1.909c8.559-0.013,17.118-0.026,25.677-0.039C346.133,106.432,346.221,119.031,346.309,131.63z"/>
	<path fill="#CBCAC9" d="M319.313,95.78c-1.111,11.941-1.881,23.919-3.916,35.759l-0.145,0.335
		c-4.96-0.001-9.919-0.001-14.879-0.002c-0.005-13.097-0.01-26.194-0.014-39.292c6.633,0.505,13.269,0.316,19.906,0.077
		c7.292,0.063,14.585,0.07,21.874,0.24c1.294,0.03,2.985-0.9,3.906,0.935c-8.559,0.013-17.118,0.026-25.677,0.039
		C319.205,94.058,319.28,94.93,319.313,95.78z"/>
	<path fill="#CBA965" d="M300.374,131.873c4.96,0.001,9.919,0.001,14.879,0.002c0.734,4.354-1.56,8.5-0.887,12.85l-0.133,0.039
		c-4.181,0.147-8.396-0.407-12.471,0.329c-0.806,1.987-0.389,3.785-0.451,5.549l-0.487,0.066l-0.49-0.037
		C300.347,144.404,300.36,138.138,300.374,131.873z"/>
	<path fill="#F2825F" d="M407.285,132.539c-0.026,1.633,0.151,3.3-0.118,4.891c-0.66,3.904-4.58,6.972-9.231,7.282
		c-1.948,0.13-4.008,0.136-5.967,0.104c0.033-3.777,0.151-7.727,0.202-11.504c0.004-0.304,0.177-0.606,0.445-1.465
		C397.398,132.07,402.355,130.84,407.285,132.539z"/>
	<path fill="#F3F3F3" d="M239.269,237.711c0.352-0.961,1.183-1.758,0.994-2.904c12.775-0.028,25.55-0.028,38.324-0.12
		c1.554-0.011,3.35,0.764,4.643-0.858c2.226-3.141,4.969-5.771,8.014-8.103c0.007,2.006,0.013,4.011,0.02,6.017
		c-2.321-0.09-3.192,1.963-4.639,3.156c-1.488,1.226-2.513,2.973-4.318,3.847c-1.007-1.716-2.677-0.995-4.063-1
		C265.252,237.695,252.26,237.713,239.269,237.711z"/>
	<path fill="#C99147" d="M301.311,150.641c0.061-1.764-0.356-3.562,0.451-5.549c4.075-0.736,8.29-0.181,12.471-0.329
		c0.485,2.059-1.286,3.745-0.955,5.779C309.291,150.943,305.301,150.769,301.311,150.641z"/>
	<path fill="#CB9247" d="M98.354,144.762c4.055,0,8.11,0,12.138,0c1.294,2.017,0.645,4.003,0.773,5.884
		c-3.99-0.034-7.979-0.067-11.969-0.101C99.627,148.512,97.868,146.82,98.354,144.762z"/>
	<path fill="#CBCAC9" d="M184.527,252.007c0-8.813,0-17.625,0-26.869c14.395,0,28.754,0,43.543,0c0,8.988,0,17.92,0,26.851
		C213.556,251.664,199.042,251.618,184.527,252.007z M203.604,236.219c-0.411,1.577-0.499,3.239-0.037,4.999
		c2.086-0.496,3.617-1.263,4.37-3.069c-0.423-0.839-1.101-1.252-1.887-1.553C205.313,236.313,204.651,235.708,203.604,236.219z"/>
	<path fill="#FDC76D" d="M227.829,190.26c-14.481,0-28.562,0-43.066,0c0-8.823,0-17.35,0-26.212c14.236,0,28.45,0,43.066,0
		C227.829,172.529,227.829,181.062,227.829,190.26z"/>
	<path fill="#FDC76D" d="M129.692,189.968c0-8.687,0-17.097,0-25.879c14.449,0,28.784,0,43.369,0c0,8.586,0,16.998,0,25.356
		C170.579,190.466,136.343,190.911,129.692,189.968z"/>
	<path fill="#F48260" d="M239.466,190.145c0-9.267,0-17.538,0-26.118c14.255,0,28.309,0,42.603,0
		c1.496,8.415,1.02,16.778,0.107,25.716C268.083,190.765,253.945,190.427,239.466,190.145z"/>
	<path fill="#F48361" d="M129.728,240.79c0-5.529,0-10.451,0-15.686c5.686-0.868,11.248-0.114,17.041-0.423
		c0.666,5.505,0.454,10.555,0.118,15.846C141.186,241.089,135.751,240.776,129.728,240.79z"/>
	<path fill="#49515A" d="M184.527,252.007c14.514-0.389,29.028-0.343,43.543-0.018c-0.067,1.452,0.336,2.951-0.446,4.574
		c-14.236,0-28.489,0-42.732,0C184.123,254.945,184.498,253.462,184.527,252.007z"/>
	<path fill="#535A63" d="M282.663,200.583c-14.471,0-28.706,0-42.806,0c-0.905-1.084-0.525-2.046-0.36-2.941
		c0.644-0.773,1.494-0.716,2.319-0.716c12.474,0.004,24.947,0.029,37.421,0.001C281.423,196.922,283.431,196.899,282.663,200.583z"
		/>
	<path fill="#535A64" d="M172.775,196.962c0.604,1.613,0.473,2.532,0.276,3.621c-14.483,0-28.698,0-43.064,0
		c-0.699-2.392-0.151-3.628,2.379-3.626C145.789,196.967,159.212,196.962,172.775,196.962z"/>
	<path fill="#545B64" d="M184.922,200.488c-0.724-1.074-0.557-1.985-0.016-2.983c0.39-0.151,0.843-0.479,1.297-0.481
		c12.788-0.055,25.577-0.066,38.365-0.114c2.25-0.008,4.137,0.227,3.294,3.578C213.582,200.488,199.214,200.488,184.922,200.488z"/>
	<path fill="#49515A" d="M271.499,256.628c-10.571,0-21.142,0-31.757,0c-0.604-1.621-0.58-3.009,0.048-4.741
		c10.536,0,21.104,0,31.673,0C271.475,253.467,271.487,255.047,271.499,256.628z"/>
	<path fill="#DEDDDD" d="M228.781,204.716c-5.421,1.505-40.749,1.331-44.053,0.048C187.93,203.463,222.976,203.229,228.781,204.716z
		"/>
	<path fill="#DEDDDC" d="M173.383,249.355c-14.888,0-29.275,0-44.199,0c1.095-0.711,0.313-0.218,0.543-0.844
		c0.05-0.136,0.165-0.346,0.262-0.352c13.722-0.956,27.464-0.163,41.194-0.43C171.852,247.716,172.491,247.803,173.383,249.355z"/>
	<path fill="#DDDDDC" d="M129.266,208.109c14.842,0,29.227,0,44.205,0c-1.157,0.728-0.353,0.249-0.599,0.869
		c-0.053,0.135-0.175,0.337-0.277,0.344c-13.724,0.912-27.464,0.203-41.196,0.414C130.733,209.746,130.09,209.673,129.266,208.109z"
		/>
	<path fill="#DEDDDC" d="M238.778,204.598c6.604-1.451,40.691-1.082,43.77,0.259C278.956,206.113,243.638,206.143,238.778,204.598z"
		/>
	<path fill="#DDDDDC" d="M184.714,207.776c13.674,0,27.348-0.006,41.022,0.014c0.845,0.001,1.615,0.312,2.014,1.566
		c-14.419,0-28.722,0-43.025,0C184.72,208.829,184.717,208.302,184.714,207.776z"/>
	<path fill="#DDDDDC" d="M238.78,208.583c6.733-1.457,40.656-1.083,43.766,0.272C278.922,210.114,243.614,210.136,238.78,208.583z"
		/>
	<path fill="#E1E0DF" d="M130.036,252.092c14.281,0,28.563,0,42.844,0c0.02,0.387,0.039,0.774,0.059,1.16
		c-4.656,1.057-9.475,0.315-14.205,0.442c-4.802,0.129-9.615,0.184-14.414,0.015c-4.794-0.169-9.702,0.715-14.399-0.635
		C129.959,252.747,129.997,252.419,130.036,252.092z"/>
	<path fill="#DDDDDC" d="M282.652,230.206c-0.119,0.731-0.567,1.339-1.257,1.341c-13.898,0.035-27.796,0.027-42.564,0.027
		C242.141,229.456,273.949,228.86,282.652,230.206z"/>
	<path fill="#DEDDDC" d="M173.917,205.375c-15.306,0-29.589,0-43.903,0c-0.094-1.321,0.927-1.579,1.879-1.579
		c13.425-0.007,26.849,0.028,40.274,0.084C172.406,203.881,172.644,204.269,173.917,205.375z"/>
	<path fill="#DDDDDC" d="M239.698,241.509c3.74-1.057,38.197-1.102,42.204,0.345c-4.427,1.528-9.082,0.705-13.631,0.845
		c-4.805,0.148-9.618,0.045-14.428,0.048c-4.726,0.003-9.452,0.001-14.179,0.001C239.675,242.334,239.686,241.922,239.698,241.509z"
		/>
	<path fill="#CDCCCB" d="M239.557,224.929c7.248,0,14.169,0,21.031,0c0.85,1.444,0.777,2.642-0.828,2.673
		c-6.321,0.124-12.645,0.081-18.968,0.029C239.418,227.621,239.35,226.57,239.557,224.929z"/>
	<path fill="#CDCCCB" d="M173.058,227.448c-7.377,0-14.403,0-21.312,0c-0.661-1.682-0.29-2.672,1.257-2.683
		c6.288-0.042,12.578-0.022,18.865,0.058C173.243,224.841,173.236,225.941,173.058,227.448z"/>
	<path fill="#F9C773" d="M271.499,256.628c-0.012-1.58-0.024-3.161-0.037-4.741c3.635,0,7.27,0,10.847,0
		c1.216,1.402,0.954,2.813,0.399,4.591C279.039,257.024,275.265,256.732,271.499,256.628z"/>
	<path fill="#DDDDDC" d="M151.709,230.09c7.053,0,14.107,0,21.775,0C170.327,232.049,156.798,232.366,151.709,230.09z"/>
	<path fill="#CAC9C8" d="M283.23,233.83c-1.292,1.622-3.089,0.847-4.643,0.858c-12.774,0.091-25.549,0.092-38.324,0.12
		c-0.338-2.32,1.494-1.003,2.064-1.006C255.961,233.74,269.596,233.796,283.23,233.83z"/>
	<path fill="#CAC9C8" d="M131.153,244.851c13.751,0,27.501,0,41.252,0c0.002,0.178,0.003,0.356,0.005,0.534
		c-13.813,0-27.626,0-41.439,0C131.031,245.207,131.092,245.029,131.153,244.851z"/>
	<path fill="#D0CFCE" d="M239.269,237.711c12.992,0.002,25.983-0.016,38.975,0.034c1.387,0.005,3.057-0.716,4.063,1
		c-12.996-0.002-25.992,0.018-38.988-0.035C241.94,238.705,240.261,239.46,239.269,237.711z"/>
	<path fill="#DEDDDC" d="M196.718,212.064c6.368,0,12.736,0,19.448,0C213.597,214.076,201.737,214.435,196.718,212.064z"/>
	<path fill="#DDDCDC" d="M269.872,212.754c-3.564,1.424-14.699,1.401-18.167-0.037C255.317,211.313,266.537,211.336,269.872,212.754
		z"/>
	<path fill="#DDDCDC" d="M142.722,212.329c6.069-0.759,12.112-0.542,18.153-0.131C157.651,214.106,146.446,214.2,142.722,212.329z"
		/>
	<path fill="#CAC9C8" d="M156.626,256.474c-8.49,0-16.981,0-25.471,0c-0.003-0.139-0.005-0.277-0.008-0.416
		c8.49,0,16.981,0,25.471,0C156.621,256.197,156.623,256.335,156.626,256.474z"/>
	<path fill="#CCCBCA" d="M271.356,245.63c-6.733,0-13.465,0-20.198,0c-0.004-0.18-0.008-0.359-0.012-0.539
		c6.804,0,13.607,0,20.411,0C271.49,245.271,271.423,245.451,271.356,245.63z"/>
	<path fill="#CAC9C8" d="M152.214,233.884c3.736,0,7.472,0,11.208,0c0.007,0.169,0.014,0.339,0.02,0.508c-3.813,0-7.626,0-11.438,0
		C152.074,234.222,152.144,234.053,152.214,233.884z"/>
	<path fill="#FDFDFD" d="M146.751,100.254c13.135,0,25.874,0,39.017,0c0,13.109,0,25.958,0,39.131c-12.875,0-25.751,0-39.017,0
		C146.751,126.595,146.751,113.745,146.751,100.254z"/>
	<path fill="#56585A" d="M235.293,100.333c1.077,1.796,0.374,2.941-0.354,4.18c-14.406,0-28.842,0-43.098,0
		c-1.197-1.408-0.738-2.678-0.431-4.18C206.15,100.333,220.84,100.333,235.293,100.333z"/>
	<path fill="#FCE7C3" d="M265.669,112.634c-4.16,1.347-69.108,1.557-74.302,0.421c1.291-2.095,3.275-1.266,4.845-1.27
		c21.298-0.058,42.597-0.047,63.895-0.022C261.719,111.765,263.408,111.411,265.669,112.634z"/>
	<path fill="#FBE6C3" d="M253.553,122.314c-21.106,0-41.496,0-62.342,0c1.011-0.666,0.24-0.16,0.441-0.796
		c0.042-0.135,0.149-0.351,0.235-0.355c19.396-0.987,38.806-0.172,58.208-0.431C251.045,120.718,252.105,120.463,253.553,122.314z"
		/>
	<path fill="#FBFBFB" d="M265.566,117.489c-24.531,0-49.062,0-73.592,0c-0.001-0.149-0.001-0.299-0.002-0.448
		c24.531,0,49.061,0,73.592,0C265.565,117.19,265.565,117.34,265.566,117.489z"/>
	<path fill="#FCFCFB" d="M265.52,108.552c-24.528,0-49.057,0-73.585,0c0-0.174,0-0.348,0-0.522c24.528,0,49.057,0,73.585,0
		C265.52,108.204,265.52,108.378,265.52,108.552z"/>
	<path fill="#FEF9F2" d="M134.098,123.455c-1.93-0.962-2.854-2.1-3.81-3.461c0.634-1.722,2-2.775,3.81-4.146
		C134.098,118.623,134.098,120.858,134.098,123.455z"/>
	<path fill="#F5F2EB" d="M278.588,116.17c1.73,0.906,2.827,2.041,3.63,3.579c-0.561,1.702-2.026,2.49-3.63,4.134
		C278.588,121.031,278.588,118.839,278.588,116.17z"/>
	<path fill="#FDC76E" d="M264.281,50.75c-32.808,0.038-65.617,0.08-98.425,0.111c-10.326,0.01-20.652,0.008-30.977-0.036
		c-1.625-0.007-3.314,0.38-5.177-0.575c-0.394-3.443-0.53-6.993,0.128-10.227c1.196-1.317,2.418-1.095,3.558-1.096
		c48.797-0.043,97.594-0.076,146.392-0.112c0.826-0.001,1.669-0.102,2.37,0.494c-5.768,0-11.536,0-17.868,0
		C264.281,43.54,264.281,47.145,264.281,50.75z M260.75,42.995c-14.103,0-28.155,0-42.386,0c0.031,1.767-0.652,3.237,0.601,4.549
		c13.94,0,27.871,0,41.788,0C261.436,45.891,261.48,44.498,260.75,42.995z M160.665,45.557c-0.037-0.178-0.074-0.355-0.111-0.533
		c-3.509,0-7.018,0-10.528,0c0.008,0.178,0.015,0.355,0.023,0.533C153.587,45.557,157.126,45.557,160.665,45.557z M176.43,45.553
		c-3.415-0.837-6.993-1.245-10.546,0C169.4,45.553,172.915,45.553,176.43,45.553z M134.254,44.833
		c-0.081,0.187-0.162,0.373-0.242,0.56c3.518,0,7.036,0,10.553,0c-0.007-0.187-0.015-0.373-0.022-0.56
		C141.113,44.833,137.683,44.833,134.254,44.833z M181.899,44.88c0.029,0.178,0.057,0.356,0.086,0.535c3.207,0,6.415,0,9.622,0
		c-0.007-0.178-0.015-0.356-0.022-0.535C188.356,44.88,185.128,44.88,181.899,44.88z"/>
	<path fill="#4B535D" d="M264.281,50.75c0-3.605,0-7.211,0-11.441c6.331,0,12.1,0,17.868,0c1.535,3.66,0.543,7.385,0.55,11.528
		C276.39,50.95,270.342,51.162,264.281,50.75z"/>
	<path fill="#F08565" d="M197.95,59.933c0,3.634,0,6.867,0,10.441c-3.385,0-6.621,0-10.163,0c-1.127-3.151-0.182-6.556-0.532-10.137
		C190.985,59.501,194.347,59.853,197.95,59.933z"/>
	<path fill="#F48766" d="M225.047,70.434c-3.682,0-6.917,0-10.478,0c-0.311-3.483-0.308-6.714-0.012-10.216
		c3.53-0.79,6.887-0.393,10.49-0.294C225.047,63.557,225.047,66.795,225.047,70.434z"/>
	<path fill="#F58462" d="M170.148,70.501c-3.454,0-6.384,0-9.621,0c0-3.439,0-6.676,0-10.184c3.027-0.993,6.227-0.442,9.747-0.291
		C170.131,63.636,171.656,66.957,170.148,70.501z"/>
	<path fill="#F48462" d="M252.059,70.416c-3.402,0-6.472,0-9.731,0c-0.413-3.547-0.396-6.787-0.024-10.252
		c3.281-0.578,6.354-0.336,9.755-0.218C252.059,63.465,252.059,66.71,252.059,70.416z"/>
	<path fill="#8D9197" d="M238.811,75.971c5.532,0,11.064,0,16.596,0c0.001,0.173,0.002,0.345,0.003,0.518
		c-5.532,0-11.064,0-16.596,0C238.814,76.316,238.813,76.143,238.811,75.971z"/>
	<path fill="#8F9399" d="M255.593,74.521c-5.53,0-11.06,0-16.59,0c-0.003-0.155-0.006-0.309-0.009-0.464c5.53,0,11.06,0,16.59,0
		C255.587,74.212,255.59,74.367,255.593,74.521z"/>
	<path fill="#8D9197" d="M173.758,76.501c-5.515,0-11.03,0-16.545,0c-0.004-0.143-0.008-0.287-0.012-0.43c5.515,0,11.03,0,16.545,0
		C173.75,76.214,173.754,76.357,173.758,76.501z"/>
	<path fill="#8F9499" d="M173.528,74.512c-5.509,0-11.018,0-16.527,0C162.545,73.522,168.088,73.762,173.528,74.512z"/>
	<path fill="#8D9298" d="M200.718,74.56c-5.268,0-10.535,0-15.803,0c-0.006-0.16-0.011-0.32-0.017-0.481c5.225,0,10.45,0,15.675,0
		C200.62,74.239,200.669,74.399,200.718,74.56z"/>
	<path fill="#8C9197" d="M211.757,73.999c5.372,0,10.745,0,16.117,0c0.001,0.17,0.002,0.34,0.003,0.51c-5.372,0-10.745,0-16.117,0
		C211.759,74.339,211.758,74.169,211.757,73.999z"/>
	<path fill="#8A8F95" d="M211.737,75.994c5.385,0,10.77,0,16.155,0c0,0.174-0.001,0.349-0.001,0.523c-5.385,0-10.77,0-16.155,0
		C211.736,76.343,211.737,76.168,211.737,75.994z"/>
	<path fill="#8B9096" d="M200.69,76.516c-5.343,0-10.686,0-16.029,0c0-0.172-0.001-0.343-0.001-0.515c5.329,0,10.659,0,15.988,0
		C200.662,76.173,200.676,76.345,200.69,76.516z"/>
	<path fill="#91969B" d="M242.921,78.189c2.649-0.538,5.294-0.717,8.987,0.167C248.198,78.875,245.553,79.032,242.921,78.189z"/>
	<path fill="#91969B" d="M169.432,78.555c-2.52,0-5.04,0-7.56,0c-0.008-0.163-0.017-0.327-0.025-0.49c2.511,0,5.021,0,7.532,0
		C169.396,78.228,169.414,78.391,169.432,78.555z"/>
	<path fill="#8C9196" d="M223.587,78.577c-2.549,0-5.098,0-7.648,0C218.503,77.415,221.103,77.706,223.587,78.577z"/>
	<path fill="#8F949A" d="M196.495,78.535c-2.541,0-5.083,0-7.624,0C191.458,77.463,194.058,77.728,196.495,78.535z"/>
	<path fill="#E3E2E2" d="M319.313,95.78c-0.033-0.849-0.108-1.721,1.056-1.909C320.244,94.633,320.183,95.43,319.313,95.78z"/>
	<path fill="#F9F9F9" d="M203.604,236.219c1.047-0.511,1.709,0.094,2.446,0.377c0.786,0.301,1.464,0.715,1.887,1.553
		c-0.754,1.806-2.284,2.572-4.37,3.069C203.106,239.458,203.194,237.796,203.604,236.219z"/>
	<path fill="#FBFBFB" d="M260.75,42.995c0.73,1.503,0.685,2.896,0.004,4.549c-13.918,0-27.848,0-41.788,0
		c-1.254-1.313-0.57-2.783-0.601-4.549C232.596,42.995,246.647,42.995,260.75,42.995z"/>
	<path fill="#F9F9F9" d="M160.665,45.557c-3.539,0-7.077,0-10.616,0c-0.008-0.178-0.015-0.355-0.023-0.533c3.509,0,7.018,0,10.528,0
		C160.59,45.201,160.627,45.379,160.665,45.557z"/>
	<path fill="#F9F8F7" d="M176.43,45.553c-3.515,0-7.031,0-10.546,0C169.437,44.308,173.016,44.716,176.43,45.553z"/>
	<path fill="#FCFBF9" d="M134.254,44.833c3.43,0,6.859,0,10.289,0c0.007,0.187,0.015,0.373,0.022,0.56c-3.518,0-7.036,0-10.553,0
		C134.092,45.206,134.173,45.02,134.254,44.833z"/>
	<path fill="#FDFDFD" d="M181.899,44.88c3.229,0,6.457,0,9.686,0c0.007,0.178,0.015,0.356,0.022,0.535c-3.207,0-6.414,0-9.622,0
		C181.956,45.236,181.928,45.058,181.899,44.88z"/>
	<polygon fill="#38424B" points="11.203,137.34 11.318,144.817 0,141.206 	"/>
</g>
<g>
	<path fill="none" d="M13.953,136.566c2.098-0.367,4.099-0.89,5.981-1.683L13.953,136.566z"/>
	<path fill="#EFEFEF" d="M11.203,137.34c0.096,6.331,0.076,4.941,0.076,4.941s13.121,1.686,18.967,2.436l0.15,0.056
		c0.321-4.363-1.1-8.85,0.924-13.093l-11.386,3.204C18.051,135.676,10.896,137.291,11.203,137.34z"/>
</g>
<g>
	<path fill="none" d="M22.656,148.33c-1.402-0.59-2.867-0.993-4.349-1.347L22.656,148.33z"/>
	<path fill="#CBCAC9" d="M30.246,144.716c-5.845-0.75-18.967-2.436-18.967-2.436s0.001,0.201,0.039,2.537l6.989,2.165
		c1.482,0.354,2.947,0.757,4.349,1.347l7.599,2.354C30.252,148.695,30.249,146.706,30.246,144.716z"/>
</g>
</svg>
