<?xml version="1.0" encoding="utf-8"?>
<!-- Generator: Adobe Illustrator 16.0.0, SVG Export Plug-In . SVG Version: 6.00 Build 0)  -->
<!DOCTYPE svg PUBLIC "-//W3C//DTD SVG 1.1//EN" "http://www.w3.org/Graphics/SVG/1.1/DTD/svg11.dtd">
<svg version="1.1" id="Layer_1" xmlns="http://www.w3.org/2000/svg" xmlns:xlink="http://www.w3.org/1999/xlink" x="0px" y="0px"
	 width="418.743px" height="250.41px" viewBox="0 0 418.743 250.41" enable-background="new 0 0 418.743 250.41"
	 xml:space="preserve">
<path fill="#F7F7F7" d="M108.052,209.002c0-0.553-0.448-1-1-1h-0.243c-0.553,0-1,0.447-1,1v15.871c0,0.553,0.447,1,1,1h0.243
	c0.552,0,1-0.447,1-1V209.002z"/>
<g>
	<path fill="#232E38" d="M293.937,0c2.714,0.526,3.25,2.556,3.275,4.859c0.119,10.804,0.282,21.608,0.288,32.412
		c0.006,10.139-0.238,20.277-0.237,30.416c0,9.307,0.205,18.612,0.273,27.919c0.042,5.8,0.003,5.815,5.541,5.814
		c28.789-0.002,57.578-0.013,86.366-0.021c1.165,0,2.335-0.062,3.494,0.022c4.394,0.319,5.867,1.803,5.911,6.264
		c0.105,10.812,0.121,21.623,0.173,32.435c-0.08,14.613-0.16,29.226-0.24,43.839c-2.287,0.022-4.575,0.046-6.863,0.068
		c-0.036-23.64-0.151-47.28-0.025-70.92c0.02-3.617-0.707-4.83-4.608-4.813c-37.627,0.155-75.256,0.15-112.883-0.002
		c-3.842-0.016-4.683,1.126-4.656,4.785c0.168,23.641,0.096,47.283,0.102,70.926c-2.291,0.029-4.582,0.058-6.873,0.087
		c-0.13-8.346-0.261-16.691-0.392-25.038c0.062-4.492,0.149-8.984,0.182-13.477c0.038-5.317,0.018-5.319-5.392-5.318
		c-48.64,0.009-97.28,0.023-145.92,0.012c-2.143,0-4.343,0.357-6.406-0.603c-0.454-3.67-2.87-6.454-4.359-9.656
		c1.326-0.083,2.651-0.237,3.977-0.238c20.484-0.013,40.97-0.005,61.454-0.003c30.478,0.003,60.955,0.011,91.433-0.001
		c5.193-0.002,5.211-0.042,5.226-5.159c0.017-5.663-0.056-11.326,0.011-16.987c0.054-4.611,1.299-5.981,5.883-6.135
		c4.824-0.161,9.663-0.16,14.486,0.017c2.77,0.102,3.744-0.749,3.733-3.644c-0.094-27.979-0.109-55.958,0.016-83.937
		c0.015-3.215-1.066-3.941-4.024-3.812c-4.986,0.217-9.989,0.035-14.986,0.046c-25.311,0.06-50.622,0.127-75.933,0.191
		c-0.022-1.997,0.113-4.012-0.103-5.988c-0.358-3.272,0.891-4.482,4.201-4.273c3.814,0.241,7.654,0.062,11.483,0.056
		C236.341,0.096,265.139,0.047,293.937,0z M331.675,105.147c-0.187-0.747-0.488-1.095-1.042-0.987
		c-0.49,0.095-0.871,0.386-0.707,0.973c0.128,0.455,0.308,0.94,0.945,0.756C331.343,105.751,331.747,105.516,331.675,105.147z"/>
	<path fill="#242F39" d="M366.884,210.218c-30.644-0.055-61.287-0.14-91.931-0.154c-45.304-0.022-90.607,0.005-135.912,0.011
		c-0.003-1.992-0.006-3.984-0.01-5.976c1.997-0.013,3.994-0.034,5.991-0.035c80.553-0.01,161.106-0.019,241.66-0.027
		c0.014,1.98,0.027,3.96,0.041,5.939C380.111,210.056,373.498,210.137,366.884,210.218z"/>
	<path fill="#CAC8C6" d="M409.833,188.052c-1.295,0.362-2.589,0.725-3.884,1.087c-1.323,0.574-2.646,1.149-3.969,1.725
		c-1.298,0.112-2.596,0.226-3.893,0.338c-3.77-0.803-7.557,0.155-11.331-0.108c-16.265-0.034-32.529-0.062-48.795-0.103
		c-24.726-0.06-49.452-0.126-74.178-0.19c-4.713-1.109-9.671-1.235-14.067-3.628c-1.074-0.585-2.387-0.833-0.786-2.246l0.071,0.195
		c1.267,1.651,3.073,0.929,4.63,0.932c20.766,0.043,41.532,0.018,62.298,0.009c0.361-0.031,0.724-0.062,1.085-0.094
		c8.116,0.027,16.232,0.066,24.35,0.068c1.278,0.001,2.693,0.365,3.66-0.933l0.466-0.003l0.465,0.031
		c0.797,1.168,2.034,0.981,3.159,0.938c18.384-0.713,36.719,1.266,55.097,1.006C406.085,187.05,408.221,186.26,409.833,188.052z"/>
	<path fill="#252F39" d="M102.93,210.204c-17.349,0.004-34.697,0.009-52.046,0.014c-6.62-0.071-13.24-0.142-19.86-0.213
		c-0.482-1.969-0.529-3.941-0.059-5.92c27.435-0.008,54.87-0.018,82.306-0.021c5.548-0.001,5.548,0.013,5.507,5.762
		c-4.333,0.119-8.665,0.238-12.997,0.357C104.831,210.19,103.88,210.197,102.93,210.204z"/>
	<path fill="#47505A" d="M197.239-0.73c30.467,0.019,60.934,0.002,91.402,0.043c1.769,0.002,3.675-0.617,5.296,0.687
		c-28.798,0.047-57.596,0.096-86.393,0.142c-3.829,0.006-7.669,0.185-11.483-0.056c-3.31-0.209-4.559,1.001-4.201,4.273
		c0.216,1.976,0.081,3.991,0.103,5.988c0.023,1.989,0.015,3.979,0.078,5.967c0.074,2.386-0.616,4.984,1.758,6.779
		c-1.718-0.022-3.437-0.045-5.155-0.067c2.868-4.062,1.034-8.58,1.248-12.899c0.011-1.995-0.117-4.003,0.065-5.982
		c0.275-2.982-0.767-4.173-3.908-4.061c-5.812,0.209-11.636,0.069-17.455,0.057c-26.598-0.055-53.197-0.116-79.795-0.175
		c1.985-1.302,4.209-0.667,6.313-0.67c29.936-0.038,59.872-0.009,89.808-0.01"/>
	<path fill="#CBCAC9" d="M97.615,240.776c-0.018-2.161,0.059-4.328-0.075-6.482c-0.242-3.888,0.107-7.238,5.338-6.577
		c2.873,0.363,2.071-4.085,4.519-3.544c1.699,0.376,1.326,3.81,4.075,3.585c1.718-0.142,3.363,0.109,4.145,2.012
		c-0.016,2.464-0.169,4.938-0.011,7.391c0.179,2.785-0.916,3.801-3.696,3.701C107.149,240.692,102.38,240.791,97.615,240.776z"/>
	<path fill="#E96D48" d="M412.885,191.747c4.453,2.583,6.562,6.458,5.647,10.38c-1.077,4.622-5.011,7.78-10.084,7.889
		c-3.464,0.074-6.931-0.081-10.396-0.134c-0.087-1.929-0.34-3.863,0.188-5.771C408.936,203.93,412.29,201.099,412.885,191.747z"/>
	<path fill="#FD9878" d="M412.885,191.747c-0.596,9.353-3.949,12.184-14.645,12.363c-0.168-0.021-0.337-0.03-0.507-0.027
		c0.118-4.293,0.235-8.587,0.354-12.881c1.297-0.112,2.595-0.226,3.893-0.338c2.948,0.008,5.896,0.016,8.844,0.023
		C411.527,191.136,412.406,190.962,412.885,191.747z"/>
	<path fill="#E1E0E0" d="M97.615,240.776c4.765,0.015,9.534-0.084,14.293,0.085c2.781,0.1,3.875-0.916,3.696-3.701
		c-0.158-2.453-0.005-4.927,0.011-7.391c1.775,2.024,0.643,4.469,0.948,6.704c0.2,1.469-0.341,3.394,0.414,4.365
		c2.336,3.005,1.468,3.862-1.902,4.11c-1.891,0.139-1.393,1.942-1.554,3.179c-0.139,1.071-0.556,2.142-1.629,2.234
		c-1.397,0.12-1.428-1.19-1.355-2.148c0.199-2.617-0.966-3.438-3.516-3.467c-2.633-0.03-3.658,0.922-3.449,3.491
		c0.08,0.976,0.019,2.209-1.364,2.171c-0.842-0.023-1.529-0.865-1.531-1.731c-0.005-2.463-0.78-3.456-3.531-4.171
		C93.622,243.589,96.99,242.029,97.615,240.776z"/>
	<path fill="#E9E9E9" d="M409.833,188.052c-1.611-1.792-3.747-1.002-5.622-0.976c-18.378,0.26-36.713-1.719-55.097-1.006
		c-1.125,0.043-2.362,0.229-3.159-0.938c17.626-0.039,35.251-0.078,52.877-0.116c2.197,1.919,4.069,1.108,6.116-0.454
		c2.639-2.016,6.028-1.169,7.061,1.795C412.6,188.055,410.892,187.886,409.833,188.052z"/>
	<path fill="#C9C8C7" d="M12.056,202.026c4.934-0.392,9.68,1.511,14.648,1.117c2.264-0.179,3.281-0.849,3.217-3.181
		c-0.081-2.951,0.024-5.907,0.048-8.861l0.489-0.037l0.49,0.028c0.005,4.331,0.011,8.661,0.017,12.992
		c-0.47,1.979-0.424,3.951,0.059,5.92c-6.409-2.007-12.817-4.015-19.226-6.021C11.884,203.331,11.97,202.678,12.056,202.026z"/>
	<path fill="#CCCBCA" d="M398.241,204.11c-0.528,1.908-0.275,3.843-0.188,5.771c-3.776,0.031-7.552,0.062-11.328,0.095
		c-0.014-1.979-0.027-3.959-0.041-5.939l0.432,0.069c3.539-0.008,7.079-0.016,10.619-0.023
		C397.904,204.08,398.073,204.088,398.241,204.11z"/>
	<path fill="#B4BFBF" d="M398.832,185.016c-17.626,0.038-35.251,0.077-52.877,0.116l-0.465-0.031l-0.466,0.003
		c-0.055-0.331-0.109-0.662-0.164-0.993c15.687-0.028,31.372-0.056,47.059-0.084c2.288-0.022,4.576-0.046,6.863-0.068
		C398.798,184.31,398.815,184.664,398.832,185.016z"/>
	<path fill="#3D4750" d="M12.056,202.026c-0.086,0.652-0.258,1.957-0.258,1.957L0,200.216c0,0,6.832-1.887,9.903-3.334
		C13.236,197.501,10.931,200.482,12.056,202.026z"/>
	<path fill="#ECEBEB" d="M410.824,190.887c-2.948-0.008-5.896-0.016-8.844-0.023c1.323-0.575,2.646-1.15,3.969-1.725
		C407.121,190.984,409.596,189.198,410.824,190.887z"/>
	<path fill="#F7F7F7" d="M100.688,130.009c1.489,3.202,3.905,5.986,4.359,9.656c0.499,1.859,1.438,3.672-0.564,5.375
		c-2.988,2.542-5.275,5.846-8.594,8.044c-5.243-4.147-9.175-4.258-11.592,0.453c-1.658,3.233-3.738,3.498-6.726,3.476
		c-12.98-0.096-25.961-0.045-38.942-0.007c-1.694,0.005-3.79-0.683-2.946,2.722c3.603,14.543,16.269,25.924,31.986,26.08
		c17.768,0.176,31.351-11.42,34.195-28.665c-1.675-1.061-3.246-2.062-0.656-3.928c1.185-0.854,2.076-2.103,3.193-3.064
		c1.478-1.271,2.416-0.837,2.476,1.089c0.082,2.624,0.038,5.253,0.047,7.879c-0.281,0.782-0.617,1.549-0.835,2.348
		c-3.801,13.938-12.632,23.096-26.315,27.565c-2.494,0.814-5.121,1.225-7.686,1.822c-2.413-0.006-4.825-0.011-7.237-0.016
		c-6.3-1.38-12.515-2.882-17.919-6.752c-12.736-9.119-18.733-21.613-16.711-36.955c2.07-15.71,11.119-26.61,26.368-31.897
		c0.612-0.212,1.308-0.182,1.964-0.264c2.041-1.482,3.555-3.822,6.43-3.946c2.316,0.333,3.148-0.8,2.93-2.969
		c2.368-4.081,3.629-9.401,10.031-8.971c0.049,4.095,0.179,8.191,0.115,12.284c-0.032,2.086,0.474,3.426,2.754,3.869
		c1.423,0.277,2.759,1.004,4.134,1.528c1.264,0.726,2.669,1.283,3.763,2.21c2.878,2.437,4.819,1.549,6.338-1.482
		c0.318-0.091,0.585-0.262,0.801-0.513c1.402-0.559,2.227-1.774,3.208-2.812c2.64,2.346,5.861,4.189,6.871,7.944
		c-1.623,1.743-3.275,3.46-4.855,5.241C100.406,128.105,99.137,128.887,100.688,130.009z M53.14,141.887
		c-1.963-0.288-3.696,1.513-3.933,4.249c-0.232,2.69,1.099,4.789,4.25,5.021c3.156,0.232,5.394-1.489,5.421-4.378
		C58.906,143.781,57.274,142.24,53.14,141.887z M73.359,139.886c1.221-0.824,2.788-1.595,2.423-3.596
		c-0.315-1.727-1.662-2.357-3.285-2.136c-1.666,0.228-2.74,1.275-2.395,3.011C70.402,138.675,71.469,139.691,73.359,139.886z"/>
	<path fill="#F7F7F7" d="M62.873,85.108c-2.244-1.526-4.799-1.04-7.26-1.096c-3.167-0.073-5.76-1.002-5.732-4.699
		c0.029-3.846,2.779-4.367,5.904-4.303c3.324,0.067,6.653,0.046,9.976-0.061c2.992-0.096,5.288-1.275,5.201-4.694
		c-0.087-3.442-2.408-4.39-5.444-4.323c-1.994,0.043-4,0.133-5.983-0.019c-2.748-0.209-4.915-1.341-4.841-4.528
		c0.071-3.052,1.895-4.427,4.864-4.43c1.164-0.001,2.336,0.065,3.49-0.05c2.824-0.284,4.826-1.704,4.768-4.704
		c-0.06-3.036-2.054-4.305-4.99-4.296c-7.483,0.023-14.966,0.017-22.449,0.021c-1.497,0-3.005,0.11-4.487-0.04
		c-2.796-0.283-4.869-1.743-4.83-4.687c0.04-3.013,2.134-4.282,5.041-4.283c8.813-0.003,17.626-0.002,26.439-0.024
		c7.647-0.019,15.294-0.066,22.941-0.101c3.132,0.031,6.263,0.062,9.395,0.094c3.156,0.041,6.312,0.106,9.468,0.114
		c2.324,0.006,3.784,1.165,4.367,3.329c0.566,2.103-0.747,3.419-2.212,4.637c-0.957,0.796-2.109,0.853-3.236,1.131
		c-2.19,0.542-3.436,2.023-3.333,4.324c0.101,2.26,1.491,3.708,3.57,4.285c1.25,0.346,2.631,0.288,3.954,0.294
		c8.486,0.04,16.973,0.055,25.459,0.062c2.882,0.002,4.873,1.078,5.032,4.235c0.166,3.262-2.063,4.294-4.727,4.659
		c-1.471,0.201-2.99,0.05-4.487,0.057c-10.98,0.05-21.961,0.1-32.942,0.15c-3.578-0.372-7.156-0.375-10.734-0.006
		c-6.695,4.508-12.092,10.451-17.79,16.064C66.004,83.462,64.98,85.127,62.873,85.108z"/>
	<path fill="#232E38" d="M94.875,38.885c-3.132-0.031-6.263-0.062-9.395-0.094c-1.111-11.424-0.267-22.875-0.43-34.312
		c-0.033-2.322,1.14-4.137,3.747-4.513c26.598,0.059,53.197,0.12,79.795,0.175c5.819,0.012,11.644,0.152,17.455-0.057
		c3.142-0.112,4.183,1.079,3.908,4.061c-0.182,1.979-0.054,3.987-0.065,5.982c-0.999,0.009-1.997,0.026-2.996,0.026
		c-28.797,0.008-57.595,0.077-86.392-0.061c-3.564-0.017-5.068,0.605-4.806,4.56c0.363,5.469,0.175,10.983,0.034,16.472
		C95.664,33.716,96.596,36.463,94.875,38.885z"/>
	<path fill="#464E58" d="M64.851,190.838c2.413,0.005,4.825,0.01,7.237,0.016c11.585-0.005,23.17-0.009,34.755-0.013
		c1.331,0.039,2.662,0.098,3.994,0.116c6.51,0.091,8.679,2.177,8.781,8.652c0.055,3.489-0.064,6.98-0.104,10.472
		c-0.248-0.08-0.493-0.165-0.736-0.256c0.041-5.749,0.041-5.763-5.507-5.762c-27.436,0.003-54.871,0.013-82.306,0.021
		c-0.006-4.331-0.012-8.661-0.017-12.992c2.314-0.138,4.629-0.275,6.943-0.413C46.878,190.733,55.865,190.786,64.851,190.838z"/>
	<path fill="#EFEDEC" d="M62.873,85.108c2.107,0.02,3.131-1.646,4.391-2.888c5.698-5.613,11.094-11.557,17.79-16.064
		c-0.801,2.604-0.433,5.253-0.31,7.893c-1.959-1.495-3.701-2.724-5.287,0.643c-0.73,1.551-2.378,2.678-3.64,3.968
		c-2.822,2.887-5.663,5.755-8.685,8.823c2.292,0.96,4.096,0.418,5.844,0.586c1.826,0.061,3.652,0.123,5.479,0.181
		c0.835,0.026,1.936-0.023,2.227,0.774c0.872,2.39,0.41,4.924,0.419,7.401c0.008,2.066-2.026,1.862-3.157,2.661
		c-6.402-0.43-7.663,4.89-10.031,8.971c-1.108-0.546-2.187-1.411-3.337-0.019c-0.976,1.181,0.005,2.03,0.407,2.987
		c-2.875,0.124-4.39,2.464-6.43,3.946c0.171-1.648,0.341-3.297,0.512-4.945c3.844-3.054,7.546-6.236,10.755-10.927
		c-4.223,0-7.496,0-10.769,0c-0.775-1.185-3.203-0.406-3.106-2.647c0.107-2.48-0.796-5.203,0.393-7.373
		c0.957-1.746,3.375-0.775,5.13-0.79C64.548,88.262,63.646,86.71,62.873,85.108z"/>
	<path fill="#FDFDFD" d="M37.892,190.679c-2.314,0.138-4.629,0.275-6.943,0.413l-0.49-0.028l-0.489,0.037
		c-2.266,0.017-4.163,1.836-7.472,1.353c3.491-4.163,6.767-7.64,10.675-10.529C34.745,184.843,36.318,187.761,37.892,190.679z"/>
	<path fill="#F7F7F7" d="M59.051,99.098c3.272,0,6.545,0,10.769,0c-3.209,4.691-6.912,7.874-10.755,10.927
		C59.06,106.382,59.056,102.74,59.051,99.098z"/>
	<path fill="#FCF8F7" d="M37.122,75.047c2.843,0.043,4.518,1.295,4.764,4.049c0.226,2.518-2.029,5.007-4.475,4.82
		c-2.633-0.201-4.302-1.798-4.385-4.431C32.939,76.779,34.607,75.342,37.122,75.047z"/>
	<path fill="#F8EEEB" d="M139.032,204.099c0.003,1.991,0.006,3.983,0.01,5.976c-0.056,8.327-0.091,16.655-0.185,24.982
		c-0.021,1.786,0.526,3.69-0.803,5.289c-0.389-0.776,0.403-1.955-0.691-2.392c-0.246-0.099-0.861,0.727-1.307,1.127
		c-0.088-9.676-0.177-19.351-0.266-29.025c0.007-1.988,0.013-3.977,0.02-5.965c0.291-4.386,0.367-8.771-0.002-13.157
		c0.094-8.932,0.188-17.863,0.281-26.794c0.887-0.007,1.775-0.015,2.663-0.021c0.089,8.93,0.178,17.859,0.268,26.789
		C139.024,195.305,139.028,199.702,139.032,204.099z"/>
	<path fill="#F7F7F7" d="M136.056,239.082c0.445-0.4,1.061-1.226,1.307-1.127c1.094,0.437,0.302,1.615,0.691,2.392
		c-2.133,5.31-5.691,7.537-10.626,6.651c-4.656-0.835-7.653-4.693-7.71-10.057c-0.095-8.953-0.139-17.906-0.204-26.859
		c0.04-3.491,0.16-6.982,0.104-10.472c-0.103-6.476-2.271-8.562-8.781-8.652c-1.332-0.019-2.663-0.077-3.994-0.116
		c4.315-3.906,6.93-3.865,12.96,0.203c1.812,2.647,2.482,5.555,2.352,8.771c-0.138,3.41,0.028,6.833,0.061,10.25
		c-0.046,8.611-0.102,17.223-0.136,25.833c-0.015,3.76,1.076,6.961,5.029,8.195C130.911,245.28,133.582,243.679,136.056,239.082z"/>
	<path fill="#F7F7F7" d="M330.52,76.318c-7.205,1.948-11.524-0.687-11.895-8.129c-0.485-9.776-0.392-19.588-0.277-29.382
		c0.04-3.486,0.468-6.963-0.075-10.445c-0.449-2.888,0.469-4.233,3.717-4.203c15.145,0.14,30.292,0.141,45.438,0.044
		c2.84-0.019,3.735,0.925,3.708,3.731c-0.122,12.315-0.154,24.634-0.008,36.949c0.038,3.186-1.503,3.43-3.995,3.406
		c-8.821-0.087-17.643-0.051-26.464-0.003c-1.468,0.008-2.997-0.368-4.408,0.387C334.747,71.521,334.133,75.046,330.52,76.318z
		 M344.795,52.089c0,0.015,0,0.03,0,0.044c4.801,0,9.601,0.021,14.4-0.017c1.104-0.008,2.575,0.164,2.464-1.591
		c-0.082-1.292-1.254-1.343-2.258-1.344c-9.601-0.008-19.201-0.013-28.801,0.011c-1.119,0.003-2.624-0.108-2.471,1.592
		c0.148,1.636,1.685,1.275,2.762,1.285C335.526,52.114,340.162,52.089,344.795,52.089z M328.337,44.378
		c4.579,2.389,30.269,2.104,33.651,0C350.362,44.378,339.349,44.378,328.337,44.378z M336.421,58.004c0-0.007,0-0.014,0-0.021
		c2.16,0,4.32,0.022,6.48-0.011c0.882-0.014,1.706-0.353,1.765-1.348c0.06-1.013-0.71-1.448-1.613-1.453
		c-4.485-0.022-8.971-0.02-13.455,0.019c-0.917,0.008-1.626,0.492-1.494,1.528c0.129,1.013,0.975,1.262,1.837,1.275
		C332.1,58.025,334.261,58.004,336.421,58.004z M341.845,30.665c0.152,1.796,1.29,2.854,2.864,2.906
		c1.889,0.063,3.122-1.188,3.058-3.13c-0.055-1.661-1.187-2.89-2.827-2.899C343.084,27.53,341.935,28.708,341.845,30.665z"/>
	<path fill="#37414B" d="M330.52,76.318c3.613-1.272,4.227-4.797,5.74-7.646c12.768,0.035,25.535,0.025,38.303,0.162
		c1.654,0.018,4.201-1.117,4.851,0.978c0.653,2.105-1.101,4.009-2.808,5.425c-1.435,1.191-3.05,1.894-4.997,1.89
		c-12.942-0.03-25.885-0.01-38.827-0.009C331.937,77.118,331.133,76.981,330.52,76.318z"/>
	<path fill="#90D1D7" d="M94.875,38.885c1.721-2.422,0.789-5.168,0.855-7.76c0.142-5.489,0.33-11.003-0.034-16.472
		c-0.263-3.955,1.242-4.577,4.806-4.56c28.797,0.137,57.595,0.068,86.392,0.061c0.999,0,1.997-0.017,2.996-0.026
		c-0.214,4.319,1.621,8.836-1.248,12.899c-1.503,0.948,0.165,3.291-2.498,4.211c-8.303,2.871-10.123,6.085-10.312,14.667
		c-0.09,4.06,1.109,8.262-0.917,12.188c-1.478,3.688-1.45,3.717,4.015,4.136c-0.662,2.565,1.332,5.759-1.939,7.714
		c-9.661,5.777-13.621,14.403-13.244,25.531c0.372,10.975,7.985,21.103,19.22,24.736c10.19,3.297,23.693-0.738,29.792-8.902
		c9.739-13.038,8.257-28.688-4.394-39.077c-3.564-2.927-5.148-5.677-4.548-9.979c2.061-0.651,6.527,0.935,3.842-4.13
		c-2.006-4.45-0.632-9.139-0.921-13.708c-0.434-6.85-3.149-11.288-9.511-12.893c-2.925-0.738-2.917-2.481-3.427-4.428
		c-2.374-1.794-1.684-4.393-1.758-6.779c-0.062-1.988-0.055-3.978-0.078-5.967c25.311-0.064,50.622-0.132,75.933-0.191
		c4.997-0.012,10,0.171,14.986-0.046c2.958-0.129,4.039,0.597,4.024,3.812c-0.125,27.979-0.109,55.958-0.016,83.937
		c0.011,2.895-0.964,3.746-3.733,3.644c-4.823-0.177-9.662-0.178-14.486-0.017c-4.584,0.154-5.829,1.524-5.883,6.135
		c-0.066,5.661,0.006,11.324-0.011,16.987c-0.015,5.117-0.032,5.157-5.226,5.159c-30.478,0.012-60.955,0.004-91.433,0.001
		c-20.484-0.002-40.97-0.01-61.454,0.003c-1.326,0.001-2.651,0.155-3.977,0.238c-1.551-1.122-0.282-1.904,0.385-2.655
		c1.58-1.781,3.232-3.498,4.855-5.241c1.869-0.76,4.571-0.518,5.153-2.951c0.543-2.27-2.072-3.006-3.196-4.483
		c-0.791-1.04-1.759-1.986-2.794-2.787c-1.2-0.929-1.882-3.152-3.912-2.26c-1.829,0.806-2.522,2.504-2.122,4.537
		c-0.981,1.038-1.807,2.254-3.208,2.812c-0.021-16.94-0.041-33.879-0.062-50.819c10.981-0.05,21.962-0.1,32.942-0.15
		c1.498-0.007,3.017,0.144,4.487-0.057c2.664-0.364,4.893-1.397,4.727-4.659c-0.16-3.157-2.15-4.232-5.032-4.235
		c-8.487-0.008-16.973-0.022-25.459-0.062c-1.323-0.006-2.704,0.052-3.954-0.294c-2.079-0.576-3.469-2.024-3.57-4.285
		c-0.103-2.3,1.143-3.782,3.333-4.324c1.127-0.278,2.279-0.335,3.236-1.131c1.465-1.218,2.778-2.535,2.212-4.637
		c-0.583-2.164-2.043-3.322-4.367-3.329C101.187,38.991,98.031,38.926,94.875,38.885z M126.024,98.677
		c0.061-3.627-1.49-5.433-4.785-5.575c-3.147-0.135-5.907,2.239-6.078,5.229c-0.159,2.781,2.76,5.707,5.698,5.71
		C123.874,104.045,125.971,101.867,126.024,98.677z M118.946,39.025c-3.116-0.058-4.2,1.618-4.17,4.403
		c0.031,2.945,1.866,4.397,4.396,4.274c2.534-0.123,4.405-2.016,4.294-4.634C123.357,40.5,121.745,38.81,118.946,39.025z
		 M105.847,107.038c1.885-0.123,3.038-1.087,2.963-3.07c-0.073-1.949-1.211-2.956-3.182-2.874c-1.753,0.073-2.684,1.076-2.745,2.793
		C102.813,105.854,103.838,106.898,105.847,107.038z M125.706,116.94c-0.199-0.719-0.646-1.332-1.293-1.309
		c-0.871,0.03-1.49,0.64-1.375,1.612c0.082,0.69,0.577,1.29,1.252,1.255C125.155,118.454,125.728,117.87,125.706,116.94z"/>
	<path fill="#90D1D7" d="M391.918,184.027c-15.687,0.028-31.372,0.056-47.059,0.084c-9.332-0.001-18.663-0.001-27.995-0.002
		c-15.672-0.035-31.345-0.071-47.018-0.106c-0.006-23.643,0.066-47.285-0.102-70.926c-0.026-3.659,0.814-4.801,4.656-4.785
		c37.627,0.152,75.256,0.157,112.883,0.002c3.901-0.017,4.628,1.196,4.608,4.813C391.767,136.747,391.882,160.387,391.918,184.027z
		 M360.736,150.02c3.05-2.679,3.051-4.203,0.003-6.863c-0.541-5.947-2.541-11.262-6.762-15.615
		c-2.146-4.506-7.031-5.978-10.827-9.37c5.593,0,10.632,0,15.671,0c1.12,1.194,2.186,1.203,3.071-0.23
		c0.456-0.739,0.379-1.605-0.203-2.217c-1.408-1.479-2.555-0.224-3.733,0.479c-7.365,0.002-14.729,0.003-22.095,0.005
		c-3.332-2.36-6.657-2.723-9.975,0.028c-7.643-0.093-15.286-0.186-22.929-0.278c-1.073-1.14-2.2-1.415-3.334-0.117
		c-0.607,0.695-0.663,1.488-0.048,2.231c1.089,1.314,2.201,1.251,3.309,0.013c5.052,0,10.104,0,16.237,0
		c-5.538,3.388-10.233,6.18-13.087,11.034c-2.482,3.665-4.495,7.524-4.957,12.022c0.413,2.438-2.946,3.203-2.431,5.941
		c0.375,1.993,2.987,2.66,2.415,4.935c1.48,7.59,4.796,14.027,11.502,18.339c0.587,0.812,1.32,1.429,2.296,1.726
		c4.093,4.14,10.63,3.005,14.912,6.883c0.621,0.562,2.661,0.591,3.239-0.378c1.458-2.441,3.935-2.1,6.057-2.827
		c4.083-1.399,8.116-2.95,11.097-6.315c2.647-1.439,4.244-3.831,5.728-6.325C358.806,159.234,360.385,154.854,360.736,150.02z"/>
	<path fill="#F0F0F0" d="M106.924,159.119c-0.01-2.626,0.035-5.255-0.047-7.879c-0.06-1.926-0.998-2.359-2.476-1.089
		c-1.117,0.962-2.009,2.211-3.193,3.064c-2.59,1.866-1.02,2.867,0.656,3.928c-3.03,0.176-5.698-0.182-5.975-4.059
		c3.319-2.198,5.606-5.502,8.594-8.044c2.003-1.703,1.063-3.516,0.564-5.375c2.062,0.96,4.263,0.603,6.406,0.603
		c48.64,0.012,97.28-0.003,145.92-0.012c5.409-0.001,5.43,0.001,5.392,5.318c-0.032,4.492-0.119,8.984-0.182,13.477
		c-14.862,0.041-29.725,0.082-44.587,0.123c-17.74,0.012-35.48,0.024-53.22,0.036c-8.586-0.008-17.172-0.016-25.758-0.023
		c-1.068-0.014-2.135-0.027-3.203-0.042C126.185,159.136,116.554,159.127,106.924,159.119z"/>
	<path fill="#B4BBBB" d="M248.93,184.926c4.599-1.676,9.387-0.152,14.044-0.837c2.291-0.029,4.582-0.058,6.873-0.087
		c15.673,0.035,31.346,0.071,47.018,0.106c0.05,0.62,0.1,1.24,0.149,1.859c-0.361,0.031-0.724,0.062-1.085,0.094
		c-0.924-1.368-2.355-0.996-3.633-0.996c-21.099,0.005-42.196,0.033-63.295,0.056L248.93,184.926z"/>
	<path fill="#969AA0" d="M331.675,105.147c0.071,0.369-0.332,0.604-0.804,0.741c-0.638,0.185-0.817-0.301-0.945-0.756
		c-0.164-0.587,0.217-0.878,0.707-0.973C331.187,104.052,331.489,104.4,331.675,105.147z"/>
	<path fill="#474E58" d="M232.075,190.886c10.569-0.028,21.139-0.057,31.709-0.086c24.726,0.064,49.452,0.131,74.178,0.19
		c16.266,0.04,32.53,0.068,48.795,0.103c0.119,4.337,0.238,8.675,0.358,13.013l-0.432-0.069
		c-80.554,0.009-161.106,0.018-241.66,0.027c-1.998,0.001-3.994,0.022-5.991,0.035c-0.004-4.397-0.008-8.794-0.012-13.191
		c3.653-0.033,7.306-0.066,10.959-0.1C177.345,190.834,204.71,190.86,232.075,190.886z"/>
	<path fill="#ECEBEB" d="M387.115,204.106c-0.12-4.338-0.239-8.676-0.358-13.013c3.774,0.264,7.562-0.694,11.331,0.108
		c-0.118,4.294-0.235,8.588-0.354,12.881C394.194,204.09,390.654,204.098,387.115,204.106z"/>
	<path fill="#EFEFEF" d="M249.001,185.122c21.099-0.022,42.196-0.051,63.295-0.056c1.277,0,2.709-0.372,3.633,0.996
		c-20.766,0.009-41.532,0.034-62.298-0.009C252.075,186.05,250.268,186.773,249.001,185.122z"/>
	<path fill="#777F85" d="M317.014,185.968c-0.05-0.619-0.1-1.239-0.149-1.858c9.332,0,18.663,0,27.995,0.001
		c0.055,0.331,0.109,0.662,0.164,0.993c-0.967,1.298-2.382,0.934-3.66,0.933C333.247,186.035,325.13,185.996,317.014,185.968z"/>
	<path fill="#474F59" d="M174.916,54.091c2.027-3.925,0.828-8.128,0.917-12.188c0.189-8.582,2.009-11.797,10.312-14.667
		c2.662-0.92,0.994-3.263,2.498-4.211c1.719,0.022,3.437,0.045,5.155,0.067c0.51,1.947,0.502,3.69,3.427,4.428
		c6.362,1.604,9.078,6.042,9.511,12.893c0.29,4.569-1.084,9.258,0.921,13.708C196.744,54.112,185.83,54.102,174.916,54.091z"/>
	<path fill="#90D1D7" d="M95.888,153.084c0.277,3.877,2.945,4.234,5.975,4.059c-2.844,17.245-16.427,28.841-34.195,28.665
		c-15.717-0.156-28.383-11.537-31.986-26.08c-0.843-3.404,1.252-2.717,2.946-2.722c12.98-0.038,25.962-0.089,38.942,0.007
		c2.988,0.022,5.068-0.242,6.726-3.476C86.713,148.827,90.645,148.937,95.888,153.084z M55.951,170.062
		c2.895-0.569,4.612-2.448,4.543-5.097c-0.071-2.734-2.095-4.729-4.877-4.467c-2.54,0.239-4.81,1.911-4.542,4.885
		C51.321,168.102,53.296,169.609,55.951,170.062z M86.037,169.827c1.573-0.472,2.916-1.058,2.835-2.95
		c-0.089-2.068-1.339-2.907-3.257-2.811c-1.489,0.074-2.598,0.92-2.563,2.44C83.092,168.357,84.332,169.401,86.037,169.827z
		 M76.635,177.289c-0.038-1.158-0.735-1.835-1.789-2.05c-1.349-0.276-2.349,0.376-2.548,1.7c-0.168,1.121,0.642,1.852,1.723,2.062
		C75.379,179.265,76.226,178.597,76.635,177.289z"/>
	<path fill="#25303A" d="M95.048,117.494c-1.519,3.031-3.46,3.919-6.338,1.482c-1.094-0.927-2.5-1.484-3.763-2.21
		c0.015-10.866,0.03-21.732,0.045-32.599c3.318-0.573,7.055,0.613,9.81-2.331C94.884,93.722,94.966,105.608,95.048,117.494z"/>
	<path fill="#27303A" d="M95.048,117.494c-0.082-11.886-0.164-23.771-0.246-35.657c0.335-5.552-0.527-6.612-5.754-6.855
		c-1.504-0.07-3.004,0.012-4.304-0.932c-0.123-2.64-0.491-5.29,0.31-7.893c3.578-0.369,7.156-0.366,10.734,0.006
		c0.021,16.94,0.041,33.879,0.062,50.819C95.633,117.232,95.366,117.403,95.048,117.494z"/>
	<path fill="#ECEFEF" d="M99.058,114.168c-0.4-2.033,0.293-3.731,2.122-4.537c2.03-0.893,2.712,1.331,3.912,2.26
		c1.035,0.801,2.003,1.747,2.794,2.787c1.124,1.478,3.739,2.214,3.196,4.483c-0.582,2.434-3.284,2.191-5.153,2.951
		C104.918,118.358,101.698,116.514,99.058,114.168z"/>
	<path fill="#94D3D9" d="M53.14,141.887c4.135,0.353,5.766,1.894,5.738,4.893c-0.027,2.889-2.265,4.61-5.421,4.378
		c-3.152-0.232-4.483-2.331-4.25-5.021C49.443,143.4,51.176,141.599,53.14,141.887z"/>
	<path fill="#98D1D7" d="M73.359,139.886c-1.89-0.195-2.957-1.211-3.256-2.721c-0.345-1.735,0.729-2.783,2.395-3.011
		c1.623-0.222,2.969,0.409,3.285,2.136C76.147,138.292,74.58,139.062,73.359,139.886z"/>
	<path fill="#9AD4D9" d="M64.983,111.024c-0.402-0.957-1.383-1.807-0.407-2.987c1.15-1.393,2.229-0.527,3.337,0.019
		C68.131,110.224,67.299,111.357,64.983,111.024z"/>
	<path fill="#F7F7F7" d="M84.744,74.049c1.299,0.944,2.799,0.862,4.304,0.932c5.227,0.243,6.089,1.304,5.754,6.855
		c-2.755,2.944-6.492,1.758-9.81,2.331c-3.831,0.309-8.069-1.754-11.316,1.947c-0.227,0.38-0.455,0.761-0.682,1.141
		c0.063,0.272,0.058,0.543-0.017,0.813c-1.748-0.168-3.552,0.374-5.844-0.586c3.021-3.067,5.862-5.936,8.685-8.823
		c1.261-1.29,2.909-2.417,3.64-3.968C81.043,71.325,82.785,72.554,84.744,74.049z"/>
	<path fill="#484F59" d="M123.016,209.843c-0.264,0.084-0.53,0.158-0.8,0.222c-0.033-3.417-0.199-6.84-0.061-10.25
		c0.13-3.216-0.54-6.123-2.352-8.771c5.335-0.037,10.67-0.074,16.005-0.11c0.369,4.386,0.293,8.771,0.002,13.157
		c-2.469-0.011-4.938-0.034-7.408-0.029C122.961,204.073,122.961,204.079,123.016,209.843z"/>
	<path fill="#252F39" d="M123.016,209.843c-0.055-5.765-0.055-5.771,5.387-5.781c2.469-0.005,4.938,0.019,7.408,0.029
		c-0.007,1.988-0.013,3.977-0.02,5.965C131.532,209.985,127.274,209.914,123.016,209.843z"/>
	<path fill="#D4C1BB" d="M139.018,159.187c-0.088,1.645-0.176,3.288-0.265,4.932c-0.888,0.007-1.776,0.015-2.663,0.021
		c-0.091-1.665-0.183-3.33-0.274-4.995C136.882,159.16,137.95,159.173,139.018,159.187z"/>
	<path fill="#A6D9DE" d="M344.795,52.089c-4.634,0-9.27,0.025-13.903-0.018c-1.077-0.01-2.613,0.351-2.762-1.285
		c-0.153-1.701,1.352-1.589,2.471-1.592c9.6-0.024,19.2-0.02,28.801-0.011c1.004,0,2.176,0.052,2.258,1.344
		c0.111,1.755-1.36,1.583-2.464,1.591c-4.8,0.038-9.6,0.017-14.4,0.017C344.795,52.119,344.795,52.104,344.795,52.089z"/>
	<path fill="#90D1D7" d="M328.337,44.378c11.012,0,22.024,0,33.651,0C358.606,46.481,332.917,46.767,328.337,44.378z"/>
	<path fill="#A6D9DD" d="M336.421,58.004c-2.16,0-4.321,0.021-6.48-0.011c-0.862-0.013-1.708-0.262-1.837-1.275
		c-0.132-1.037,0.577-1.52,1.494-1.528c4.484-0.039,8.97-0.041,13.455-0.019c0.903,0.004,1.673,0.44,1.613,1.453
		c-0.059,0.996-0.883,1.334-1.765,1.348c-2.16,0.033-4.32,0.011-6.48,0.011C336.421,57.99,336.421,57.997,336.421,58.004z"/>
	<path fill="#FDFDFD" d="M203.816,58.252c-0.601,4.302,0.983,7.052,4.548,9.979c12.651,10.388,14.133,26.039,4.394,39.077
		c-6.099,8.164-19.602,12.199-29.792,8.902c-11.235-3.634-18.848-13.761-19.22-24.736c-0.376-11.128,3.583-19.754,13.244-25.531
		c3.271-1.956,1.277-5.149,1.939-7.714C187.226,58.236,195.521,58.244,203.816,58.252z M177.613,96.335
		c1.918,2.075,6.737,1.295,5.708,5.847c-0.033,0.148,1.024,0.806,1.177,0.692c2.681-1.987,3.994-0.85,6.18,1.332
		c1.241,1.237,3.962-5.005,7.403-1.329c0.07,0.075,1.202-0.541,1.17-0.716c-0.647-3.63,1.368-3.917,4.304-4.775
		c1.457-0.426-1.992-5.791,2.424-7.236c0.119-0.039,0.094-1.294-0.089-1.36c-3.437-1.243-2.199-3.122-1.746-5.83
		c0.307-1.834-6.113-1.243-5.032-5.872c0.031-0.133-1.042-0.787-1.207-0.665c-2.57,1.896-3.88,1.045-6.056-1.21
		c-1.124-1.166-4.194,4.462-7.583,1.347c-0.093-0.085-1.178,0.531-1.155,0.754c0.322,3.117-0.691,3.965-4.069,4.438
		c-2.363,0.331,2.608,6.143-2.635,7.139c-0.111,0.021-0.25,1.233-0.048,1.356C178.834,91.767,180.639,93.387,177.613,96.335z"/>
	<path fill="#36404A" d="M203.816,58.252c-8.295-0.008-16.59-0.016-24.886-0.024c-5.465-0.419-5.492-0.448-4.015-4.136
		c10.914,0.01,21.828,0.021,32.742,0.03C210.343,59.187,205.877,57.601,203.816,58.252z"/>
	<path fill="#FCFDFD" d="M126.024,98.677c-0.053,3.19-2.15,5.368-5.165,5.364c-2.938-0.003-5.856-2.929-5.698-5.71
		c0.171-2.989,2.931-5.364,6.078-5.229C124.535,93.244,126.085,95.049,126.024,98.677z"/>
	<path fill="#FBFDFD" d="M118.946,39.025c2.799-0.215,4.411,1.475,4.52,4.043c0.111,2.618-1.76,4.511-4.294,4.634
		c-2.529,0.123-4.365-1.33-4.396-4.274C114.746,40.643,115.83,38.967,118.946,39.025z"/>
	<path fill="#F4F6F6" d="M105.847,107.038c-2.009-0.14-3.034-1.184-2.964-3.151c0.061-1.717,0.992-2.721,2.745-2.793
		c1.971-0.082,3.108,0.925,3.182,2.874C108.885,105.951,107.732,106.915,105.847,107.038z"/>
	<path fill="#EAF6F7" d="M125.706,116.94c0.022,0.93-0.551,1.514-1.417,1.559c-0.675,0.035-1.17-0.564-1.252-1.255
		c-0.115-0.973,0.504-1.582,1.375-1.612C125.06,115.608,125.507,116.221,125.706,116.94z"/>
	<path fill="#46626B" d="M350.165,169.445c-2.98,3.365-7.014,4.916-11.097,6.315c-2.122,0.728-4.599,0.386-6.057,2.827
		c-0.578,0.969-2.618,0.939-3.239,0.378c-4.282-3.878-10.819-2.743-14.912-6.883c0.326-0.252,0.653-0.505,0.98-0.757
		c4.523,1.663,8.71,5.514,14.037,1.955c0.616-0.412,2.252-0.204,2.795,0.338c2.099,2.093,4.169,1.056,6.394,0.471
		c3.898-1.025,7.094-3.344,10.468-5.35C349.758,168.962,349.968,169.197,350.165,169.445z M331.666,176.243
		c0.12-0.576-0.227-0.843-0.694-0.96c-0.564-0.141-0.831,0.238-0.949,0.705c-0.146,0.57,0.244,0.827,0.702,0.956
		C331.31,177.109,331.507,176.681,331.666,176.243z"/>
	<path fill="#4A6971" d="M306.035,129.12c2.854-4.854,7.549-7.646,13.087-11.034c-6.134,0-11.186,0-16.237,0
		c0.024-0.709,0.049-1.418,0.073-2.127c7.643,0.093,15.286,0.186,22.929,0.278c0.058,1.302-2.894-0.272-1.867,1.954
		c-6.818,2.388-12.822,5.941-17.118,11.944C306.613,129.796,306.324,129.458,306.035,129.12z"/>
	<path fill="#4D6C74" d="M335.861,116.208c7.365-0.002,14.729-0.003,22.095-0.005c0.288,0.656,0.577,1.312,0.865,1.968
		c-5.039,0-10.078,0-15.671,0c3.796,3.393,8.681,4.864,10.827,9.37c-0.041,0.53-0.082,1.061-0.123,1.591
		c-4.188-5.407-9.981-8.432-16.155-10.892C337.085,117.564,336.473,116.886,335.861,116.208z"/>
	<path fill="#33464F" d="M335.861,116.208c0.612,0.678,1.225,1.355,1.838,2.032c-0.816-0.039-1.868-0.427-2.409-0.06
		c-3.015,2.04-5.857,2.021-8.86-0.025c-0.544-0.37-1.594,0.005-2.41,0.035c-1.026-2.227,1.925-0.652,1.867-1.954
		C329.204,113.486,332.529,113.848,335.861,116.208z"/>
	<path fill="#435E67" d="M312.564,170.357c-6.706-4.312-10.021-10.749-11.502-18.339c0.305-0.011,0.608,0.007,0.91,0.054
		c2.282,6.771,5.563,12.91,11.138,17.598C312.964,169.928,312.783,170.157,312.564,170.357z"/>
	<path fill="#46626A" d="M353.854,129.132c0.041-0.53,0.082-1.061,0.123-1.591c4.221,4.354,6.221,9.668,6.762,15.615
		c-0.651,0.287-1.302,0.573-1.953,0.859C359.603,138.24,356.626,133.719,353.854,129.132z"/>
	<path fill="#2B3942" d="M301.972,152.072c-0.302-0.047-0.605-0.064-0.91-0.054c0.572-2.274-2.04-2.941-2.415-4.935
		c-0.516-2.738,2.844-3.503,2.431-5.941c0.288,0.007,0.575-0.015,0.859-0.063c-0.832,2.354,2.041,3.245,2.066,5.488
		C304.029,148.832,301.124,149.722,301.972,152.072z M301.439,147.993c0.882-0.101,1.382-0.613,1.264-1.629
		c-0.126-1.085-0.89-1.249-1.775-1.188c-0.84,0.057-1.061,0.674-1.077,1.362C299.828,147.52,300.317,148.055,301.439,147.993z"/>
	<path fill="#466169" d="M360.736,150.02c-0.351,4.834-1.93,9.214-4.844,13.1c-0.078-0.505-0.157-1.01-0.235-1.515
		c1.924-3.647,2.74-7.693,4.136-11.53C360.106,150.038,360.42,150.019,360.736,150.02z"/>
	<path fill="#27333D" d="M360.736,150.02c-0.315-0.001-0.63,0.018-0.943,0.055c-2.278-1.696-3.033-3.646-1.007-6.059
		c0.651-0.286,1.302-0.572,1.953-0.859C363.787,145.817,363.786,147.341,360.736,150.02z M358.933,146.574
		c-0.008,0.964,0.485,1.443,1.438,1.444c0.954,0.001,1.444-0.488,1.445-1.444c0-0.957-0.491-1.443-1.445-1.442
		C359.419,145.132,358.923,145.609,358.933,146.574z"/>
	<path fill="#446069" d="M301.937,141.079c-0.284,0.049-0.571,0.07-0.859,0.063c0.462-4.498,2.475-8.357,4.957-12.022
		c0.289,0.339,0.578,0.677,0.866,1.016C304.7,133.536,303.548,137.411,301.937,141.079z"/>
	<path fill="#2F414A" d="M302.958,115.958c-0.024,0.709-0.049,1.418-0.073,2.127c-1.107,1.238-2.22,1.302-3.309-0.013
		c-0.615-0.743-0.56-1.536,0.048-2.231C300.757,114.543,301.884,114.819,302.958,115.958z"/>
	<path fill="#2C3B45" d="M358.821,118.171c-0.288-0.656-0.577-1.312-0.865-1.968c1.179-0.703,2.325-1.958,3.733-0.479
		c0.582,0.611,0.659,1.478,0.203,2.217C361.006,119.375,359.941,119.366,358.821,118.171z"/>
	<path fill="#415C65" d="M355.657,161.605c0.078,0.505,0.157,1.01,0.235,1.515c-1.483,2.494-3.08,4.886-5.728,6.325
		c-0.196-0.248-0.406-0.482-0.631-0.705C351.575,166.362,353.616,163.984,355.657,161.605z"/>
	<path fill="#3A5059" d="M315.84,171.326c-0.327,0.252-0.654,0.505-0.98,0.757c-0.976-0.297-1.709-0.914-2.296-1.726
		c0.219-0.2,0.4-0.429,0.546-0.688C314.02,170.221,314.93,170.774,315.84,171.326z"/>
	<path fill="#CBCAC9" d="M164.996,160.103c-0.092-0.293-0.165-0.591-0.221-0.893c17.74-0.012,35.479-0.024,53.22-0.036
		c0.501,8.522,1.603,16.976,2.79,25.426c0.321,2.287,1.488,2.448,3.308,2.594c2.539,0.202,5.257-0.968,7.608,0.862
		c-2.261,0.025-4.521,0.052-6.782,0.077c-1.346-0.013-2.692-0.025-4.038-0.039c-5.322,0.005-10.644,0.01-15.966,0.014
		c-1.342-0.01-2.683-0.021-4.025-0.031c-2.65-0.015-5.301-0.028-7.951-0.043C183.948,178.4,174.677,169.046,164.996,160.103z"/>
	<path fill="#E4E3E2" d="M220.881,188.094c1.346,0.014,2.692,0.026,4.038,0.039c1.545,3.614,4.773,1.178,7.102,1.975
		c0.025,0.26,0.043,0.519,0.055,0.778c-27.365-0.026-54.73-0.052-82.095-0.078c0.027-0.263,0.078-0.521,0.153-0.773
		c3.395-0.163,6.875,0.491,10.18-0.961c-3.045-1.482-6.247-0.756-9.354-0.993c2.387-1.738,5.109-0.716,7.663-0.812
		c2.21-0.084,3.156-0.635,3.405-3.047c0.831-8.056,1.956-16.081,2.968-24.118c9.681,8.943,18.952,18.297,27.943,27.931
		c-2.457,0.488-5.265-0.86-8.175,1.553c5.275,0.813,9.812,0.389,14.331,0.402c1.215,0.004,1.648-0.85,1.795-1.912
		c1.342,0.011,2.683,0.021,4.025,0.031c0.125,0.641,0.195,1.523,0.891,1.607c4.722,0.569,9.461,0.584,14.178-0.039
		C220.347,189.628,220.585,188.644,220.881,188.094z M180.257,189.636c-0.012-0.49-0.023-0.981-0.035-1.472
		c-4.915-0.078-9.836-0.279-14.728,0.124c0.02,0.449,0.04,0.898,0.06,1.348C170.455,189.636,175.356,189.636,180.257,189.636z"/>
	<path fill="#EFEFEE" d="M232.02,190.108c-2.328-0.797-5.556,1.64-7.102-1.975c2.261-0.025,4.521-0.052,6.782-0.077
		C232.125,188.691,233.025,189.251,232.02,190.108z"/>
	<path fill="#F9FCFC" d="M55.951,170.062c-2.655-0.453-4.63-1.96-4.875-4.679c-0.268-2.974,2.002-4.646,4.542-4.885
		c2.782-0.262,4.806,1.732,4.877,4.467C60.563,167.614,58.846,169.493,55.951,170.062z"/>
	<path fill="#EFF3F3" d="M86.037,169.827c-1.705-0.426-2.944-1.47-2.986-3.32c-0.034-1.521,1.074-2.366,2.563-2.44
		c1.918-0.097,3.168,0.742,3.257,2.811C88.953,168.769,87.609,169.355,86.037,169.827z"/>
	<path fill="#E8F0F0" d="M76.635,177.289c-0.409,1.309-1.255,1.977-2.613,1.712c-1.081-0.21-1.892-0.94-1.723-2.062
		c0.199-1.324,1.199-1.977,2.548-1.7C75.9,175.454,76.597,176.13,76.635,177.289z"/>
	<path fill="#EFEDEC" d="M72.994,87.255c0.227-0.38,0.455-0.761,0.682-1.141C73.448,86.495,73.221,86.875,72.994,87.255z"/>
	<path fill="#EFEFEE" d="M150.959,188.081c3.107,0.237,6.309-0.489,9.354,0.993c-3.306,1.452-6.785,0.798-10.18,0.961
		C149.883,189.162,150.024,188.453,150.959,188.081z"/>
	<path fill="#374049" d="M177.613,96.335c3.025-2.948,1.221-4.568-1.253-6.086c-0.202-0.124-0.063-1.335,0.048-1.356
		c5.243-0.996,0.272-6.808,2.635-7.139c3.378-0.473,4.392-1.322,4.069-4.438c-0.023-0.223,1.062-0.839,1.155-0.754
		c3.39,3.115,6.459-2.513,7.583-1.347c2.176,2.255,3.486,3.105,6.056,1.21c0.165-0.122,1.238,0.532,1.207,0.665
		c-1.081,4.629,5.339,4.038,5.032,5.872c-0.453,2.708-1.691,4.587,1.746,5.83c0.183,0.066,0.208,1.321,0.089,1.36
		c-4.416,1.446-0.967,6.81-2.424,7.236c-2.936,0.858-4.951,1.145-4.304,4.775c0.031,0.175-1.1,0.791-1.17,0.716
		c-3.441-3.676-6.163,2.566-7.403,1.329c-2.186-2.182-3.5-3.319-6.18-1.332c-0.153,0.114-1.21-0.544-1.177-0.692
		C184.35,97.63,179.532,98.41,177.613,96.335z M197.141,89.53c-0.066-3.457-2.612-6.025-5.977-6.03
		c-3.242-0.004-6.338,3.324-6.144,6.604c0.175,2.953,3.49,5.929,6.466,5.805C194.729,95.774,197.208,92.978,197.141,89.53z"/>
	<path fill="#90D1D7" d="M315.84,171.326c-0.91-0.552-1.82-1.104-2.73-1.656c-5.574-4.688-8.855-10.827-11.138-17.598
		c-0.849-2.35,2.057-3.24,2.031-5.505c-0.025-2.243-2.898-3.135-2.066-5.488c1.611-3.668,2.763-7.543,4.964-10.943
		c4.296-6.003,10.3-9.557,17.118-11.944c0.816-0.03,1.866-0.405,2.41-0.035c3.003,2.047,5.846,2.065,8.86,0.025
		c0.541-0.367,1.593,0.021,2.409,0.06c6.174,2.46,11.968,5.484,16.155,10.892c2.772,4.587,5.749,9.107,4.932,14.884
		c-2.026,2.412-1.271,4.362,1.007,6.059c-1.396,3.837-2.212,7.883-4.136,11.53c-2.041,2.379-4.082,4.757-6.123,7.135
		c-3.374,2.006-6.569,4.324-10.468,5.35c-2.225,0.585-4.295,1.622-6.394-0.471c-0.543-0.542-2.179-0.75-2.795-0.338
		C324.55,176.839,320.364,172.989,315.84,171.326z M330.951,158.123c8.886,0.52,15.93-2.861,21.769-9.199
		c1.447-1.57,1.918-2.576,0.244-4.494c-10.67-12.229-31.947-13.01-43.289-1.443c-3.062,3.122-3.191,4.386,0.151,7.32
		C315.875,155.616,322.767,158.936,330.951,158.123z"/>
	<path fill="#90D2D8" d="M331.667,176.241c-0.16,0.44-0.357,0.868-0.943,0.703c-0.458-0.129-0.848-0.386-0.702-0.956
		c0.118-0.467,0.385-0.846,0.949-0.705C331.439,175.4,331.786,175.667,331.667,176.241z"/>
	<path fill="#87C5CB" d="M301.439,147.993c-1.122,0.062-1.611-0.473-1.589-1.455c0.017-0.688,0.237-1.306,1.077-1.362
		c0.886-0.061,1.649,0.104,1.775,1.188C302.821,147.379,302.321,147.892,301.439,147.993z"/>
	<path fill="#8ECED5" d="M358.933,146.574c-0.01-0.965,0.486-1.441,1.438-1.442c0.954-0.001,1.445,0.485,1.445,1.442
		c-0.001,0.956-0.491,1.445-1.445,1.444C359.418,148.017,358.925,147.538,358.933,146.574z"/>
	<path fill="#EFEFEE" d="M200.89,188.077c-0.147,1.062-0.58,1.916-1.795,1.912c-4.518-0.014-9.055,0.411-14.331-0.402
		c2.91-2.413,5.718-1.064,8.175-1.553C195.589,188.048,198.24,188.062,200.89,188.077z"/>
	<path fill="#EFEFEE" d="M220.881,188.094c-0.296,0.55-0.534,1.534-0.896,1.582c-4.717,0.623-9.456,0.608-14.178,0.039
		c-0.696-0.084-0.767-0.967-0.891-1.607C210.237,188.104,215.559,188.099,220.881,188.094z"/>
	<path fill="#EFEFEE" d="M180.257,189.636c-4.901,0-9.802,0-14.703,0c-0.02-0.449-0.04-0.898-0.06-1.348
		c4.892-0.403,9.813-0.202,14.728-0.124C180.233,188.655,180.245,189.146,180.257,189.636z"/>
	<path fill="#EE8160" d="M197.141,89.53c0.067,3.448-2.412,6.244-5.654,6.379c-2.977,0.124-6.292-2.852-6.466-5.805
		c-0.194-3.281,2.901-6.609,6.144-6.604C194.529,83.504,197.075,86.073,197.141,89.53z M193.831,89.763
		c-0.155-1.5-0.983-2.461-2.426-2.581c-1.543-0.128-2.401,0.835-2.475,2.336c-0.074,1.523,0.708,2.445,2.279,2.523
		C192.793,92.12,193.496,91.135,193.831,89.763z"/>
	<path fill="#FBFCFC" d="M330.951,158.123c-8.184,0.813-15.076-2.507-21.125-7.816c-3.343-2.935-3.213-4.198-0.151-7.32
		c11.342-11.566,32.619-10.785,43.289,1.443c1.674,1.918,1.203,2.924-0.244,4.494C346.88,155.261,339.836,158.642,330.951,158.123z
		 M321.857,146.825c0.029,4.871,3.96,8.953,8.764,9.1c4.699,0.145,9.223-4.392,9.234-9.261c0.012-5.11-3.665-8.707-8.902-8.707
		C325.237,137.957,321.824,141.284,321.857,146.825z"/>
	<path fill="#FBFAF9" d="M193.831,89.763c-0.334,1.372-1.037,2.357-2.622,2.278c-1.572-0.078-2.354-1-2.279-2.523
		c0.074-1.501,0.932-2.465,2.475-2.336C192.847,87.302,193.675,88.263,193.831,89.763z"/>
	<path fill="#90D0D6" d="M321.857,146.825c-0.033-5.541,3.38-8.868,9.096-8.868c5.237,0,8.914,3.597,8.902,8.707
		c-0.012,4.869-4.535,9.405-9.234,9.261C325.817,155.778,321.886,151.696,321.857,146.825z M334.901,146.569
		c-0.167-2.56-1.742-4.003-4.095-4.015c-2.336-0.012-4.071,1.331-4.095,3.962c-0.025,2.794,1.585,4.415,4.256,4.283
		C333.31,150.683,334.814,149.14,334.901,146.569z"/>
	<path fill="#27333D" d="M334.901,146.569c-0.087,2.571-1.591,4.114-3.934,4.23c-2.671,0.132-4.281-1.489-4.256-4.283
		c0.023-2.631,1.759-3.974,4.095-3.962C333.159,142.566,334.734,144.009,334.901,146.569z"/>
	<g>
		<path fill="none" d="M9.903,196.882c0.811-0.138,1.56-0.369,2.265-0.667L9.903,196.882z"/>
		<path fill="#F0F0F0" d="M12.168,196.215c-0.706,0.298-1.455,0.529-2.265,0.667c3.333,0.619,1.028,3.6,2.153,5.144
			c4.934-0.392,9.68,1.511,14.648,1.117c2.264-0.179,3.281-0.849,3.217-3.181c-0.081-2.951,0.024-5.907,0.048-8.861
			C27.703,191.118,14.443,195.254,12.168,196.215"/>
	</g>
</g>
</svg>
