<?xml version="1.0" encoding="utf-8"?>
<!-- Generator: Adobe Illustrator 17.0.0, SVG Export Plug-In . SVG Version: 6.00 Build 0)  -->
<!DOCTYPE svg PUBLIC "-//W3C//DTD SVG 1.1//EN" "http://www.w3.org/Graphics/SVG/1.1/DTD/svg11.dtd">
<svg version="1.1" id="Layer_1" xmlns="http://www.w3.org/2000/svg" xmlns:xlink="http://www.w3.org/1999/xlink" x="0px" y="0px"
	 width="418.742px" height="250.41px" viewBox="0 0 418.742 250.41" enable-background="new 0 0 418.742 250.41"
	 xml:space="preserve">
<path fill="#F7F7F7" d="M108.052,209.003c0-0.552-0.448-1-1-1h-0.243c-0.552,0-1,0.448-1,1v15.871c0,0.552,0.448,1,1,1h0.243
	c0.552,0,1-0.448,1-1V209.003z"/>
<g>
	<path fill="#232E38" d="M293.937,0c2.714,0.526,3.25,2.556,3.275,4.86c0.119,10.804,0.282,21.608,0.288,32.411
		c0.006,10.139-0.238,20.277-0.238,30.416c0.001,9.306,0.205,18.612,0.273,27.919c0.042,5.8,0.003,5.815,5.542,5.814
		c28.789-0.002,57.578-0.013,86.366-0.021c1.165,0,2.335-0.062,3.493,0.022c4.394,0.32,5.867,1.803,5.911,6.264
		c0.106,10.811,0.121,21.623,0.173,32.435c-0.08,14.613-0.16,29.225-0.24,43.838c-2.288,0.023-4.576,0.046-6.863,0.069
		c-0.036-23.64-0.152-47.281-0.025-70.92c0.019-3.618-0.707-4.83-4.609-4.814c-37.627,0.156-75.255,0.15-112.882-0.002
		c-3.842-0.016-4.682,1.127-4.656,4.785c0.168,23.641,0.095,47.284,0.102,70.926c-2.291,0.029-4.582,0.058-6.873,0.087
		c-0.131-8.346-0.261-16.692-0.392-25.038c0.063-4.492,0.15-8.985,0.182-13.477c0.038-5.317,0.018-5.319-5.392-5.318
		c-48.64,0.009-97.28,0.023-145.92,0.012c-2.143-0.001-4.343,0.358-6.406-0.603c-0.454-3.67-2.87-6.454-4.359-9.656
		c1.325-0.083,2.651-0.237,3.976-0.238c20.485-0.013,40.97-0.004,61.454-0.003c30.477,0.002,60.955,0.01,91.432-0.001
		c5.193-0.002,5.211-0.041,5.226-5.159c0.017-5.662-0.056-11.326,0.01-16.987c0.054-4.611,1.299-5.981,5.883-6.135
		c4.824-0.161,9.663-0.16,14.486,0.017c2.77,0.102,3.744-0.749,3.734-3.644c-0.095-27.979-0.11-55.959,0.015-83.937
		c0.014-3.215-1.067-3.941-4.024-3.812c-4.987,0.217-9.99,0.035-14.986,0.046c-25.311,0.059-50.622,0.127-75.933,0.191
		c-0.022-1.997,0.113-4.012-0.103-5.988c-0.358-3.272,0.891-4.483,4.201-4.273c3.814,0.241,7.654,0.062,11.483,0.056
		C236.342,0.096,265.139,0.048,293.937,0z M331.675,105.147c-0.186-0.747-0.488-1.095-1.042-0.988
		c-0.49,0.095-0.872,0.386-0.707,0.973c0.128,0.455,0.307,0.94,0.945,0.755C331.343,105.751,331.747,105.516,331.675,105.147z"/>
	<path fill="#242F39" d="M366.884,210.218c-30.643-0.054-61.287-0.139-91.93-0.154c-45.304-0.023-90.608,0.005-135.912,0.011
		c-0.003-1.992-0.007-3.984-0.01-5.976c1.997-0.012,3.994-0.034,5.991-0.034c80.553-0.01,161.106-0.019,241.66-0.027
		c0.014,1.98,0.028,3.959,0.041,5.939C380.111,210.057,373.498,210.137,366.884,210.218z"/>
	<path fill="#CAC8C6" d="M409.833,188.052c-1.294,0.362-2.589,0.725-3.883,1.087c-1.323,0.575-2.646,1.15-3.969,1.725
		c-1.298,0.113-2.595,0.225-3.893,0.338c-3.769-0.803-7.556,0.155-11.331-0.109c-16.265-0.034-32.53-0.063-48.794-0.102
		c-24.726-0.06-49.452-0.126-74.179-0.19c-4.712-1.11-9.671-1.236-14.066-3.629c-1.075-0.585-2.387-0.833-0.786-2.246l0.072,0.195
		c1.266,1.652,3.073,0.929,4.629,0.932c20.766,0.042,41.532,0.017,62.298,0.009c0.362-0.031,0.723-0.063,1.085-0.094
		c8.116,0.027,16.233,0.066,24.349,0.069c1.279,0,2.694,0.364,3.661-0.933l0.465-0.003l0.465,0.031
		c0.797,1.168,2.035,0.982,3.16,0.938c18.384-0.712,36.719,1.266,55.096,1.007C406.085,187.051,408.222,186.26,409.833,188.052z"/>
	<path fill="#252F39" d="M102.93,210.203c-17.349,0.005-34.697,0.009-52.046,0.014c-6.62-0.071-13.24-0.141-19.86-0.212
		c-0.482-1.969-0.529-3.942-0.059-5.92c27.435-0.008,54.871-0.018,82.306-0.021c5.548-0.001,5.548,0.013,5.507,5.762
		c-4.332,0.119-8.665,0.238-12.997,0.357C104.831,210.19,103.881,210.197,102.93,210.203z"/>
	<path fill="#47505A" d="M197.24-0.73c30.467,0.018,60.934,0.002,91.402,0.043c1.768,0.002,3.675-0.618,5.296,0.687
		c-28.798,0.048-57.596,0.096-86.393,0.142c-3.829,0.006-7.669,0.185-11.483-0.056c-3.31-0.209-4.559,1.001-4.201,4.273
		c0.216,1.976,0.08,3.991,0.103,5.988c0.023,1.989,0.015,3.979,0.078,5.967c0.075,2.386-0.616,4.984,1.758,6.779
		c-1.718-0.022-3.437-0.045-5.155-0.067c2.868-4.062,1.033-8.58,1.248-12.899c0.011-1.995-0.117-4.003,0.066-5.982
		c0.274-2.982-0.767-4.173-3.909-4.061c-5.811,0.208-11.636,0.069-17.455,0.057c-26.598-0.055-53.197-0.116-79.795-0.175
		c1.986-1.302,4.21-0.668,6.313-0.67c29.936-0.038,59.872-0.009,89.807-0.01"/>
	<path fill="#CBCAC9" d="M97.615,240.776c-0.018-2.161,0.059-4.328-0.075-6.482c-0.242-3.888,0.108-7.238,5.339-6.577
		c2.872,0.363,2.071-4.085,4.519-3.544c1.699,0.376,1.325,3.81,4.074,3.584c1.719-0.141,3.363,0.11,4.144,2.012
		c-0.016,2.464-0.169,4.937-0.011,7.39c0.179,2.786-0.915,3.801-3.696,3.702C107.149,240.691,102.38,240.79,97.615,240.776z"/>
	<path fill="#E96D48" d="M412.885,191.746c4.454,2.584,6.561,6.458,5.647,10.38c-1.077,4.622-5.011,7.78-10.084,7.889
		c-3.463,0.074-6.931-0.081-10.396-0.134c-0.086-1.928-0.34-3.863,0.188-5.771C408.936,203.93,412.289,201.099,412.885,191.746z"/>
	<path fill="#FD9878" d="M412.885,191.746c-0.596,9.353-3.949,12.184-14.645,12.364c-0.168-0.022-0.337-0.031-0.506-0.027
		c0.118-4.294,0.235-8.587,0.353-12.881c1.298-0.113,2.595-0.225,3.893-0.338c2.948,0.008,5.896,0.016,8.844,0.024
		C411.527,191.136,412.405,190.963,412.885,191.746z"/>
	<path fill="#E1E0E0" d="M97.615,240.776c4.765,0.014,9.534-0.085,14.293,0.085c2.781,0.099,3.875-0.916,3.696-3.702
		c-0.158-2.453-0.005-4.926,0.011-7.39c1.775,2.024,0.643,4.468,0.948,6.704c0.2,1.469-0.341,3.394,0.414,4.365
		c2.336,3.005,1.468,3.862-1.902,4.11c-1.891,0.139-1.393,1.943-1.554,3.179c-0.139,1.071-0.556,2.142-1.63,2.235
		c-1.397,0.12-1.428-1.19-1.355-2.148c0.199-2.618-0.965-3.438-3.516-3.467c-2.632-0.03-3.658,0.922-3.448,3.491
		c0.079,0.975,0.019,2.209-1.364,2.171c-0.842-0.023-1.529-0.865-1.531-1.731c-0.006-2.462-0.78-3.456-3.531-4.171
		C93.622,243.59,96.991,242.029,97.615,240.776z"/>
	<path fill="#E9E9E9" d="M409.833,188.052c-1.611-1.792-3.747-1.001-5.622-0.975c-18.377,0.259-36.712-1.719-55.096-1.007
		c-1.125,0.044-2.363,0.23-3.16-0.938c17.626-0.039,35.252-0.078,52.878-0.116c2.197,1.919,4.069,1.109,6.116-0.454
		c2.639-2.015,6.029-1.169,7.06,1.795C412.6,188.056,410.893,187.886,409.833,188.052z"/>
	<path fill="#C9C8C7" d="M12.056,202.026c4.934-0.392,9.68,1.511,14.648,1.117c2.264-0.179,3.281-0.849,3.217-3.181
		c-0.081-2.951,0.024-5.907,0.048-8.861l0.489-0.038l0.49,0.029c0.006,4.331,0.011,8.661,0.017,12.992
		c-0.47,1.978-0.424,3.951,0.059,5.92c-6.409-2.007-12.817-4.015-19.226-6.022C11.884,203.33,11.97,202.678,12.056,202.026z"/>
	<path fill="#CCCBCA" d="M398.241,204.11c-0.528,1.909-0.275,3.843-0.188,5.771c-3.776,0.032-7.552,0.063-11.328,0.095
		c-0.014-1.98-0.028-3.959-0.041-5.939l0.431,0.069c3.54-0.008,7.08-0.016,10.62-0.023
		C397.904,204.079,398.072,204.088,398.241,204.11z"/>
	<path fill="#B4BFBF" d="M398.832,185.016c-17.626,0.039-35.252,0.077-52.878,0.116l-0.465-0.031l-0.465,0.003
		c-0.055-0.331-0.11-0.662-0.165-0.994c15.686-0.028,31.373-0.056,47.059-0.083c2.288-0.023,4.576-0.046,6.863-0.069
		C398.799,184.311,398.815,184.663,398.832,185.016z"/>
	<path fill="#3D4750" d="M12.056,202.026c-0.086,0.652-0.258,1.957-0.258,1.957L0,200.216c0,0,6.832-1.887,9.903-3.334
		C13.236,197.502,10.931,200.482,12.056,202.026z"/>
	<path fill="#ECEBEB" d="M410.824,190.887c-2.948-0.008-5.896-0.016-8.844-0.024c1.323-0.575,2.646-1.15,3.969-1.725
		C407.121,190.984,409.596,189.197,410.824,190.887z"/>
	<path fill="#F7F7F7" d="M100.688,130.009c1.489,3.203,3.905,5.987,4.359,9.656c0.499,1.86,1.438,3.672-0.564,5.375
		c-2.988,2.542-5.275,5.845-8.595,8.044c-5.243-4.148-9.175-4.258-11.591,0.453c-1.658,3.233-3.738,3.498-6.726,3.476
		c-12.98-0.096-25.961-0.045-38.942-0.008c-1.694,0.005-3.789-0.682-2.946,2.722c3.603,14.543,16.269,25.924,31.986,26.08
		c17.768,0.176,31.351-11.42,34.195-28.664c-1.675-1.061-3.245-2.062-0.656-3.928c1.185-0.854,2.076-2.103,3.193-3.064
		c1.478-1.271,2.416-0.837,2.476,1.088c0.082,2.624,0.038,5.253,0.047,7.88c-0.281,0.782-0.617,1.548-0.835,2.347
		c-3.801,13.938-12.632,23.096-26.315,27.565c-2.494,0.815-5.121,1.225-7.686,1.822c-2.412-0.005-4.825-0.01-7.237-0.016
		c-6.3-1.379-12.515-2.882-17.919-6.752c-12.736-9.119-18.733-21.613-16.711-36.955c2.07-15.71,11.119-26.611,26.368-31.898
		c0.612-0.212,1.307-0.181,1.964-0.264c2.041-1.483,3.555-3.822,6.43-3.946c2.316,0.332,3.148-0.8,2.931-2.969
		c2.368-4.081,3.629-9.4,10.031-8.971c0.049,4.095,0.179,8.191,0.115,12.285c-0.033,2.086,0.473,3.426,2.754,3.869
		c1.423,0.277,2.759,1.003,4.134,1.528c1.264,0.726,2.669,1.284,3.763,2.21c2.878,2.437,4.819,1.549,6.338-1.482
		c0.318-0.091,0.585-0.262,0.801-0.513c1.402-0.558,2.227-1.774,3.208-2.812c2.64,2.345,5.86,4.189,6.87,7.945
		c-1.623,1.743-3.275,3.46-4.855,5.241C100.406,128.105,99.137,128.887,100.688,130.009z M53.14,141.887
		c-1.963-0.288-3.696,1.513-3.933,4.249c-0.233,2.69,1.098,4.789,4.251,5.022c3.156,0.232,5.394-1.49,5.421-4.378
		C58.906,143.781,57.274,142.24,53.14,141.887z M73.359,139.886c1.221-0.824,2.788-1.595,2.423-3.596
		c-0.315-1.727-1.662-2.358-3.284-2.137c-1.666,0.228-2.74,1.275-2.395,3.012C70.402,138.675,71.469,139.691,73.359,139.886z"/>
	<path fill="#F7F7F7" d="M62.873,85.108c-2.244-1.526-4.799-1.04-7.261-1.097c-3.168-0.073-5.76-1.002-5.732-4.699
		c0.029-3.846,2.779-4.366,5.904-4.303c3.324,0.068,6.653,0.046,9.976-0.061c2.993-0.096,5.288-1.275,5.202-4.694
		c-0.088-3.442-2.408-4.39-5.444-4.323c-1.994,0.044-4,0.133-5.984-0.018c-2.747-0.21-4.915-1.341-4.841-4.528
		c0.071-3.052,1.895-4.427,4.863-4.43c1.164-0.001,2.337,0.066,3.49-0.05c2.824-0.284,4.826-1.704,4.767-4.704
		c-0.059-3.036-2.054-4.305-4.99-4.296c-7.483,0.023-14.966,0.017-22.449,0.021c-1.496,0.001-3.005,0.111-4.487-0.039
		c-2.796-0.283-4.869-1.743-4.83-4.687c0.04-3.013,2.134-4.282,5.041-4.283c8.813-0.003,17.626-0.003,26.439-0.024
		c7.647-0.019,15.294-0.066,22.941-0.101c3.132,0.031,6.263,0.063,9.395,0.094c3.156,0.041,6.312,0.106,9.468,0.114
		c2.324,0.006,3.784,1.164,4.367,3.329c0.566,2.103-0.746,3.419-2.212,4.637c-0.957,0.796-2.11,0.853-3.236,1.131
		c-2.19,0.542-3.436,2.023-3.333,4.324c0.101,2.26,1.491,3.708,3.57,4.285c1.25,0.346,2.631,0.288,3.954,0.294
		c8.486,0.04,16.973,0.055,25.459,0.063c2.882,0.003,4.872,1.078,5.032,4.235c0.165,3.262-2.063,4.294-4.727,4.659
		c-1.471,0.201-2.99,0.05-4.487,0.057c-10.981,0.05-21.962,0.101-32.942,0.151c-3.578-0.372-7.156-0.375-10.734-0.006
		c-6.695,4.508-12.092,10.451-17.79,16.065C66.004,83.462,64.98,85.128,62.873,85.108z"/>
	<path fill="#232E38" d="M94.875,38.885c-3.132-0.031-6.263-0.063-9.395-0.094c-1.111-11.424-0.267-22.875-0.43-34.312
		c-0.033-2.322,1.14-4.137,3.747-4.513c26.598,0.059,53.197,0.12,79.795,0.175c5.819,0.012,11.644,0.152,17.455-0.057
		c3.141-0.113,4.183,1.079,3.909,4.061c-0.182,1.979-0.055,3.987-0.066,5.982c-0.999,0.009-1.997,0.026-2.996,0.026
		c-28.797,0.008-57.595,0.077-86.392-0.06c-3.564-0.017-5.068,0.605-4.806,4.56c0.363,5.469,0.175,10.983,0.034,16.472
		C95.664,33.716,96.596,36.463,94.875,38.885z"/>
	<path fill="#464E58" d="M64.851,190.838c2.412,0.005,4.825,0.011,7.237,0.016c11.585-0.004,23.17-0.009,34.755-0.013
		c1.331,0.04,2.662,0.098,3.994,0.117c6.51,0.091,8.679,2.177,8.781,8.652c0.055,3.489-0.064,6.981-0.105,10.471
		c-0.247-0.08-0.492-0.165-0.736-0.255c0.041-5.749,0.041-5.762-5.507-5.762c-27.435,0.003-54.87,0.013-82.306,0.021
		c-0.006-4.331-0.011-8.661-0.017-12.992c2.315-0.138,4.629-0.275,6.943-0.413C46.878,190.732,55.865,190.785,64.851,190.838z"/>
	<path fill="#FDFDFD" d="M37.892,190.68c-2.314,0.138-4.629,0.275-6.943,0.413l-0.49-0.029l-0.489,0.038
		c-2.265,0.016-4.163,1.836-7.471,1.352c3.491-4.163,6.767-7.639,10.675-10.529C34.745,184.843,36.319,187.761,37.892,190.68z"/>
	<path fill="#F7F7F7" d="M59.051,99.098c3.273,0,6.545,0,10.769,0c-3.209,4.691-6.912,7.874-10.756,10.927
		C59.06,106.383,59.056,102.74,59.051,99.098z"/>
	<path fill="#FCF8F7" d="M37.122,75.048c2.843,0.043,4.517,1.295,4.764,4.049c0.226,2.518-2.029,5.007-4.475,4.821
		c-2.633-0.201-4.302-1.798-4.386-4.431C32.939,76.779,34.607,75.343,37.122,75.048z"/>
	<path fill="#F8EEEB" d="M139.032,204.099c0.003,1.992,0.007,3.984,0.01,5.976c-0.056,8.328-0.091,16.656-0.185,24.983
		c-0.02,1.786,0.526,3.69-0.803,5.289c-0.389-0.777,0.403-1.956-0.691-2.392c-0.246-0.098-0.861,0.727-1.307,1.127
		c-0.089-9.675-0.177-19.35-0.266-29.025c0.007-1.988,0.013-3.976,0.02-5.964c0.291-4.386,0.367-8.772-0.002-13.158
		c0.094-8.931,0.188-17.862,0.281-26.793c0.887-0.007,1.775-0.014,2.663-0.022c0.089,8.93,0.178,17.86,0.268,26.79
		C139.024,195.305,139.028,199.702,139.032,204.099z"/>
	<path fill="#F7F7F7" d="M136.056,239.081c0.445-0.4,1.06-1.225,1.307-1.127c1.094,0.436,0.302,1.616,0.691,2.392
		c-2.133,5.309-5.691,7.537-10.626,6.651c-4.656-0.835-7.653-4.693-7.71-10.057c-0.095-8.953-0.139-17.906-0.204-26.86
		c0.041-3.491,0.16-6.982,0.105-10.471c-0.102-6.475-2.271-8.561-8.781-8.652c-1.332-0.019-2.663-0.077-3.994-0.117
		c4.316-3.906,6.93-3.865,12.96,0.203c1.812,2.648,2.482,5.555,2.352,8.771c-0.138,3.411,0.028,6.833,0.061,10.251
		c-0.046,8.611-0.101,17.222-0.135,25.833c-0.015,3.759,1.076,6.961,5.029,8.195C130.911,245.28,133.582,243.679,136.056,239.081z"
		/>
	<path fill="#F7F7F7" d="M330.52,76.318c-7.205,1.948-11.524-0.687-11.894-8.129c-0.486-9.776-0.392-19.589-0.278-29.382
		c0.04-3.487,0.468-6.963-0.074-10.445c-0.45-2.887,0.468-4.233,3.716-4.203c15.145,0.14,30.293,0.141,45.438,0.044
		c2.84-0.018,3.735,0.925,3.707,3.731c-0.122,12.315-0.154,24.634-0.007,36.949c0.038,3.186-1.503,3.43-3.996,3.406
		c-8.82-0.087-17.643-0.051-26.464-0.003c-1.467,0.008-2.997-0.368-4.408,0.387C334.747,71.521,334.133,75.046,330.52,76.318z
		 M344.796,52.09c0,0.015,0,0.029,0,0.044c4.8,0,9.601,0.022,14.4-0.016c1.103-0.009,2.575,0.164,2.464-1.591
		c-0.082-1.292-1.254-1.343-2.258-1.344c-9.6-0.008-19.201-0.013-28.801,0.011c-1.119,0.003-2.623-0.108-2.47,1.592
		c0.148,1.636,1.684,1.275,2.761,1.285C335.526,52.114,340.161,52.09,344.796,52.09z M328.338,44.378
		c4.579,2.389,30.268,2.104,33.652,0C350.362,44.378,339.35,44.378,328.338,44.378z M336.421,58.004c0-0.007,0-0.014,0-0.021
		c2.16,0,4.321,0.022,6.481-0.011c0.882-0.014,1.706-0.353,1.765-1.348c0.06-1.013-0.711-1.448-1.614-1.453
		c-4.485-0.022-8.97-0.02-13.455,0.019c-0.917,0.008-1.626,0.491-1.494,1.528c0.129,1.013,0.975,1.262,1.837,1.275
		C332.101,58.026,334.261,58.004,336.421,58.004z M341.846,30.664c0.152,1.797,1.29,2.854,2.864,2.906
		c1.889,0.063,3.122-1.188,3.058-3.13c-0.055-1.66-1.186-2.89-2.827-2.899C343.085,27.53,341.936,28.709,341.846,30.664z"/>
	<path fill="#37414B" d="M330.52,76.318c3.613-1.272,4.227-4.797,5.74-7.646c12.768,0.035,25.536,0.025,38.303,0.162
		c1.655,0.018,4.202-1.117,4.851,0.978c0.653,2.106-1.101,4.009-2.808,5.425c-1.435,1.191-3.05,1.894-4.998,1.89
		c-12.942-0.03-25.884-0.01-38.827-0.009C331.937,77.118,331.134,76.982,330.52,76.318z"/>
	<path fill="#90D1D7" d="M94.875,38.885c1.721-2.422,0.789-5.169,0.856-7.76c0.142-5.49,0.33-11.004-0.034-16.472
		c-0.263-3.955,1.242-4.577,4.806-4.56c28.797,0.137,57.594,0.068,86.392,0.06c0.999,0,1.997-0.017,2.996-0.026
		c-0.214,4.319,1.62,8.836-1.248,12.899c-1.504,0.948,0.164,3.291-2.497,4.211c-8.304,2.871-10.123,6.086-10.312,14.668
		c-0.09,4.06,1.109,8.262-0.917,12.188c-1.478,3.688-1.45,3.716,4.014,4.136c-0.662,2.565,1.332,5.759-1.939,7.715
		c-9.661,5.776-13.621,14.403-13.244,25.531c0.371,10.975,7.984,21.102,19.219,24.737c10.19,3.296,23.693-0.739,29.792-8.903
		c9.739-13.037,8.257-28.688-4.394-39.076c-3.564-2.927-5.149-5.677-4.548-9.979c2.061-0.651,6.527,0.935,3.842-4.13
		c-2.006-4.45-0.632-9.139-0.921-13.708c-0.434-6.85-3.149-11.288-9.511-12.893c-2.925-0.738-2.917-2.481-3.427-4.428
		c-2.374-1.794-1.683-4.393-1.758-6.779c-0.062-1.988-0.054-3.978-0.078-5.967c25.311-0.065,50.622-0.132,75.933-0.191
		c4.996-0.012,10,0.171,14.986-0.046c2.958-0.129,4.039,0.597,4.024,3.812c-0.125,27.979-0.11,55.958-0.015,83.937
		c0.01,2.895-0.964,3.746-3.734,3.644c-4.823-0.177-9.662-0.178-14.486-0.017c-4.584,0.153-5.829,1.524-5.883,6.135
		c-0.067,5.662,0.006,11.325-0.01,16.987c-0.015,5.118-0.033,5.157-5.226,5.159c-30.477,0.012-60.955,0.004-91.432,0.001
		c-20.485-0.002-40.97-0.01-61.454,0.003c-1.326,0.001-2.651,0.155-3.976,0.238c-1.551-1.122-0.282-1.904,0.385-2.655
		c1.58-1.781,3.232-3.498,4.855-5.241c1.869-0.76,4.571-0.518,5.153-2.951c0.543-2.27-2.072-3.006-3.196-4.484
		c-0.791-1.039-1.759-1.986-2.794-2.786c-1.2-0.929-1.882-3.153-3.912-2.26c-1.829,0.805-2.522,2.504-2.122,4.537
		c-0.981,1.038-1.807,2.254-3.208,2.812c-0.021-16.94-0.041-33.879-0.062-50.819c10.981-0.05,21.962-0.1,32.942-0.151
		c1.497-0.007,3.016,0.144,4.487-0.057c2.664-0.364,4.892-1.397,4.727-4.659c-0.16-3.157-2.15-4.232-5.032-4.235
		c-8.486-0.008-16.973-0.022-25.459-0.063c-1.323-0.006-2.704,0.053-3.954-0.294c-2.079-0.576-3.469-2.024-3.57-4.285
		c-0.103-2.3,1.143-3.782,3.333-4.324c1.127-0.278,2.279-0.335,3.236-1.131c1.465-1.218,2.778-2.535,2.212-4.637
		c-0.583-2.164-2.043-3.323-4.367-3.329C101.187,38.991,98.031,38.926,94.875,38.885z M126.025,98.677
		c0.06-3.627-1.49-5.433-4.785-5.575c-3.147-0.135-5.907,2.239-6.078,5.229c-0.159,2.782,2.76,5.707,5.698,5.711
		C123.874,104.045,125.971,101.867,126.025,98.677z M118.946,39.025c-3.116-0.058-4.2,1.618-4.17,4.403
		c0.031,2.945,1.867,4.397,4.396,4.274c2.533-0.123,4.405-2.016,4.294-4.634C123.357,40.5,121.745,38.81,118.946,39.025z
		 M105.847,107.037c1.885-0.123,3.038-1.086,2.963-3.07c-0.073-1.949-1.211-2.956-3.182-2.874c-1.754,0.073-2.684,1.076-2.745,2.793
		C102.813,105.854,103.838,106.898,105.847,107.037z M125.706,116.94c-0.199-0.719-0.645-1.333-1.294-1.309
		c-0.871,0.031-1.49,0.64-1.375,1.613c0.082,0.69,0.577,1.29,1.252,1.255C125.155,118.454,125.728,117.87,125.706,116.94z"/>
	<path fill="#90D1D7" d="M391.919,184.027c-15.686,0.028-31.373,0.056-47.059,0.083c-9.331,0-18.663-0.001-27.994-0.001
		c-15.673-0.036-31.345-0.071-47.018-0.107c-0.006-23.642,0.067-47.285-0.102-70.926c-0.026-3.659,0.814-4.801,4.656-4.785
		c37.627,0.152,75.255,0.158,112.882,0.002c3.902-0.016,4.628,1.196,4.609,4.814C391.767,136.746,391.882,160.387,391.919,184.027z
		 M360.736,150.02c3.05-2.679,3.051-4.203,0.003-6.863c-0.54-5.947-2.541-11.262-6.762-15.616c-2.146-4.506-7.031-5.977-10.827-9.37
		c5.592,0,10.632,0,15.671,0c1.12,1.195,2.185,1.204,3.071-0.231c0.456-0.739,0.379-1.605-0.203-2.216
		c-1.408-1.479-2.554-0.224-3.733,0.479c-7.365,0.002-14.73,0.003-22.095,0.005c-3.332-2.36-6.657-2.723-9.974,0.029
		c-7.643-0.093-15.286-0.186-22.929-0.278c-1.073-1.14-2.2-1.416-3.334-0.117c-0.607,0.696-0.663,1.488-0.047,2.231
		c1.088,1.314,2.201,1.251,3.309,0.012c5.052,0,10.103,0,16.237,0c-5.538,3.388-10.233,6.18-13.086,11.034
		c-2.483,3.665-4.496,7.524-4.958,12.023c0.414,2.438-2.945,3.203-2.431,5.941c0.375,1.993,2.987,2.66,2.415,4.935
		c1.48,7.589,4.795,14.027,11.502,18.338c0.587,0.812,1.321,1.429,2.296,1.726c4.093,4.139,10.63,3.004,14.912,6.882
		c0.621,0.562,2.661,0.591,3.239-0.377c1.458-2.442,3.935-2.1,6.057-2.827c4.083-1.4,8.117-2.95,11.096-6.316
		c2.648-1.439,4.245-3.83,5.728-6.324C358.807,159.234,360.385,154.854,360.736,150.02z"/>
	<path fill="#F0F0F0" d="M106.924,159.119c-0.01-2.627,0.035-5.255-0.047-7.88c-0.06-1.925-0.998-2.359-2.476-1.088
		c-1.117,0.961-2.009,2.21-3.193,3.064c-2.59,1.866-1.019,2.867,0.656,3.928c-3.03,0.175-5.698-0.182-5.975-4.059
		c3.32-2.199,5.607-5.502,8.595-8.044c2.003-1.704,1.064-3.516,0.564-5.375c2.062,0.96,4.263,0.602,6.406,0.603
		c48.64,0.011,97.28-0.003,145.92-0.012c5.409-0.001,5.43,0.001,5.392,5.318c-0.032,4.493-0.119,8.985-0.182,13.477
		c-14.862,0.041-29.725,0.082-44.588,0.123c-17.74,0.012-35.48,0.024-53.22,0.036c-8.586-0.008-17.172-0.015-25.758-0.023
		c-1.068-0.014-2.135-0.028-3.203-0.042C126.185,159.137,116.554,159.128,106.924,159.119z"/>
	<path fill="#B4BBBB" d="M248.93,184.926c4.598-1.676,9.387-0.152,14.044-0.837c2.291-0.029,4.582-0.058,6.873-0.087
		c15.673,0.036,31.345,0.071,47.018,0.107c0.05,0.62,0.099,1.239,0.149,1.859c-0.362,0.031-0.723,0.063-1.085,0.094
		c-0.924-1.369-2.356-0.997-3.633-0.996c-21.098,0.005-42.196,0.033-63.294,0.056L248.93,184.926z"/>
	<path fill="#969AA0" d="M331.675,105.147c0.072,0.369-0.332,0.604-0.803,0.741c-0.638,0.185-0.818-0.3-0.945-0.755
		c-0.165-0.587,0.217-0.879,0.707-0.973C331.187,104.052,331.489,104.4,331.675,105.147z"/>
	<path fill="#474E58" d="M232.075,190.887c10.569-0.029,21.139-0.057,31.708-0.086c24.726,0.064,49.452,0.131,74.179,0.19
		c16.265,0.039,32.53,0.068,48.794,0.102c0.119,4.338,0.239,8.676,0.358,13.013l-0.431-0.069
		c-80.553,0.009-161.107,0.017-241.66,0.027c-1.997,0-3.994,0.022-5.991,0.034c-0.004-4.397-0.008-8.794-0.012-13.191
		c3.653-0.033,7.306-0.067,10.96-0.1C177.345,190.834,204.71,190.86,232.075,190.887z"/>
	<path fill="#ECEBEB" d="M387.114,204.106c-0.119-4.338-0.239-8.676-0.358-13.013c3.775,0.264,7.561-0.694,11.331,0.109
		c-0.118,4.294-0.235,8.587-0.353,12.881C394.194,204.091,390.654,204.099,387.114,204.106z"/>
	<path fill="#EFEFEF" d="M249.002,185.122c21.098-0.023,42.196-0.051,63.294-0.056c1.277,0,2.709-0.372,3.633,0.996
		c-20.766,0.008-41.532,0.034-62.298-0.009C252.075,186.05,250.268,186.773,249.002,185.122z"/>
	<path fill="#777F85" d="M317.014,185.969c-0.05-0.62-0.099-1.239-0.149-1.859c9.331,0,18.663,0.001,27.994,0.001
		c0.055,0.331,0.11,0.662,0.165,0.994c-0.967,1.297-2.382,0.933-3.661,0.933C333.247,186.034,325.13,185.995,317.014,185.969z"/>
	<path fill="#474F59" d="M174.916,54.092c2.026-3.925,0.827-8.128,0.917-12.188c0.189-8.582,2.009-11.797,10.312-14.668
		c2.662-0.92,0.994-3.263,2.497-4.211c1.718,0.022,3.437,0.045,5.155,0.067c0.51,1.947,0.502,3.69,3.427,4.428
		c6.362,1.605,9.078,6.043,9.511,12.893c0.289,4.569-1.085,9.258,0.921,13.708C196.744,54.112,185.83,54.102,174.916,54.092z"/>
	<path fill="#90D1D7" d="M96.013,152.794c3.532,2.022,3.406,2.313,5.85,4.349c-2.844,17.244-16.427,28.841-34.195,28.664
		c-15.717-0.156-28.383-11.537-31.986-26.08c-0.843-3.404,1.252-2.717,2.946-2.722c12.981-0.038,25.962-0.088,38.942,0.008
		c2.988,0.022,5.068-0.243,6.726-3.476C86.713,148.827,90.263,149.076,96.013,152.794z M55.951,170.062
		c2.895-0.57,4.612-2.449,4.543-5.097c-0.071-2.735-2.095-4.729-4.877-4.467c-2.539,0.239-4.81,1.911-4.541,4.885
		C51.321,168.102,53.297,169.609,55.951,170.062z M86.037,169.826c1.573-0.472,2.916-1.057,2.835-2.95
		c-0.089-2.069-1.339-2.907-3.257-2.811c-1.489,0.075-2.597,0.92-2.563,2.441C83.092,168.357,84.332,169.401,86.037,169.826z
		 M76.635,177.289c-0.037-1.159-0.735-1.835-1.789-2.051c-1.349-0.276-2.349,0.376-2.548,1.7c-0.168,1.122,0.642,1.851,1.723,2.062
		C75.38,179.265,76.226,178.598,76.635,177.289z"/>
	<path fill="#25303A" d="M95.048,117.494c-1.518,3.031-3.46,3.919-6.338,1.482c-1.094-0.926-2.5-1.484-3.763-2.21
		c0.015-10.866,0.03-21.732,0.045-32.598c3.319-0.573,7.055,0.613,9.81-2.331C94.884,93.722,94.966,105.608,95.048,117.494z"/>
	<path fill="#27303A" d="M95.048,117.494c-0.082-11.886-0.164-23.772-0.246-35.658c0.335-5.552-0.527-6.612-5.754-6.855
		c-1.504-0.07-3.005,0.012-4.304-0.932c-0.123-2.64-0.491-5.29,0.31-7.893c3.578-0.369,7.156-0.366,10.734,0.006
		c0.021,16.94,0.041,33.879,0.062,50.819C95.633,117.232,95.366,117.403,95.048,117.494z"/>
	<path fill="#ECEFEF" d="M99.058,114.169c-0.4-2.033,0.293-3.732,2.122-4.537c2.03-0.893,2.712,1.331,3.912,2.26
		c1.034,0.8,2.003,1.747,2.794,2.786c1.124,1.478,3.739,2.214,3.196,4.484c-0.582,2.434-3.284,2.191-5.153,2.951
		C104.918,118.358,101.698,116.514,99.058,114.169z"/>
	<path fill="#94D3D9" d="M53.14,141.887c4.135,0.353,5.766,1.894,5.738,4.893c-0.027,2.889-2.265,4.611-5.421,4.378
		c-3.152-0.232-4.483-2.332-4.251-5.022C49.443,143.4,51.176,141.599,53.14,141.887z"/>
	<path fill="#98D1D7" d="M73.359,139.886c-1.89-0.195-2.957-1.211-3.257-2.72c-0.345-1.736,0.729-2.784,2.395-3.012
		c1.623-0.221,2.969,0.41,3.284,2.137C76.147,138.291,74.58,139.063,73.359,139.886z"/>
	<path fill="#9AD4D9" d="M64.983,111.024c-0.402-0.958-1.383-1.807-0.407-2.987c1.15-1.393,2.23-0.528,3.338,0.018
		C68.131,110.224,67.299,111.357,64.983,111.024z"/>
	<path fill="#F7F7F7" d="M84.744,74.049c1.299,0.944,2.799,0.862,4.304,0.932c5.226,0.243,6.089,1.304,5.754,6.855
		c-2.755,2.944-6.492,1.758-9.81,2.331c-3.831,0.309-8.069-1.754-11.316,1.947c-0.227,0.38-0.455,0.761-0.682,1.141
		c0.064,0.272,0.058,0.543-0.016,0.813c-1.748-0.168-3.552,0.374-5.844-0.586c3.021-3.067,5.862-5.936,8.684-8.823
		c1.261-1.29,2.91-2.417,3.64-3.968C81.043,71.325,82.785,72.554,84.744,74.049z"/>
	<path fill="#484F59" d="M123.016,209.843c-0.264,0.084-0.531,0.158-0.8,0.222c-0.033-3.417-0.199-6.84-0.061-10.251
		c0.13-3.215-0.54-6.122-2.352-8.771c5.335-0.037,10.67-0.074,16.005-0.11c0.369,4.386,0.293,8.772,0.002,13.158
		c-2.469-0.011-4.939-0.034-7.408-0.03C122.961,204.073,122.961,204.078,123.016,209.843z"/>
	<path fill="#252F39" d="M123.016,209.843c-0.055-5.765-0.055-5.77,5.386-5.781c2.469-0.005,4.939,0.019,7.408,0.03
		c-0.007,1.988-0.014,3.976-0.02,5.964C131.532,209.985,127.274,209.914,123.016,209.843z"/>
	<path fill="#D4C1BB" d="M139.018,159.187c-0.088,1.644-0.176,3.288-0.264,4.932c-0.889,0.007-1.776,0.014-2.663,0.021
		c-0.091-1.665-0.182-3.33-0.274-4.995C136.883,159.159,137.95,159.173,139.018,159.187z"/>
	<path fill="#A6D9DE" d="M344.796,52.09c-4.635,0-9.269,0.025-13.904-0.018c-1.077-0.01-2.614,0.351-2.761-1.285
		c-0.154-1.701,1.351-1.589,2.47-1.592c9.6-0.025,19.201-0.02,28.801-0.011c1.004,0.001,2.176,0.052,2.258,1.344
		c0.111,1.755-1.36,1.582-2.464,1.591c-4.8,0.038-9.6,0.016-14.4,0.016C344.796,52.119,344.796,52.104,344.796,52.09z"/>
	<path fill="#90D1D7" d="M328.338,44.378c11.012,0,22.024,0,33.652,0C358.606,46.482,332.916,46.767,328.338,44.378z"/>
	<path fill="#A6D9DD" d="M336.421,58.004c-2.16,0-4.321,0.021-6.48-0.01c-0.862-0.013-1.708-0.262-1.837-1.275
		c-0.132-1.037,0.577-1.52,1.494-1.528c4.485-0.039,8.97-0.041,13.455-0.019c0.903,0.004,1.673,0.44,1.614,1.453
		c-0.059,0.996-0.883,1.335-1.765,1.348c-2.16,0.033-4.32,0.011-6.481,0.011C336.421,57.99,336.421,57.997,336.421,58.004z"/>
	<path fill="#FDFDFD" d="M203.816,58.252c-0.601,4.302,0.983,7.052,4.548,9.979c12.65,10.388,14.133,26.039,4.394,39.076
		c-6.099,8.164-19.602,12.199-29.792,8.903c-11.235-3.634-18.848-13.762-19.219-24.737c-0.377-11.129,3.583-19.755,13.244-25.531
		c3.271-1.956,1.277-5.15,1.939-7.715C187.226,58.236,195.521,58.244,203.816,58.252z M177.613,96.335
		c1.918,2.074,6.737,1.295,5.709,5.847c-0.033,0.148,1.024,0.806,1.177,0.692c2.68-1.987,3.994-0.85,6.18,1.332
		c1.241,1.238,3.962-5.005,7.403-1.329c0.071,0.076,1.202-0.541,1.171-0.715c-0.647-3.63,1.368-3.917,4.304-4.775
		c1.457-0.426-1.992-5.791,2.424-7.236c0.119-0.039,0.094-1.294-0.089-1.36c-3.437-1.243-2.199-3.122-1.745-5.83
		c0.307-1.834-6.113-1.243-5.032-5.872c0.031-0.134-1.042-0.787-1.207-0.665c-2.569,1.896-3.88,1.046-6.055-1.21
		c-1.124-1.166-4.194,4.462-7.584,1.347c-0.093-0.086-1.178,0.531-1.156,0.754c0.322,3.117-0.691,3.965-4.069,4.439
		c-2.363,0.331,2.609,6.143-2.635,7.139c-0.111,0.021-0.249,1.233-0.048,1.356C178.834,91.767,180.639,93.387,177.613,96.335z"/>
	<path fill="#36404A" d="M203.816,58.252c-8.295-0.008-16.59-0.016-24.886-0.025c-5.465-0.419-5.492-0.448-4.014-4.136
		c10.914,0.01,21.828,0.02,32.742,0.03C210.343,59.187,205.877,57.601,203.816,58.252z"/>
	<path fill="#FCFDFD" d="M126.025,98.677c-0.053,3.19-2.15,5.368-5.165,5.365c-2.937-0.004-5.856-2.929-5.698-5.711
		c0.171-2.989,2.931-5.364,6.078-5.229C124.535,93.244,126.085,95.05,126.025,98.677z"/>
	<path fill="#FBFDFD" d="M118.946,39.025c2.799-0.215,4.411,1.474,4.52,4.043c0.111,2.618-1.76,4.512-4.294,4.634
		c-2.529,0.123-4.365-1.33-4.396-4.274C114.746,40.643,115.83,38.968,118.946,39.025z"/>
	<path fill="#F4F6F6" d="M105.847,107.037c-2.009-0.139-3.034-1.183-2.964-3.151c0.061-1.717,0.992-2.72,2.745-2.793
		c1.97-0.082,3.108,0.925,3.182,2.874C108.885,105.951,107.732,106.915,105.847,107.037z"/>
	<path fill="#EAF6F7" d="M125.706,116.94c0.022,0.929-0.551,1.514-1.417,1.558c-0.675,0.035-1.17-0.565-1.252-1.255
		c-0.115-0.973,0.504-1.581,1.375-1.613C125.06,115.608,125.507,116.221,125.706,116.94z"/>
	<path fill="#46626B" d="M350.164,169.445c-2.98,3.366-7.013,4.916-11.096,6.316c-2.122,0.727-4.599,0.386-6.057,2.827
		c-0.578,0.968-2.618,0.939-3.239,0.377c-4.283-3.878-10.819-2.743-14.912-6.882c0.327-0.252,0.654-0.505,0.981-0.757
		c4.524,1.663,8.71,5.514,14.037,1.955c0.617-0.412,2.252-0.204,2.795,0.338c2.098,2.093,4.169,1.056,6.394,0.471
		c3.898-1.025,7.094-3.343,10.468-5.349C349.758,168.962,349.969,169.197,350.164,169.445z M331.665,176.243
		c0.12-0.576-0.226-0.843-0.694-0.96c-0.564-0.141-0.83,0.238-0.949,0.705c-0.145,0.57,0.245,0.827,0.703,0.956
		C331.31,177.109,331.508,176.682,331.665,176.243z"/>
	<path fill="#4A6971" d="M306.035,129.12c2.853-4.854,7.548-7.646,13.086-11.034c-6.133,0-11.185,0-16.237,0
		c0.024-0.709,0.049-1.418,0.073-2.127c7.643,0.093,15.286,0.186,22.929,0.278c0.058,1.301-2.894-0.273-1.868,1.954
		c-6.818,2.387-12.822,5.941-17.118,11.944C306.613,129.797,306.324,129.458,306.035,129.12z"/>
	<path fill="#4D6C74" d="M335.861,116.208c7.365-0.002,14.73-0.003,22.095-0.005c0.288,0.656,0.577,1.312,0.865,1.967
		c-5.039,0-10.078,0-15.671,0c3.796,3.393,8.68,4.864,10.827,9.37c-0.041,0.53-0.082,1.061-0.123,1.591
		c-4.187-5.407-9.981-8.432-16.156-10.891C337.086,117.564,336.473,116.886,335.861,116.208z"/>
	<path fill="#33464F" d="M335.861,116.208c0.613,0.678,1.225,1.355,1.838,2.033c-0.816-0.039-1.867-0.427-2.409-0.06
		c-3.015,2.041-5.858,2.021-8.861-0.025c-0.543-0.37-1.594,0.005-2.41,0.036c-1.026-2.227,1.925-0.653,1.868-1.954
		C329.203,113.486,332.529,113.848,335.861,116.208z"/>
	<path fill="#435E67" d="M312.564,170.357c-6.706-4.311-10.022-10.749-11.502-18.338c0.305-0.011,0.608,0.006,0.91,0.053
		c2.283,6.771,5.563,12.91,11.138,17.598C312.965,169.928,312.783,170.157,312.564,170.357z"/>
	<path fill="#46626A" d="M353.854,129.132c0.041-0.53,0.082-1.061,0.123-1.591c4.221,4.354,6.221,9.669,6.762,15.616
		c-0.651,0.286-1.302,0.573-1.953,0.859C359.604,138.24,356.627,133.72,353.854,129.132z"/>
	<path fill="#2B3942" d="M301.972,152.072c-0.302-0.047-0.605-0.065-0.91-0.053c0.572-2.274-2.04-2.941-2.415-4.935
		c-0.515-2.738,2.844-3.503,2.431-5.941c0.289,0.006,0.576-0.015,0.86-0.064c-0.833,2.354,2.041,3.245,2.066,5.489
		C304.029,148.832,301.123,149.723,301.972,152.072z M301.439,147.993c0.882-0.101,1.382-0.614,1.264-1.629
		c-0.126-1.085-0.89-1.249-1.775-1.189c-0.84,0.057-1.061,0.674-1.077,1.362C299.827,147.52,300.317,148.055,301.439,147.993z"/>
	<path fill="#466169" d="M360.736,150.02c-0.35,4.834-1.929,9.214-4.843,13.1c-0.078-0.505-0.157-1.01-0.235-1.515
		c1.924-3.648,2.74-7.694,4.136-11.531C360.106,150.037,360.42,150.019,360.736,150.02z"/>
	<path fill="#27333D" d="M360.736,150.02c-0.315-0.001-0.63,0.018-0.943,0.055c-2.279-1.696-3.034-3.646-1.007-6.058
		c0.651-0.286,1.302-0.573,1.953-0.859C363.786,145.817,363.786,147.341,360.736,150.02z M358.934,146.574
		c-0.009,0.964,0.484,1.443,1.437,1.444c0.954,0.001,1.444-0.488,1.445-1.444c0.001-0.957-0.491-1.444-1.445-1.443
		C359.419,145.133,358.924,145.609,358.934,146.574z"/>
	<path fill="#446069" d="M301.938,141.078c-0.285,0.049-0.572,0.07-0.86,0.064c0.462-4.499,2.475-8.358,4.958-12.023
		c0.289,0.339,0.577,0.677,0.866,1.016C304.7,133.535,303.548,137.411,301.938,141.078z"/>
	<path fill="#2F414A" d="M302.958,115.959c-0.024,0.709-0.049,1.418-0.073,2.127c-1.108,1.239-2.22,1.302-3.309-0.012
		c-0.615-0.743-0.56-1.536,0.047-2.231C300.757,114.543,301.884,114.819,302.958,115.959z"/>
	<path fill="#2C3B45" d="M358.821,118.171c-0.288-0.656-0.577-1.312-0.865-1.967c1.179-0.703,2.326-1.958,3.733-0.479
		c0.582,0.612,0.66,1.477,0.203,2.216C361.006,119.375,359.941,119.366,358.821,118.171z"/>
	<path fill="#415C65" d="M355.657,161.605c0.078,0.505,0.157,1.01,0.235,1.515c-1.483,2.494-3.081,4.885-5.728,6.324
		c-0.196-0.248-0.406-0.482-0.63-0.704C351.575,166.362,353.616,163.984,355.657,161.605z"/>
	<path fill="#3A5059" d="M315.84,171.326c-0.327,0.252-0.654,0.505-0.981,0.757c-0.975-0.297-1.708-0.914-2.296-1.726
		c0.219-0.2,0.401-0.429,0.546-0.687C314.02,170.221,314.93,170.774,315.84,171.326z"/>
	<path fill="#CBCAC9" d="M164.996,160.103c-0.091-0.293-0.165-0.591-0.221-0.893c17.74-0.012,35.48-0.024,53.22-0.036
		c0.502,8.523,1.603,16.976,2.79,25.426c0.321,2.287,1.488,2.448,3.308,2.593c2.539,0.202,5.257-0.968,7.609,0.862
		c-2.261,0.026-4.522,0.052-6.782,0.078c-1.346-0.013-2.692-0.026-4.038-0.039c-5.322,0.005-10.644,0.009-15.966,0.014
		c-1.342-0.01-2.683-0.021-4.025-0.031c-2.65-0.014-5.301-0.029-7.951-0.043C183.948,178.4,174.677,169.046,164.996,160.103z"/>
	<path fill="#E4E3E2" d="M220.881,188.095c1.346,0.013,2.692,0.026,4.038,0.039c1.545,3.614,4.773,1.177,7.102,1.975
		c0.025,0.259,0.043,0.518,0.055,0.778c-27.365-0.026-54.73-0.053-82.095-0.079c0.027-0.262,0.078-0.52,0.153-0.773
		c3.395-0.163,6.874,0.492,10.18-0.961c-3.044-1.482-6.246-0.756-9.354-0.993c2.387-1.738,5.11-0.715,7.663-0.812
		c2.21-0.084,3.156-0.635,3.405-3.047c0.831-8.056,1.956-16.081,2.968-24.118c9.681,8.943,18.952,18.297,27.943,27.931
		c-2.457,0.488-5.266-0.861-8.175,1.553c5.276,0.813,9.813,0.388,14.331,0.402c1.215,0.004,1.648-0.849,1.795-1.912
		c1.342,0.01,2.683,0.021,4.025,0.031c0.125,0.64,0.195,1.524,0.891,1.607c4.722,0.569,9.461,0.583,14.178-0.04
		C220.347,189.628,220.585,188.644,220.881,188.095z M180.257,189.637c-0.012-0.491-0.023-0.981-0.035-1.472
		c-4.915-0.078-9.836-0.279-14.728,0.124c0.02,0.449,0.04,0.899,0.06,1.348C170.455,189.637,175.356,189.637,180.257,189.637z"/>
	<path fill="#EFEFEE" d="M232.02,190.108c-2.328-0.798-5.556,1.639-7.102-1.975c2.261-0.026,4.522-0.052,6.782-0.078
		C232.125,188.691,233.025,189.251,232.02,190.108z"/>
	<path fill="#F9FCFC" d="M55.951,170.062c-2.654-0.453-4.63-1.96-4.875-4.678c-0.268-2.974,2.002-4.646,4.541-4.885
		c2.782-0.262,4.806,1.732,4.877,4.467C60.563,167.614,58.846,169.492,55.951,170.062z"/>
	<path fill="#EFF3F3" d="M86.037,169.826c-1.705-0.426-2.944-1.47-2.986-3.32c-0.034-1.521,1.074-2.366,2.563-2.441
		c1.919-0.097,3.169,0.742,3.257,2.811C88.953,168.769,87.61,169.355,86.037,169.826z"/>
	<path fill="#E8F0F0" d="M76.635,177.289c-0.409,1.309-1.255,1.976-2.613,1.712c-1.081-0.21-1.892-0.94-1.723-2.062
		c0.199-1.324,1.199-1.976,2.548-1.7C75.9,175.454,76.597,176.13,76.635,177.289z"/>
	<path fill="#EFEDEC" d="M72.994,87.255c0.227-0.38,0.455-0.761,0.682-1.141C73.448,86.495,73.221,86.875,72.994,87.255z"/>
	<path fill="#EFEFEE" d="M150.959,188.08c3.107,0.237,6.309-0.488,9.354,0.993c-3.306,1.453-6.785,0.798-10.18,0.961
		C149.883,189.161,150.024,188.453,150.959,188.08z"/>
	<path fill="#374049" d="M177.613,96.335c3.025-2.948,1.221-4.568-1.253-6.087c-0.201-0.124-0.063-1.335,0.048-1.356
		c5.243-0.996,0.272-6.808,2.635-7.139c3.379-0.473,4.392-1.322,4.069-4.439c-0.023-0.223,1.063-0.839,1.156-0.754
		c3.389,3.115,6.459-2.513,7.584-1.347c2.175,2.256,3.486,3.106,6.055,1.21c0.165-0.122,1.238,0.532,1.207,0.665
		c-1.081,4.629,5.339,4.038,5.032,5.872c-0.453,2.708-1.691,4.587,1.745,5.83c0.183,0.066,0.208,1.321,0.089,1.36
		c-4.416,1.446-0.967,6.81-2.424,7.236c-2.936,0.859-4.951,1.145-4.304,4.775c0.031,0.175-1.1,0.791-1.171,0.715
		c-3.441-3.676-6.162,2.567-7.403,1.329c-2.186-2.181-3.5-3.318-6.18-1.332c-0.153,0.113-1.21-0.545-1.177-0.692
		C184.35,97.63,179.532,98.41,177.613,96.335z M197.141,89.53c-0.067-3.457-2.613-6.026-5.977-6.03
		c-3.242-0.004-6.338,3.324-6.144,6.604c0.175,2.952,3.49,5.928,6.466,5.805C194.73,95.774,197.208,92.978,197.141,89.53z"/>
	<path fill="#90D1D7" d="M315.84,171.326c-0.91-0.552-1.82-1.104-2.731-1.656c-5.574-4.687-8.855-10.827-11.138-17.598
		c-0.849-2.349,2.057-3.24,2.032-5.505c-0.025-2.244-2.899-3.135-2.066-5.489c1.611-3.668,2.763-7.543,4.964-10.943
		c4.295-6.003,10.299-9.557,17.118-11.944c0.816-0.031,1.867-0.406,2.41-0.036c3.003,2.046,5.846,2.066,8.861,0.025
		c0.541-0.366,1.593,0.021,2.409,0.06c6.174,2.46,11.969,5.484,16.156,10.891c2.773,4.587,5.749,9.107,4.931,14.884
		c-2.026,2.412-1.272,4.362,1.007,6.058c-1.396,3.837-2.212,7.883-4.136,11.531c-2.041,2.378-4.082,4.756-6.123,7.135
		c-3.374,2.006-6.57,4.324-10.468,5.349c-2.225,0.585-4.295,1.622-6.394-0.471c-0.543-0.542-2.179-0.75-2.795-0.338
		C324.551,176.839,320.364,172.989,315.84,171.326z M330.951,158.123c8.886,0.52,15.93-2.862,21.769-9.199
		c1.447-1.571,1.918-2.576,0.244-4.494c-10.67-12.228-31.947-13.009-43.29-1.443c-3.061,3.122-3.191,4.386,0.152,7.32
		C315.874,155.616,322.767,158.936,330.951,158.123z"/>
	<path fill="#90D2D8" d="M331.667,176.241c-0.16,0.441-0.357,0.868-0.943,0.703c-0.458-0.129-0.848-0.386-0.703-0.956
		c0.119-0.467,0.385-0.846,0.949-0.705C331.439,175.4,331.785,175.667,331.667,176.241z"/>
	<path fill="#87C5CB" d="M301.439,147.993c-1.122,0.062-1.612-0.473-1.589-1.456c0.016-0.688,0.237-1.306,1.077-1.362
		c0.886-0.06,1.65,0.104,1.775,1.189C302.821,147.379,302.321,147.892,301.439,147.993z"/>
	<path fill="#8ECED5" d="M358.934,146.574c-0.01-0.965,0.485-1.441,1.437-1.442c0.954-0.001,1.445,0.485,1.445,1.443
		c-0.001,0.956-0.491,1.445-1.445,1.444C359.418,148.017,358.925,147.538,358.934,146.574z"/>
	<path fill="#EFEFEE" d="M200.89,188.077c-0.147,1.063-0.58,1.916-1.795,1.912c-4.518-0.014-9.055,0.411-14.331-0.402
		c2.91-2.414,5.718-1.065,8.175-1.553C195.59,188.048,198.24,188.063,200.89,188.077z"/>
	<path fill="#EFEFEE" d="M220.881,188.095c-0.296,0.549-0.534,1.534-0.897,1.581c-4.717,0.623-9.456,0.608-14.178,0.04
		c-0.696-0.084-0.767-0.967-0.891-1.607C210.237,188.104,215.559,188.099,220.881,188.095z"/>
	<path fill="#EFEFEE" d="M180.257,189.637c-4.901,0-9.802,0-14.703,0c-0.02-0.449-0.04-0.899-0.06-1.348
		c4.892-0.403,9.813-0.202,14.728-0.124C180.233,188.655,180.245,189.146,180.257,189.637z"/>
	<path fill="#EE8160" d="M197.141,89.53c0.067,3.448-2.412,6.244-5.654,6.379c-2.976,0.124-6.291-2.852-6.466-5.805
		c-0.194-3.281,2.902-6.609,6.144-6.604C194.529,83.504,197.075,86.073,197.141,89.53z M193.831,89.763
		c-0.155-1.501-0.983-2.461-2.426-2.581c-1.544-0.129-2.402,0.836-2.475,2.337c-0.074,1.523,0.708,2.445,2.279,2.523
		C192.793,92.12,193.496,91.135,193.831,89.763z"/>
	<path fill="#FBFCFC" d="M330.951,158.123c-8.183,0.813-15.076-2.507-21.125-7.816c-3.343-2.935-3.213-4.199-0.152-7.32
		c11.342-11.566,32.619-10.786,43.29,1.443c1.674,1.918,1.203,2.924-0.244,4.494C346.88,155.261,339.837,158.642,330.951,158.123z
		 M321.857,146.825c0.029,4.87,3.96,8.953,8.763,9.1c4.7,0.144,9.223-4.392,9.235-9.261c0.012-5.111-3.665-8.707-8.902-8.707
		C325.237,137.956,321.824,141.284,321.857,146.825z"/>
	<path fill="#FBFAF9" d="M193.831,89.763c-0.335,1.372-1.037,2.357-2.622,2.278c-1.572-0.078-2.354-1-2.279-2.523
		c0.074-1.501,0.932-2.465,2.475-2.337C192.847,87.302,193.675,88.263,193.831,89.763z"/>
	<path fill="#90D0D6" d="M321.857,146.825c-0.033-5.541,3.38-8.869,9.095-8.868c5.238,0,8.915,3.596,8.902,8.707
		c-0.012,4.869-4.535,9.405-9.235,9.261C325.817,155.778,321.886,151.695,321.857,146.825z M334.901,146.569
		c-0.167-2.559-1.742-4.003-4.094-4.015c-2.337-0.012-4.071,1.331-4.095,3.962c-0.026,2.795,1.585,4.416,4.256,4.283
		C333.311,150.683,334.814,149.141,334.901,146.569z"/>
	<path fill="#27333D" d="M334.901,146.569c-0.087,2.572-1.59,4.114-3.934,4.23c-2.671,0.132-4.281-1.488-4.256-4.283
		c0.024-2.63,1.758-3.974,4.095-3.962C333.159,142.566,334.734,144.01,334.901,146.569z"/>
	<g>
		<path fill="none" d="M9.903,196.882c0.81-0.137,1.559-0.369,2.265-0.667L9.903,196.882z"/>
		<path fill="#F0F0F0" d="M12.168,196.215c-0.706,0.298-1.455,0.529-2.265,0.667c3.333,0.62,1.028,3.6,2.153,5.144
			c4.934-0.392,9.68,1.511,14.648,1.117c2.264-0.179,3.281-0.849,3.217-3.181c-0.081-2.951,0.024-5.907,0.048-8.861
			C27.703,191.117,14.443,195.255,12.168,196.215"/>
	</g>
</g>
<g>
	<path fill="none" d="M76.642,99.087l1.302-0.002C77.482,99.053,77.053,99.06,76.642,99.087z"/>
	<path fill="#F7F7F7" d="M59.064,110.025c-0.17,1.648-0.341,3.297-0.511,4.945c2.041-1.483,3.555-3.822,6.43-3.946
		c-0.402-0.958-1.383-1.807-0.407-2.987c1.15-1.393,2.23-0.528,3.338,0.018c2.197-3.786,3.448-8.63,8.729-8.968l-6.822,0.011
		C66.611,103.789,62.908,106.972,59.064,110.025z"/>
</g>
<path fill="none" d="M70.836,88.073"/>
<path fill="none" d="M61.171,88.281"/>
<path fill="#F7F7F7" d="M85.054,66.156c-6.695,4.508-12.092,10.451-17.79,16.065c-1.26,1.241-2.284,2.907-4.391,2.888
	c0.529,1.095,1.116,2.166,0.451,2.743l4.411-0.157c-0.198-0.064-0.396-0.125-0.602-0.212c3.021-3.067,5.862-5.936,8.684-8.823
	c1.261-1.29,2.909-2.417,3.64-3.968c1.586-3.366,3.327-2.138,5.287-0.642C84.621,71.409,84.253,68.76,85.054,66.156z"/>
<g>
	<path fill="#F7F7F7" d="M70.836,88.073l-2.412,0.055l5.17-0.039c-0.205-0.007-0.411-0.013-0.616-0.02
		c-1.591-0.153-3.232,0.27-5.241-0.375l-4.411,0.157c-0.159,0.138-0.394,0.246-0.714,0.321l5.814-0.044L70.836,88.073z"/>
	<path fill="#EFEDEC" d="M62.61,88.172c-0.299,0.07-0.672,0.111-1.142,0.115l6.956-0.159L62.61,88.172z"/>
	<path fill="#EFEDEC" d="M80.683,89.023c-0.291-0.797-1.391-0.747-2.227-0.774c-1.621-0.051-3.241-0.106-4.862-0.16l-5.17,0.039
		l-6.956,0.159c-1.755,0.015-4.174-0.956-5.131,0.79c-1.189,2.17-0.286,4.893-0.393,7.373c-0.097,2.242,2.332,1.462,3.107,2.648
		c3.273,0,6.545,0,10.769,0l6.822-0.011c0.411-0.026,0.84-0.033,1.302-0.002c1.132-0.799,3.165-0.595,3.157-2.661
		C81.092,93.948,81.555,91.412,80.683,89.023z"/>
</g>
</svg>
